G04 GENERATED BY PULSONIX 12.5 GERBER.DLL 9449*
G04 #@! TF.GenerationSoftware,Pulsonix,Pulsonix,12.5.9449*
G04 #@! TF.CreationDate,2025-07-29T07:21:01--1:00*
G04 #@! TF.Part,Single*
%FSLAX35Y35*%
%LPD*%
%MOMM*%
G04 #@! TF.FileFunction,Legend,Top*
G04 #@! TF.FilePolarity,Positive*
G04 #@! TA.AperFunction,Profile*
%ADD10C,0.30000*%
G04 #@! TA.AperFunction,Material*
%ADD11C,0.20000*%
%ADD13C,0.20320*%
%ADD75C,0.50000*%
G04 #@! TD.AperFunction*
%ADD76C,0.20000*%
%ADD113C,0.25000*%
%ADD114C,0.50800*%
G04 #@! TD.AperFunction*
X0Y0D02*
D02*
D10*
X3764250Y15214250D02*
X12264250D01*
G75*
G02*
X12564250Y14914250I0J-300000D01*
G01*
Y3514250D01*
G75*
G02*
X12264250Y3214250I-300000J0D01*
G01*
X3764250D01*
G75*
G02*
X3464250Y3514250I0J300000D01*
G01*
Y14914250D01*
G75*
G02*
X3764250Y15214250I300000J0D01*
G01*
D02*
D11*
X4118000Y3927500D02*
X4818000D01*
Y2917500D01*
X4118000D01*
Y3927500D01*
X4431500Y7979500D02*
Y7279500D01*
X3421500D01*
Y7979500D01*
X4431500D01*
X5134000Y3927500D02*
X5834000D01*
Y2917500D01*
X5134000D01*
Y3927500D01*
X6150000D02*
X6850000D01*
Y2917500D01*
X6150000D01*
Y3927500D01*
X6333000Y13665500D02*
X8533000D01*
Y12765500D01*
X6333000D01*
Y13665500D01*
Y14681500D02*
X8533000D01*
Y13781500D01*
X6333000D01*
Y14681500D01*
X7166000Y3927500D02*
X7866000D01*
Y2917500D01*
X7166000D01*
Y3927500D01*
X8124525Y12687500D02*
X6119500D01*
Y10187500D01*
X8619500D01*
Y12192525D01*
X8124525Y12687500D01*
X8137000Y5341500D02*
X7237000D01*
Y4833000D01*
X8137000D01*
Y5341500D01*
X8182000Y3927500D02*
X8882000D01*
Y2917500D01*
X8182000D01*
Y3927500D01*
X8987000Y4833000D02*
X6387000D01*
Y9977000D01*
X8987000D01*
Y4833000D01*
X9198000Y3927500D02*
X9898000D01*
Y2917500D01*
X9198000D01*
Y3927500D01*
X9671500Y5603500D02*
X11671500D01*
Y6603500D01*
X9671500D01*
Y5603500D01*
Y8080000D02*
X11671500D01*
Y9080000D01*
X9671500D01*
Y8080000D01*
Y10556500D02*
X11671500D01*
Y11556500D01*
X9671500D01*
Y10556500D01*
Y13033000D02*
X11671500D01*
Y14033000D01*
X9671500D01*
Y13033000D01*
X10214000Y3927500D02*
X10914000D01*
Y2917500D01*
X10214000D01*
Y3927500D01*
X11230000D02*
X11930000D01*
Y2917500D01*
X11230000D01*
Y3927500D01*
X11815000Y5012500D02*
Y7194500D01*
X12595000D01*
Y6624500D01*
X13265000D01*
Y5582500D01*
X12595000D01*
Y5012500D01*
X11815000D01*
Y7489000D02*
Y9671000D01*
X12595000D01*
Y9101000D01*
X13265000D01*
Y8059000D01*
X12595000D01*
Y7489000D01*
X11815000D01*
Y9965500D02*
Y12147500D01*
X12595000D01*
Y11577500D01*
X13265000D01*
Y10535500D01*
X12595000D01*
Y9965500D01*
X11815000D01*
Y12442000D02*
Y14624000D01*
X12595000D01*
Y14054000D01*
X13265000D01*
Y13012000D01*
X12595000D01*
Y12442000D01*
X11815000D01*
D02*
D13*
X3458000Y8350000D02*
Y9510000D01*
X4378000D01*
Y8350000D01*
X3458000D01*
X4648500Y10972000D02*
Y14316000D01*
X3448500D01*
Y10972000D01*
X4648500D01*
X4954500Y10040500D02*
G75*
G03*
X5339500I192500J0D01*
G01*
G75*
G03*
X5267649Y10190500I-192500J0D01*
G01*
X5026351D01*
G75*
G03*
X4954500Y10040500I120649J-150000D01*
G01*
X4997000D02*
G75*
G03*
X5297000I150000J0D01*
G01*
G75*
G03*
X4997000I-150000J0D01*
G01*
X5868500D02*
G75*
G03*
X5568500I-150000J0D01*
G01*
G75*
G03*
X5868500I150000J0D01*
G01*
X5911000D02*
G75*
G03*
X5526000I-192500J0D01*
G01*
G75*
G03*
X5597851Y9890500I192500J0D01*
G01*
X5839149D01*
G75*
G03*
X5911000Y10040500I-120649J150000D01*
G01*
X9405400Y6230500D02*
X9608600D01*
X9405400Y8707000D02*
X9608600D01*
X9405400Y11183500D02*
X9608600D01*
X9405400Y13660000D02*
X9608600D01*
X9507000Y5786000D02*
Y5874900D01*
Y6332100D02*
Y6421000D01*
Y8262500D02*
Y8351400D01*
Y8808600D02*
Y8897500D01*
Y10739000D02*
Y10827900D01*
Y11285100D02*
Y11374000D01*
Y13215500D02*
Y13304400D01*
Y13761600D02*
Y13850500D01*
X9608600Y5874900D02*
X9405400D01*
Y6332100D01*
X9608600D01*
Y5874900D01*
Y8351400D02*
X9405400D01*
Y8808600D01*
X9608600D01*
Y8351400D01*
Y10827900D02*
X9405400D01*
Y11285100D01*
X9608600D01*
Y10827900D01*
Y13304400D02*
X9405400D01*
Y13761600D01*
X9608600D01*
Y13304400D01*
X9776875Y7754500D02*
G75*
G02*
X9459375Y7437000I-317500J0D01*
G01*
G75*
G02*
X9141875Y7754500I0J317500D01*
G01*
Y7792600D01*
G75*
G02*
X9205375Y7945000I215713J-451D01*
G01*
X9713375D01*
G75*
G02*
X9776875Y7792600I-152213J-152851D01*
G01*
Y7754500D01*
X9824500Y5278000D02*
G75*
G02*
X9507000Y4960500I-317500J0D01*
G01*
G75*
G02*
X9189500Y5278000I0J317500D01*
G01*
Y5316100D01*
G75*
G02*
X9253000Y5468500I215713J-451D01*
G01*
X9761000D01*
G75*
G02*
X9824500Y5316100I-152213J-152851D01*
G01*
Y5278000D01*
X9840375Y10231000D02*
G75*
G02*
X9522875Y9913500I-317500J0D01*
G01*
G75*
G02*
X9205375Y10231000I0J317500D01*
G01*
Y10269100D01*
G75*
G02*
X9268875Y10421500I215713J-451D01*
G01*
X9776875D01*
G75*
G02*
X9840375Y10269100I-152213J-152851D01*
G01*
Y10231000D01*
Y12707500D02*
G75*
G02*
X9522875Y12390000I-317500J0D01*
G01*
G75*
G02*
X9205375Y12707500I0J317500D01*
G01*
Y12745600D01*
G75*
G02*
X9268875Y12898000I215713J-451D01*
G01*
X9776875D01*
G75*
G02*
X9840375Y12745600I-152213J-152851D01*
G01*
Y12707500D01*
D02*
D75*
X6861500Y9850000D02*
Y9405500D01*
X7115500Y9596000D02*
Y9850000D01*
X6861500D01*
X7369500Y9596000D02*
X7115500D01*
X7369500Y9850000D02*
Y9596000D01*
X7623500D02*
Y9850000D01*
X7369500D01*
X7877500Y9596000D02*
X7623500D01*
X7877500Y9850000D02*
Y9596000D01*
X8131500Y9850000D02*
Y9278500D01*
X8385500D02*
Y9850000D01*
X7877500D01*
D02*
D76*
X3623000Y7165382D02*
X3630647Y7150088D01*
X3645941Y7142441D01*
X3676529D01*
X3691824Y7150088D01*
X3699471Y7165382D01*
X3691824Y7180676D01*
X3676529Y7188324D01*
X3645941D01*
X3630647Y7195971D01*
X3623000Y7211265D01*
X3630647Y7226559D01*
X3645941Y7234206D01*
X3676529D01*
X3691824Y7226559D01*
X3699471Y7211265D01*
X3804771Y7157735D02*
X3797124Y7150088D01*
X3781829Y7142441D01*
X3758888D01*
X3743594Y7150088D01*
X3735947Y7157735D01*
X3728300Y7173029D01*
Y7203618D01*
X3735947Y7218912D01*
X3743594Y7226559D01*
X3758888Y7234206D01*
X3781829D01*
X3797124Y7226559D01*
X3804771Y7218912D01*
X3833600Y7142441D02*
X3833600Y7234206D01*
Y7188324D02*
X3910071Y7188324D01*
Y7142441D02*
X3910071Y7234206D01*
X3938900Y7142441D02*
X3977135Y7234206D01*
X4015371Y7142441D01*
X3954194Y7180676D02*
X4000076Y7180676D01*
X4044200Y7234206D02*
X4044200Y7142441D01*
X4120671D01*
X4187735D02*
X4187735Y7234206D01*
X4149500D02*
X4225971Y7234206D01*
X4254800Y7142441D02*
X4254800Y7234206D01*
X4331271D01*
X4315976Y7188324D02*
X4254800Y7188324D01*
Y7142441D02*
X4331271Y7142441D01*
X4360100D02*
X4360100Y7234206D01*
X4413629D01*
X4428924Y7226559D01*
X4436571Y7211265D01*
X4428924Y7195971D01*
X4413629Y7188324D01*
X4360100D01*
X4413629D02*
X4436571Y7142441D01*
X3754925Y9555441D02*
X3754925Y9647206D01*
X3800807D01*
X3816101Y9639559D01*
X3823749Y9631912D01*
X3831396Y9616618D01*
Y9586029D01*
X3823749Y9570735D01*
X3816101Y9563088D01*
X3800807Y9555441D01*
X3754925D01*
X3860225Y9578382D02*
X3867872Y9563088D01*
X3883166Y9555441D01*
X3913754D01*
X3929049Y9563088D01*
X3936696Y9578382D01*
X3929049Y9593676D01*
X3913754Y9601324D01*
X3883166D01*
X3867872Y9608971D01*
X3860225Y9624265D01*
X3867872Y9639559D01*
X3883166Y9647206D01*
X3913754D01*
X3929049Y9639559D01*
X3936696Y9624265D01*
X3980819Y9555441D02*
X4011407Y9555441D01*
X3996113D02*
X3996113Y9647206D01*
X3980819Y9631912D01*
X4076866Y9601324D02*
X4092160Y9601324D01*
X4107454Y9608971D01*
X4115101Y9624265D01*
X4107454Y9639559D01*
X4092160Y9647206D01*
X4076866D01*
X4061572Y9639559D01*
X4053925Y9624265D01*
X4061572Y9608971D01*
X4076866Y9601324D01*
X4061572Y9593676D01*
X4053925Y9578382D01*
X4061572Y9563088D01*
X4076866Y9555441D01*
X4092160D01*
X4107454Y9563088D01*
X4115101Y9578382D01*
X4107454Y9593676D01*
X4092160Y9601324D01*
X4131000Y4036382D02*
X4138647Y4021088D01*
X4153941Y4013441D01*
X4184529D01*
X4199824Y4021088D01*
X4207471Y4036382D01*
X4199824Y4051676D01*
X4184529Y4059324D01*
X4153941D01*
X4138647Y4066971D01*
X4131000Y4082265D01*
X4138647Y4097559D01*
X4153941Y4105206D01*
X4184529D01*
X4199824Y4097559D01*
X4207471Y4082265D01*
X4236300Y4013441D02*
X4236300Y4105206D01*
X4312771D01*
X4297476Y4059324D02*
X4236300Y4059324D01*
Y4013441D02*
X4312771Y4013441D01*
X4341600D02*
X4341600Y4105206D01*
X4418071Y4013441D01*
Y4105206D01*
X4446900Y4036382D02*
X4454547Y4021088D01*
X4469841Y4013441D01*
X4500429D01*
X4515724Y4021088D01*
X4523371Y4036382D01*
X4515724Y4051676D01*
X4500429Y4059324D01*
X4469841D01*
X4454547Y4066971D01*
X4446900Y4082265D01*
X4454547Y4097559D01*
X4469841Y4105206D01*
X4500429D01*
X4515724Y4097559D01*
X4523371Y4082265D01*
X4552200Y4044029D02*
X4552200Y4074618D01*
X4559847Y4089912D01*
X4567494Y4097559D01*
X4582788Y4105206D01*
X4598082D01*
X4613376Y4097559D01*
X4621024Y4089912D01*
X4628671Y4074618D01*
Y4044029D01*
X4621024Y4028735D01*
X4613376Y4021088D01*
X4598082Y4013441D01*
X4582788D01*
X4567494Y4021088D01*
X4559847Y4028735D01*
X4552200Y4044029D01*
X4657500Y4013441D02*
X4657500Y4105206D01*
X4711029D01*
X4726324Y4097559D01*
X4733971Y4082265D01*
X4726324Y4066971D01*
X4711029Y4059324D01*
X4657500D01*
X4711029D02*
X4733971Y4013441D01*
X4762800D02*
X4839271Y4013441D01*
X4891041Y4059324D02*
X4906335Y4059324D01*
X4921629Y4066971D01*
X4929276Y4082265D01*
X4921629Y4097559D01*
X4906335Y4105206D01*
X4891041D01*
X4875747Y4097559D01*
X4868100Y4082265D01*
X4875747Y4066971D01*
X4891041Y4059324D01*
X4875747Y4051676D01*
X4868100Y4036382D01*
X4875747Y4021088D01*
X4891041Y4013441D01*
X4906335D01*
X4921629Y4021088D01*
X4929276Y4036382D01*
X4921629Y4051676D01*
X4906335Y4059324D01*
X4105775Y14381441D02*
X4182246Y14473206D01*
X4105775D02*
X4182246Y14381441D01*
X4226369D02*
X4256957Y14381441D01*
X4241663D02*
X4241663Y14473206D01*
X4226369Y14457912D01*
X5147000Y4036382D02*
X5154647Y4021088D01*
X5169941Y4013441D01*
X5200529D01*
X5215824Y4021088D01*
X5223471Y4036382D01*
X5215824Y4051676D01*
X5200529Y4059324D01*
X5169941D01*
X5154647Y4066971D01*
X5147000Y4082265D01*
X5154647Y4097559D01*
X5169941Y4105206D01*
X5200529D01*
X5215824Y4097559D01*
X5223471Y4082265D01*
X5252300Y4013441D02*
X5252300Y4105206D01*
X5328771D01*
X5313476Y4059324D02*
X5252300Y4059324D01*
Y4013441D02*
X5328771Y4013441D01*
X5357600D02*
X5357600Y4105206D01*
X5434071Y4013441D01*
Y4105206D01*
X5462900Y4036382D02*
X5470547Y4021088D01*
X5485841Y4013441D01*
X5516429D01*
X5531724Y4021088D01*
X5539371Y4036382D01*
X5531724Y4051676D01*
X5516429Y4059324D01*
X5485841D01*
X5470547Y4066971D01*
X5462900Y4082265D01*
X5470547Y4097559D01*
X5485841Y4105206D01*
X5516429D01*
X5531724Y4097559D01*
X5539371Y4082265D01*
X5568200Y4044029D02*
X5568200Y4074618D01*
X5575847Y4089912D01*
X5583494Y4097559D01*
X5598788Y4105206D01*
X5614082D01*
X5629376Y4097559D01*
X5637024Y4089912D01*
X5644671Y4074618D01*
Y4044029D01*
X5637024Y4028735D01*
X5629376Y4021088D01*
X5614082Y4013441D01*
X5598788D01*
X5583494Y4021088D01*
X5575847Y4028735D01*
X5568200Y4044029D01*
X5673500Y4013441D02*
X5673500Y4105206D01*
X5727029D01*
X5742324Y4097559D01*
X5749971Y4082265D01*
X5742324Y4066971D01*
X5727029Y4059324D01*
X5673500D01*
X5727029D02*
X5749971Y4013441D01*
X5778800D02*
X5855271Y4013441D01*
X5884100D02*
X5945276Y4105206D01*
X5884100D01*
X4952975Y10409206D02*
X4952975Y10317441D01*
X5029446D01*
X5058275D02*
X5058275Y10409206D01*
X5134746D01*
X5119451Y10363324D02*
X5058275Y10363324D01*
Y10317441D02*
X5134746Y10317441D01*
X5163575D02*
X5163575Y10409206D01*
X5209457D01*
X5224751Y10401559D01*
X5232399Y10393912D01*
X5240046Y10378618D01*
Y10348029D01*
X5232399Y10332735D01*
X5224751Y10325088D01*
X5209457Y10317441D01*
X5163575D01*
X5284169D02*
X5314757Y10317441D01*
X5299463D02*
X5299463Y10409206D01*
X5284169Y10393912D01*
X5463375Y10317441D02*
X5463375Y10409206D01*
X5516904D01*
X5532199Y10401559D01*
X5539846Y10386265D01*
X5532199Y10370971D01*
X5516904Y10363324D01*
X5463375D01*
X5568675Y10348029D02*
X5568675Y10378618D01*
X5576322Y10393912D01*
X5583969Y10401559D01*
X5599263Y10409206D01*
X5614557D01*
X5629851Y10401559D01*
X5637499Y10393912D01*
X5645146Y10378618D01*
Y10348029D01*
X5637499Y10332735D01*
X5629851Y10325088D01*
X5614557Y10317441D01*
X5599263D01*
X5583969Y10325088D01*
X5576322Y10332735D01*
X5568675Y10348029D01*
X5673975Y10409206D02*
X5681622Y10317441D01*
X5712210Y10363324D01*
X5742799Y10317441D01*
X5750446Y10409206D01*
X5779275Y10317441D02*
X5779275Y10409206D01*
X5855746D01*
X5840451Y10363324D02*
X5779275Y10363324D01*
Y10317441D02*
X5855746Y10317441D01*
X5884575D02*
X5884575Y10409206D01*
X5938104D01*
X5953399Y10401559D01*
X5961046Y10386265D01*
X5953399Y10370971D01*
X5938104Y10363324D01*
X5884575D01*
X5938104D02*
X5961046Y10317441D01*
X6079559Y10812825D02*
X6079559Y10843413D01*
Y10828119D02*
X5987794Y10828119D01*
Y10812825D02*
X5987794Y10843413D01*
X6064265Y10945196D02*
X6071912Y10937549D01*
X6079559Y10922254D01*
Y10899313D01*
X6071912Y10884019D01*
X6064265Y10876372D01*
X6048971Y10868725D01*
X6018382D01*
X6003088Y10876372D01*
X5995441Y10884019D01*
X5987794Y10899313D01*
Y10922254D01*
X5995441Y10937549D01*
X6003088Y10945196D01*
X6079559Y10989319D02*
X6079559Y11019907D01*
Y11004613D02*
X5987794Y11004613D01*
X6003088Y10989319D01*
X6076559Y11235551D02*
X6076559Y11174375D01*
X6023029Y11227904D01*
X6007735Y11235551D01*
X5992441Y11227904D01*
X5984794Y11212610D01*
Y11189669D01*
X5992441Y11174375D01*
X6068912Y11270422D02*
X6076559Y11285716D01*
Y11301010D01*
X6068912Y11316304D01*
X6053618Y11323951D01*
X6038324Y11316304D01*
X6030676Y11301010D01*
Y11285716D01*
Y11301010D02*
X6023029Y11316304D01*
X6007735Y11323951D01*
X5992441Y11316304D01*
X5984794Y11301010D01*
Y11285716D01*
X5992441Y11270422D01*
X6068912Y11358822D02*
X6076559Y11374116D01*
Y11389410D01*
X6068912Y11404704D01*
X6053618Y11412351D01*
X6007735D01*
X5992441Y11404704D01*
X5984794Y11389410D01*
Y11374116D01*
X5992441Y11358822D01*
X6007735Y11351175D01*
X6053618D01*
X6068912Y11358822D01*
X5992441Y11404704D01*
X5984794Y11439575D02*
X6076559Y11477810D01*
X5984794Y11516046D01*
X6076559Y11544875D02*
X5984794Y11621346D01*
X6068912Y11650175D02*
X6076559Y11665469D01*
Y11688410D01*
X6068912Y11703704D01*
X6053618Y11711351D01*
X6045971D01*
X6030676Y11703704D01*
X6023029Y11688410D01*
Y11650175D01*
X5984794D01*
Y11711351D01*
Y11738575D02*
X6076559Y11776810D01*
X5984794Y11815046D01*
X6163000Y4036382D02*
X6170647Y4021088D01*
X6185941Y4013441D01*
X6216529D01*
X6231824Y4021088D01*
X6239471Y4036382D01*
X6231824Y4051676D01*
X6216529Y4059324D01*
X6185941D01*
X6170647Y4066971D01*
X6163000Y4082265D01*
X6170647Y4097559D01*
X6185941Y4105206D01*
X6216529D01*
X6231824Y4097559D01*
X6239471Y4082265D01*
X6268300Y4013441D02*
X6268300Y4105206D01*
X6344771D01*
X6329476Y4059324D02*
X6268300Y4059324D01*
Y4013441D02*
X6344771Y4013441D01*
X6373600D02*
X6373600Y4105206D01*
X6450071Y4013441D01*
Y4105206D01*
X6478900Y4036382D02*
X6486547Y4021088D01*
X6501841Y4013441D01*
X6532429D01*
X6547724Y4021088D01*
X6555371Y4036382D01*
X6547724Y4051676D01*
X6532429Y4059324D01*
X6501841D01*
X6486547Y4066971D01*
X6478900Y4082265D01*
X6486547Y4097559D01*
X6501841Y4105206D01*
X6532429D01*
X6547724Y4097559D01*
X6555371Y4082265D01*
X6584200Y4044029D02*
X6584200Y4074618D01*
X6591847Y4089912D01*
X6599494Y4097559D01*
X6614788Y4105206D01*
X6630082D01*
X6645376Y4097559D01*
X6653024Y4089912D01*
X6660671Y4074618D01*
Y4044029D01*
X6653024Y4028735D01*
X6645376Y4021088D01*
X6630082Y4013441D01*
X6614788D01*
X6599494Y4021088D01*
X6591847Y4028735D01*
X6584200Y4044029D01*
X6689500Y4013441D02*
X6689500Y4105206D01*
X6743029D01*
X6758324Y4097559D01*
X6765971Y4082265D01*
X6758324Y4066971D01*
X6743029Y4059324D01*
X6689500D01*
X6743029D02*
X6765971Y4013441D01*
X6794800D02*
X6871271Y4013441D01*
X6900100Y4036382D02*
X6907747Y4051676D01*
X6923041Y4059324D01*
X6938335D01*
X6953629Y4051676D01*
X6961276Y4036382D01*
X6953629Y4021088D01*
X6938335Y4013441D01*
X6923041D01*
X6907747Y4021088D01*
X6900100Y4036382D01*
Y4059324D01*
X6907747Y4082265D01*
X6923041Y4097559D01*
X6938335Y4105206D01*
X6074275Y13492441D02*
X6074275Y13584206D01*
X6150746D01*
X6135451Y13538324D02*
X6074275Y13538324D01*
X6240751Y13492441D02*
X6179575Y13492441D01*
X6233104Y13545971D01*
X6240751Y13561265D01*
X6233104Y13576559D01*
X6217810Y13584206D01*
X6194869D01*
X6179575Y13576559D01*
X6074275Y14508441D02*
X6074275Y14600206D01*
X6150746D01*
X6135451Y14554324D02*
X6074275Y14554324D01*
X6194869Y14508441D02*
X6225457Y14508441D01*
X6210163D02*
X6210163Y14600206D01*
X6194869Y14584912D01*
X6333559Y5478825D02*
X6333559Y5509413D01*
Y5494119D02*
X6241794Y5494119D01*
Y5478825D02*
X6241794Y5509413D01*
X6318265Y5611196D02*
X6325912Y5603549D01*
X6333559Y5588254D01*
Y5565313D01*
X6325912Y5550019D01*
X6318265Y5542372D01*
X6302971Y5534725D01*
X6272382D01*
X6257088Y5542372D01*
X6249441Y5550019D01*
X6241794Y5565313D01*
Y5588254D01*
X6249441Y5603549D01*
X6257088Y5611196D01*
X6310618Y5640025D02*
X6295324Y5647672D01*
X6287676Y5662966D01*
Y5678260D01*
X6295324Y5693554D01*
X6310618Y5701201D01*
X6325912Y5693554D01*
X6333559Y5678260D01*
Y5662966D01*
X6325912Y5647672D01*
X6310618Y5640025D01*
X6287676D01*
X6264735Y5647672D01*
X6249441Y5662966D01*
X6241794Y5678260D01*
X7179000Y4036382D02*
X7186647Y4021088D01*
X7201941Y4013441D01*
X7232529D01*
X7247824Y4021088D01*
X7255471Y4036382D01*
X7247824Y4051676D01*
X7232529Y4059324D01*
X7201941D01*
X7186647Y4066971D01*
X7179000Y4082265D01*
X7186647Y4097559D01*
X7201941Y4105206D01*
X7232529D01*
X7247824Y4097559D01*
X7255471Y4082265D01*
X7284300Y4013441D02*
X7284300Y4105206D01*
X7360771D01*
X7345476Y4059324D02*
X7284300Y4059324D01*
Y4013441D02*
X7360771Y4013441D01*
X7389600D02*
X7389600Y4105206D01*
X7466071Y4013441D01*
Y4105206D01*
X7494900Y4036382D02*
X7502547Y4021088D01*
X7517841Y4013441D01*
X7548429D01*
X7563724Y4021088D01*
X7571371Y4036382D01*
X7563724Y4051676D01*
X7548429Y4059324D01*
X7517841D01*
X7502547Y4066971D01*
X7494900Y4082265D01*
X7502547Y4097559D01*
X7517841Y4105206D01*
X7548429D01*
X7563724Y4097559D01*
X7571371Y4082265D01*
X7600200Y4044029D02*
X7600200Y4074618D01*
X7607847Y4089912D01*
X7615494Y4097559D01*
X7630788Y4105206D01*
X7646082D01*
X7661376Y4097559D01*
X7669024Y4089912D01*
X7676671Y4074618D01*
Y4044029D01*
X7669024Y4028735D01*
X7661376Y4021088D01*
X7646082Y4013441D01*
X7630788D01*
X7615494Y4021088D01*
X7607847Y4028735D01*
X7600200Y4044029D01*
X7705500Y4013441D02*
X7705500Y4105206D01*
X7759029D01*
X7774324Y4097559D01*
X7781971Y4082265D01*
X7774324Y4066971D01*
X7759029Y4059324D01*
X7705500D01*
X7759029D02*
X7781971Y4013441D01*
X7810800D02*
X7887271Y4013441D01*
X7916100Y4021088D02*
X7931394Y4013441D01*
X7954335D01*
X7969629Y4021088D01*
X7977276Y4036382D01*
Y4044029D01*
X7969629Y4059324D01*
X7954335Y4066971D01*
X7916100D01*
Y4105206D01*
X7977276D01*
X8195000Y4036382D02*
X8202647Y4021088D01*
X8217941Y4013441D01*
X8248529D01*
X8263824Y4021088D01*
X8271471Y4036382D01*
X8263824Y4051676D01*
X8248529Y4059324D01*
X8217941D01*
X8202647Y4066971D01*
X8195000Y4082265D01*
X8202647Y4097559D01*
X8217941Y4105206D01*
X8248529D01*
X8263824Y4097559D01*
X8271471Y4082265D01*
X8300300Y4013441D02*
X8300300Y4105206D01*
X8376771D01*
X8361476Y4059324D02*
X8300300Y4059324D01*
Y4013441D02*
X8376771Y4013441D01*
X8405600D02*
X8405600Y4105206D01*
X8482071Y4013441D01*
Y4105206D01*
X8510900Y4036382D02*
X8518547Y4021088D01*
X8533841Y4013441D01*
X8564429D01*
X8579724Y4021088D01*
X8587371Y4036382D01*
X8579724Y4051676D01*
X8564429Y4059324D01*
X8533841D01*
X8518547Y4066971D01*
X8510900Y4082265D01*
X8518547Y4097559D01*
X8533841Y4105206D01*
X8564429D01*
X8579724Y4097559D01*
X8587371Y4082265D01*
X8616200Y4044029D02*
X8616200Y4074618D01*
X8623847Y4089912D01*
X8631494Y4097559D01*
X8646788Y4105206D01*
X8662082D01*
X8677376Y4097559D01*
X8685024Y4089912D01*
X8692671Y4074618D01*
Y4044029D01*
X8685024Y4028735D01*
X8677376Y4021088D01*
X8662082Y4013441D01*
X8646788D01*
X8631494Y4021088D01*
X8623847Y4028735D01*
X8616200Y4044029D01*
X8721500Y4013441D02*
X8721500Y4105206D01*
X8775029D01*
X8790324Y4097559D01*
X8797971Y4082265D01*
X8790324Y4066971D01*
X8775029Y4059324D01*
X8721500D01*
X8775029D02*
X8797971Y4013441D01*
X8826800D02*
X8903271Y4013441D01*
X8970335D02*
X8970335Y4105206D01*
X8932100Y4044029D01*
X8993276D01*
X9211000Y4036382D02*
X9218647Y4021088D01*
X9233941Y4013441D01*
X9264529D01*
X9279824Y4021088D01*
X9287471Y4036382D01*
X9279824Y4051676D01*
X9264529Y4059324D01*
X9233941D01*
X9218647Y4066971D01*
X9211000Y4082265D01*
X9218647Y4097559D01*
X9233941Y4105206D01*
X9264529D01*
X9279824Y4097559D01*
X9287471Y4082265D01*
X9316300Y4013441D02*
X9316300Y4105206D01*
X9392771D01*
X9377476Y4059324D02*
X9316300Y4059324D01*
Y4013441D02*
X9392771Y4013441D01*
X9421600D02*
X9421600Y4105206D01*
X9498071Y4013441D01*
Y4105206D01*
X9526900Y4036382D02*
X9534547Y4021088D01*
X9549841Y4013441D01*
X9580429D01*
X9595724Y4021088D01*
X9603371Y4036382D01*
X9595724Y4051676D01*
X9580429Y4059324D01*
X9549841D01*
X9534547Y4066971D01*
X9526900Y4082265D01*
X9534547Y4097559D01*
X9549841Y4105206D01*
X9580429D01*
X9595724Y4097559D01*
X9603371Y4082265D01*
X9632200Y4044029D02*
X9632200Y4074618D01*
X9639847Y4089912D01*
X9647494Y4097559D01*
X9662788Y4105206D01*
X9678082D01*
X9693376Y4097559D01*
X9701024Y4089912D01*
X9708671Y4074618D01*
Y4044029D01*
X9701024Y4028735D01*
X9693376Y4021088D01*
X9678082Y4013441D01*
X9662788D01*
X9647494Y4021088D01*
X9639847Y4028735D01*
X9632200Y4044029D01*
X9737500Y4013441D02*
X9737500Y4105206D01*
X9791029D01*
X9806324Y4097559D01*
X9813971Y4082265D01*
X9806324Y4066971D01*
X9791029Y4059324D01*
X9737500D01*
X9791029D02*
X9813971Y4013441D01*
X9842800D02*
X9919271Y4013441D01*
X9955747Y4021088D02*
X9971041Y4013441D01*
X9986335D01*
X10001629Y4021088D01*
X10009276Y4036382D01*
X10001629Y4051676D01*
X9986335Y4059324D01*
X9971041D01*
X9986335D02*
X10001629Y4066971D01*
X10009276Y4082265D01*
X10001629Y4097559D01*
X9986335Y4105206D01*
X9971041D01*
X9955747Y4097559D01*
X9224010Y7332941D02*
X9224010Y7424706D01*
X9185775D02*
X9262246Y7424706D01*
X9352251Y7332941D02*
X9291075Y7332941D01*
X9344604Y7386471D01*
X9352251Y7401765D01*
X9344604Y7417059D01*
X9329310Y7424706D01*
X9306369D01*
X9291075Y7417059D01*
X9357059Y6014775D02*
X9265294Y6014775D01*
Y6060657D01*
X9272941Y6075951D01*
X9280588Y6083599D01*
X9295882Y6091246D01*
X9326471D01*
X9341765Y6083599D01*
X9349412Y6075951D01*
X9357059Y6060657D01*
Y6014775D01*
Y6135369D02*
X9357059Y6165957D01*
Y6150663D02*
X9265294Y6150663D01*
X9280588Y6135369D01*
X9357059Y8808775D02*
X9265294Y8808775D01*
Y8854657D01*
X9272941Y8869951D01*
X9280588Y8877599D01*
X9295882Y8885246D01*
X9326471D01*
X9341765Y8877599D01*
X9349412Y8869951D01*
X9357059Y8854657D01*
Y8808775D01*
Y8975251D02*
X9357059Y8914075D01*
X9303529Y8967604D01*
X9288235Y8975251D01*
X9272941Y8967604D01*
X9265294Y8952310D01*
Y8929369D01*
X9272941Y8914075D01*
X9357059Y10967775D02*
X9265294Y10967775D01*
Y11013657D01*
X9272941Y11028951D01*
X9280588Y11036599D01*
X9295882Y11044246D01*
X9326471D01*
X9341765Y11036599D01*
X9349412Y11028951D01*
X9357059Y11013657D01*
Y10967775D01*
X9349412Y11080722D02*
X9357059Y11096016D01*
Y11111310D01*
X9349412Y11126604D01*
X9334118Y11134251D01*
X9318824Y11126604D01*
X9311176Y11111310D01*
Y11096016D01*
Y11111310D02*
X9303529Y11126604D01*
X9288235Y11134251D01*
X9272941Y11126604D01*
X9265294Y11111310D01*
Y11096016D01*
X9272941Y11080722D01*
X9357059Y13444275D02*
X9265294Y13444275D01*
Y13490157D01*
X9272941Y13505451D01*
X9280588Y13513099D01*
X9295882Y13520746D01*
X9326471D01*
X9341765Y13513099D01*
X9349412Y13505451D01*
X9357059Y13490157D01*
Y13444275D01*
Y13587810D02*
X9265294Y13587810D01*
X9326471Y13549575D01*
Y13610751D01*
X9478010Y9745941D02*
X9478010Y9837706D01*
X9439775D02*
X9516246Y9837706D01*
X9552722Y9753588D02*
X9568016Y9745941D01*
X9583310D01*
X9598604Y9753588D01*
X9606251Y9768882D01*
X9598604Y9784176D01*
X9583310Y9791824D01*
X9568016D01*
X9583310D02*
X9598604Y9799471D01*
X9606251Y9814765D01*
X9598604Y9830059D01*
X9583310Y9837706D01*
X9568016D01*
X9552722Y9830059D01*
X9795510Y4919941D02*
X9795510Y5011706D01*
X9757275D02*
X9833746Y5011706D01*
X9877869Y4919941D02*
X9908457Y4919941D01*
X9893163D02*
X9893163Y5011706D01*
X9877869Y4996412D01*
X9795510Y12349441D02*
X9795510Y12441206D01*
X9757275D02*
X9833746Y12441206D01*
X9900810Y12349441D02*
X9900810Y12441206D01*
X9862575Y12380029D01*
X9923751D01*
X10227000Y4036382D02*
X10234647Y4021088D01*
X10249941Y4013441D01*
X10280529D01*
X10295824Y4021088D01*
X10303471Y4036382D01*
X10295824Y4051676D01*
X10280529Y4059324D01*
X10249941D01*
X10234647Y4066971D01*
X10227000Y4082265D01*
X10234647Y4097559D01*
X10249941Y4105206D01*
X10280529D01*
X10295824Y4097559D01*
X10303471Y4082265D01*
X10332300Y4013441D02*
X10332300Y4105206D01*
X10408771D01*
X10393476Y4059324D02*
X10332300Y4059324D01*
Y4013441D02*
X10408771Y4013441D01*
X10437600D02*
X10437600Y4105206D01*
X10514071Y4013441D01*
Y4105206D01*
X10542900Y4036382D02*
X10550547Y4021088D01*
X10565841Y4013441D01*
X10596429D01*
X10611724Y4021088D01*
X10619371Y4036382D01*
X10611724Y4051676D01*
X10596429Y4059324D01*
X10565841D01*
X10550547Y4066971D01*
X10542900Y4082265D01*
X10550547Y4097559D01*
X10565841Y4105206D01*
X10596429D01*
X10611724Y4097559D01*
X10619371Y4082265D01*
X10648200Y4044029D02*
X10648200Y4074618D01*
X10655847Y4089912D01*
X10663494Y4097559D01*
X10678788Y4105206D01*
X10694082D01*
X10709376Y4097559D01*
X10717024Y4089912D01*
X10724671Y4074618D01*
Y4044029D01*
X10717024Y4028735D01*
X10709376Y4021088D01*
X10694082Y4013441D01*
X10678788D01*
X10663494Y4021088D01*
X10655847Y4028735D01*
X10648200Y4044029D01*
X10753500Y4013441D02*
X10753500Y4105206D01*
X10807029D01*
X10822324Y4097559D01*
X10829971Y4082265D01*
X10822324Y4066971D01*
X10807029Y4059324D01*
X10753500D01*
X10807029D02*
X10829971Y4013441D01*
X10858800D02*
X10935271Y4013441D01*
X11025276D02*
X10964100Y4013441D01*
X11017629Y4066971D01*
X11025276Y4082265D01*
X11017629Y4097559D01*
X11002335Y4105206D01*
X10979394D01*
X10964100Y4097559D01*
X10582775Y6676441D02*
X10582775Y6768206D01*
Y6722324D02*
X10605716Y6722324D01*
X10659246Y6768206D01*
X10605716Y6722324D02*
X10659246Y6676441D01*
X10703369D02*
X10733957Y6676441D01*
X10718663D02*
X10718663Y6768206D01*
X10703369Y6752912D01*
X10582775Y9152941D02*
X10582775Y9244706D01*
Y9198824D02*
X10605716Y9198824D01*
X10659246Y9244706D01*
X10605716Y9198824D02*
X10659246Y9152941D01*
X10749251D02*
X10688075Y9152941D01*
X10741604Y9206471D01*
X10749251Y9221765D01*
X10741604Y9237059D01*
X10726310Y9244706D01*
X10703369D01*
X10688075Y9237059D01*
X10582775Y11629441D02*
X10582775Y11721206D01*
Y11675324D02*
X10605716Y11675324D01*
X10659246Y11721206D01*
X10605716Y11675324D02*
X10659246Y11629441D01*
X10695722Y11637088D02*
X10711016Y11629441D01*
X10726310D01*
X10741604Y11637088D01*
X10749251Y11652382D01*
X10741604Y11667676D01*
X10726310Y11675324D01*
X10711016D01*
X10726310D02*
X10741604Y11682971D01*
X10749251Y11698265D01*
X10741604Y11713559D01*
X10726310Y11721206D01*
X10711016D01*
X10695722Y11713559D01*
X10582775Y14105941D02*
X10582775Y14197706D01*
Y14151824D02*
X10605716Y14151824D01*
X10659246Y14197706D01*
X10605716Y14151824D02*
X10659246Y14105941D01*
X10726310D02*
X10726310Y14197706D01*
X10688075Y14136529D01*
X10749251D01*
X11243000Y4036382D02*
X11250647Y4021088D01*
X11265941Y4013441D01*
X11296529D01*
X11311824Y4021088D01*
X11319471Y4036382D01*
X11311824Y4051676D01*
X11296529Y4059324D01*
X11265941D01*
X11250647Y4066971D01*
X11243000Y4082265D01*
X11250647Y4097559D01*
X11265941Y4105206D01*
X11296529D01*
X11311824Y4097559D01*
X11319471Y4082265D01*
X11348300Y4013441D02*
X11348300Y4105206D01*
X11424771D01*
X11409476Y4059324D02*
X11348300Y4059324D01*
Y4013441D02*
X11424771Y4013441D01*
X11453600D02*
X11453600Y4105206D01*
X11530071Y4013441D01*
Y4105206D01*
X11558900Y4036382D02*
X11566547Y4021088D01*
X11581841Y4013441D01*
X11612429D01*
X11627724Y4021088D01*
X11635371Y4036382D01*
X11627724Y4051676D01*
X11612429Y4059324D01*
X11581841D01*
X11566547Y4066971D01*
X11558900Y4082265D01*
X11566547Y4097559D01*
X11581841Y4105206D01*
X11612429D01*
X11627724Y4097559D01*
X11635371Y4082265D01*
X11664200Y4044029D02*
X11664200Y4074618D01*
X11671847Y4089912D01*
X11679494Y4097559D01*
X11694788Y4105206D01*
X11710082D01*
X11725376Y4097559D01*
X11733024Y4089912D01*
X11740671Y4074618D01*
Y4044029D01*
X11733024Y4028735D01*
X11725376Y4021088D01*
X11710082Y4013441D01*
X11694788D01*
X11679494Y4021088D01*
X11671847Y4028735D01*
X11664200Y4044029D01*
X11769500Y4013441D02*
X11769500Y4105206D01*
X11823029D01*
X11838324Y4097559D01*
X11845971Y4082265D01*
X11838324Y4066971D01*
X11823029Y4059324D01*
X11769500D01*
X11823029D02*
X11845971Y4013441D01*
X11874800D02*
X11951271Y4013441D01*
X11995394D02*
X12025982Y4013441D01*
X12010688D02*
X12010688Y4105206D01*
X11995394Y4089912D01*
X11728059Y6740800D02*
X11636294Y6740800D01*
Y6794329D01*
X11643941Y6809624D01*
X11659235Y6817271D01*
X11674529Y6809624D01*
X11682176Y6794329D01*
Y6740800D01*
X11636294Y6846100D02*
X11705118Y6846100D01*
X11720412Y6853747D01*
X11728059Y6869041D01*
Y6899629D01*
X11720412Y6914924D01*
X11705118Y6922571D01*
X11636294D01*
X11728059Y6951400D02*
X11636294Y6951400D01*
X11682176Y6989635D01*
X11636294Y7027871D01*
X11728059D01*
Y7056700D02*
X11636294Y7056700D01*
Y7110229D01*
X11643941Y7125524D01*
X11659235Y7133171D01*
X11674529Y7125524D01*
X11682176Y7110229D01*
Y7056700D01*
X11728059Y7162000D02*
X11636294Y7162000D01*
Y7238471D01*
X11682176Y7223176D02*
X11682176Y7162000D01*
X11728059D02*
X11728059Y7238471D01*
Y7282594D02*
X11728059Y7313182D01*
Y7297888D02*
X11636294Y7297888D01*
X11651588Y7282594D01*
X11728059Y9217300D02*
X11636294Y9217300D01*
Y9270829D01*
X11643941Y9286124D01*
X11659235Y9293771D01*
X11674529Y9286124D01*
X11682176Y9270829D01*
Y9217300D01*
X11636294Y9322600D02*
X11705118Y9322600D01*
X11720412Y9330247D01*
X11728059Y9345541D01*
Y9376129D01*
X11720412Y9391424D01*
X11705118Y9399071D01*
X11636294D01*
X11728059Y9427900D02*
X11636294Y9427900D01*
X11682176Y9466135D01*
X11636294Y9504371D01*
X11728059D01*
Y9533200D02*
X11636294Y9533200D01*
Y9586729D01*
X11643941Y9602024D01*
X11659235Y9609671D01*
X11674529Y9602024D01*
X11682176Y9586729D01*
Y9533200D01*
X11728059Y9638500D02*
X11636294Y9638500D01*
Y9714971D01*
X11682176Y9699676D02*
X11682176Y9638500D01*
X11728059D02*
X11728059Y9714971D01*
Y9804976D02*
X11728059Y9743800D01*
X11674529Y9797329D01*
X11659235Y9804976D01*
X11643941Y9797329D01*
X11636294Y9782035D01*
Y9759094D01*
X11643941Y9743800D01*
X11728059Y11693800D02*
X11636294Y11693800D01*
Y11747329D01*
X11643941Y11762624D01*
X11659235Y11770271D01*
X11674529Y11762624D01*
X11682176Y11747329D01*
Y11693800D01*
X11636294Y11799100D02*
X11705118Y11799100D01*
X11720412Y11806747D01*
X11728059Y11822041D01*
Y11852629D01*
X11720412Y11867924D01*
X11705118Y11875571D01*
X11636294D01*
X11728059Y11904400D02*
X11636294Y11904400D01*
X11682176Y11942635D01*
X11636294Y11980871D01*
X11728059D01*
Y12009700D02*
X11636294Y12009700D01*
Y12063229D01*
X11643941Y12078524D01*
X11659235Y12086171D01*
X11674529Y12078524D01*
X11682176Y12063229D01*
Y12009700D01*
X11728059Y12115000D02*
X11636294Y12115000D01*
Y12191471D01*
X11682176Y12176176D02*
X11682176Y12115000D01*
X11728059D02*
X11728059Y12191471D01*
X11720412Y12227947D02*
X11728059Y12243241D01*
Y12258535D01*
X11720412Y12273829D01*
X11705118Y12281476D01*
X11689824Y12273829D01*
X11682176Y12258535D01*
Y12243241D01*
Y12258535D02*
X11674529Y12273829D01*
X11659235Y12281476D01*
X11643941Y12273829D01*
X11636294Y12258535D01*
Y12243241D01*
X11643941Y12227947D01*
X11728059Y14170300D02*
X11636294Y14170300D01*
Y14223829D01*
X11643941Y14239124D01*
X11659235Y14246771D01*
X11674529Y14239124D01*
X11682176Y14223829D01*
Y14170300D01*
X11636294Y14275600D02*
X11705118Y14275600D01*
X11720412Y14283247D01*
X11728059Y14298541D01*
Y14329129D01*
X11720412Y14344424D01*
X11705118Y14352071D01*
X11636294D01*
X11728059Y14380900D02*
X11636294Y14380900D01*
X11682176Y14419135D01*
X11636294Y14457371D01*
X11728059D01*
Y14486200D02*
X11636294Y14486200D01*
Y14539729D01*
X11643941Y14555024D01*
X11659235Y14562671D01*
X11674529Y14555024D01*
X11682176Y14539729D01*
Y14486200D01*
X11728059Y14591500D02*
X11636294Y14591500D01*
Y14667971D01*
X11682176Y14652676D02*
X11682176Y14591500D01*
X11728059D02*
X11728059Y14667971D01*
Y14735035D02*
X11636294Y14735035D01*
X11697471Y14696800D01*
Y14757976D01*
D02*
D113*
X3750000Y6359912D02*
X3750000Y6277559D01*
X3761765Y6265794D01*
X3785294D01*
X3797059Y6277559D01*
Y6312853D01*
Y6277559D02*
X3808824Y6265794D01*
X3832353D01*
X3844118Y6277559D01*
Y6359912D01*
X3886000D02*
X3886000Y6277559D01*
X3897765Y6265794D01*
X3921294D01*
X3933059Y6277559D01*
Y6312853D01*
Y6277559D02*
X3944824Y6265794D01*
X3968353D01*
X3980118Y6277559D01*
Y6359912D01*
X4022000D02*
X4022000Y6277559D01*
X4033765Y6265794D01*
X4057294D01*
X4069059Y6277559D01*
Y6312853D01*
Y6277559D02*
X4080824Y6265794D01*
X4104353D01*
X4116118Y6277559D01*
Y6359912D01*
X4169765Y6265794D02*
X4181529Y6277559D01*
X4169765Y6289324D01*
X4158000Y6277559D01*
X4169765Y6265794D01*
X4314118Y6277559D02*
X4302353Y6265794D01*
X4278824D01*
X4255294D01*
X4231765Y6277559D01*
X4220000Y6301088D01*
Y6336382D01*
X4231765Y6348147D01*
X4255294Y6359912D01*
X4278824D01*
X4302353Y6348147D01*
X4314118Y6336382D01*
Y6324618D01*
X4302353Y6312853D01*
X4278824Y6301088D01*
X4255294D01*
X4231765Y6312853D01*
X4220000Y6324618D01*
X4356000Y6265794D02*
X4356000Y6406971D01*
Y6336382D02*
X4473647Y6336382D01*
Y6265794D02*
X4473647Y6406971D01*
X4518000Y6348147D02*
X4541529Y6359912D01*
X4576824D01*
X4600353Y6348147D01*
X4612118Y6324618D01*
Y6289324D01*
X4600353Y6277559D01*
X4576824Y6265794D01*
X4553294D01*
X4529765Y6277559D01*
X4518000Y6289324D01*
Y6301088D01*
X4529765Y6312853D01*
X4553294Y6324618D01*
X4576824D01*
X4600353Y6312853D01*
X4612118Y6301088D01*
Y6289324D02*
X4612118Y6265794D01*
X4654000Y6289324D02*
X4665765Y6277559D01*
X4689294Y6265794D01*
X4712824Y6277559D01*
X4724588Y6289324D01*
Y6406971D01*
X4748118D01*
X4724588D02*
X4677529Y6406971D01*
X4790000Y6301088D02*
X4801765Y6277559D01*
X4825294Y6265794D01*
X4848824D01*
X4872353Y6277559D01*
X4884118Y6301088D01*
Y6324618D01*
X4872353Y6348147D01*
X4848824Y6359912D01*
X4825294D01*
X4801765Y6348147D01*
X4790000Y6324618D01*
Y6301088D01*
X4937765Y6265794D02*
X4949529Y6277559D01*
X4937765Y6289324D01*
X4926000Y6277559D01*
X4937765Y6265794D01*
X5082118Y6324618D02*
X5070353Y6348147D01*
X5046824Y6359912D01*
X5023294D01*
X4999765Y6348147D01*
X4988000Y6324618D01*
Y6301088D01*
X4999765Y6277559D01*
X5023294Y6265794D01*
X5046824D01*
X5070353Y6277559D01*
X5082118Y6301088D01*
Y6265794D02*
X5082118Y6406971D01*
X5218118Y6277559D02*
X5206353Y6265794D01*
X5182824D01*
X5159294D01*
X5135765Y6277559D01*
X5124000Y6301088D01*
Y6336382D01*
X5135765Y6348147D01*
X5159294Y6359912D01*
X5182824D01*
X5206353Y6348147D01*
X5218118Y6336382D01*
Y6324618D01*
X5206353Y6312853D01*
X5182824Y6301088D01*
X5159294D01*
X5135765Y6312853D01*
X5124000Y6324618D01*
X3750000Y6519794D02*
X3750000Y6660971D01*
Y6590382D02*
X3867647Y6590382D01*
Y6519794D02*
X3867647Y6660971D01*
X4006118Y6531559D02*
X3994353Y6519794D01*
X3970824D01*
X3947294D01*
X3923765Y6531559D01*
X3912000Y6555088D01*
Y6590382D01*
X3923765Y6602147D01*
X3947294Y6613912D01*
X3970824D01*
X3994353Y6602147D01*
X4006118Y6590382D01*
Y6578618D01*
X3994353Y6566853D01*
X3970824Y6555088D01*
X3947294D01*
X3923765Y6566853D01*
X3912000Y6578618D01*
X4048000Y6519794D02*
X4048000Y6613912D01*
Y6649206D02*
X4048001Y6649207D01*
X4134000Y6613912D02*
X4228118Y6613912D01*
X4134000Y6519794D01*
X4228118D01*
X4270000Y6613912D02*
X4270000Y6555088D01*
X4281765Y6531559D01*
X4305294Y6519794D01*
X4328824D01*
X4352353Y6531559D01*
X4364118Y6555088D01*
Y6613912D02*
X4364118Y6519794D01*
X4406000D02*
X4406000Y6613912D01*
Y6578618D02*
X4417765Y6602147D01*
X4441294Y6613912D01*
X4464824D01*
X4488353Y6602147D01*
X4500118Y6578618D01*
Y6519794D01*
X4636118Y6578618D02*
X4624353Y6602147D01*
X4600824Y6613912D01*
X4577294D01*
X4553765Y6602147D01*
X4542000Y6578618D01*
Y6566853D01*
X4553765Y6543324D01*
X4577294Y6531559D01*
X4600824D01*
X4624353Y6543324D01*
X4636118Y6566853D01*
Y6613912D02*
X4636118Y6519794D01*
X4624353Y6496265D01*
X4600824Y6484500D01*
X4565529D01*
X4542000Y6496265D01*
X4678000Y6531559D02*
X4701529Y6519794D01*
X4748588D01*
X4772118Y6531559D01*
Y6555088D01*
X4748588Y6566853D01*
X4701529D01*
X4678000Y6578618D01*
Y6602147D01*
X4701529Y6613912D01*
X4748588D01*
X4772118Y6602147D01*
X4814000Y6531559D02*
X4837529Y6519794D01*
X4884588D01*
X4908118Y6531559D01*
Y6555088D01*
X4884588Y6566853D01*
X4837529D01*
X4814000Y6578618D01*
Y6602147D01*
X4837529Y6613912D01*
X4884588D01*
X4908118Y6602147D01*
X4950000Y6613912D02*
X4997059Y6613912D01*
X4973529Y6637441D02*
X4973529Y6531559D01*
X4985294Y6519794D01*
X4997059D01*
X5008824Y6531559D01*
X5144118D02*
X5132353Y6519794D01*
X5108824D01*
X5085294D01*
X5061765Y6531559D01*
X5050000Y6555088D01*
Y6590382D01*
X5061765Y6602147D01*
X5085294Y6613912D01*
X5108824D01*
X5132353Y6602147D01*
X5144118Y6590382D01*
Y6578618D01*
X5132353Y6566853D01*
X5108824Y6555088D01*
X5085294D01*
X5061765Y6566853D01*
X5050000Y6578618D01*
X5186000Y6613912D02*
X5186000Y6555088D01*
X5197765Y6531559D01*
X5221294Y6519794D01*
X5244824D01*
X5268353Y6531559D01*
X5280118Y6555088D01*
Y6613912D02*
X5280118Y6519794D01*
X5416118Y6531559D02*
X5404353Y6519794D01*
X5380824D01*
X5357294D01*
X5333765Y6531559D01*
X5322000Y6555088D01*
Y6590382D01*
X5333765Y6602147D01*
X5357294Y6613912D01*
X5380824D01*
X5404353Y6602147D01*
X5416118Y6590382D01*
Y6578618D01*
X5404353Y6566853D01*
X5380824Y6555088D01*
X5357294D01*
X5333765Y6566853D01*
X5322000Y6578618D01*
X5458000Y6519794D02*
X5458000Y6613912D01*
Y6578618D02*
X5469765Y6602147D01*
X5493294Y6613912D01*
X5516824D01*
X5540353Y6602147D01*
X5582000Y6613912D02*
X5582000Y6555088D01*
X5593765Y6531559D01*
X5617294Y6519794D01*
X5640824D01*
X5664353Y6531559D01*
X5676118Y6555088D01*
Y6613912D02*
X5676118Y6519794D01*
X5718000D02*
X5718000Y6613912D01*
Y6578618D02*
X5729765Y6602147D01*
X5753294Y6613912D01*
X5776824D01*
X5800353Y6602147D01*
X5812118Y6578618D01*
Y6519794D01*
X5948118Y6578618D02*
X5936353Y6602147D01*
X5912824Y6613912D01*
X5889294D01*
X5865765Y6602147D01*
X5854000Y6578618D01*
Y6566853D01*
X5865765Y6543324D01*
X5889294Y6531559D01*
X5912824D01*
X5936353Y6543324D01*
X5948118Y6566853D01*
Y6613912D02*
X5948118Y6519794D01*
X5936353Y6496265D01*
X5912824Y6484500D01*
X5877529D01*
X5854000Y6496265D01*
X4460265Y8527059D02*
X4483794Y8515294D01*
X4507324D01*
X4530853Y8527059D01*
X4542618Y8550588D01*
X4530853Y8574118D01*
X4507324Y8585882D01*
X4483794D01*
X4507324D02*
X4530853Y8597647D01*
X4542618Y8621176D01*
X4530853Y8644706D01*
X4507324Y8656471D01*
X4483794D01*
X4460265Y8644706D01*
X4584500Y8656471D02*
X4643324Y8515294D01*
X4702147Y8656471D01*
X4758265Y8527059D02*
X4781794Y8515294D01*
X4805324D01*
X4828853Y8527059D01*
X4840618Y8550588D01*
X4828853Y8574118D01*
X4805324Y8585882D01*
X4781794D01*
X4805324D02*
X4828853Y8597647D01*
X4840618Y8621176D01*
X4828853Y8644706D01*
X4805324Y8656471D01*
X4781794D01*
X4758265Y8644706D01*
X4448500Y8899838D02*
X4460265Y8876309D01*
X4483794Y8864544D01*
X4530853D01*
X4554382Y8876309D01*
X4566147Y8899838D01*
X4554382Y8923368D01*
X4530853Y8935132D01*
X4483794D01*
X4460265Y8946897D01*
X4448500Y8970426D01*
X4460265Y8993956D01*
X4483794Y9005721D01*
X4530853D01*
X4554382Y8993956D01*
X4566147Y8970426D01*
X4704618Y8876309D02*
X4692853Y8864544D01*
X4669324D01*
X4645794D01*
X4622265Y8876309D01*
X4610500Y8899838D01*
Y8935132D01*
X4622265Y8946897D01*
X4645794Y8958662D01*
X4669324D01*
X4692853Y8946897D01*
X4704618Y8935132D01*
Y8923368D01*
X4692853Y8911603D01*
X4669324Y8899838D01*
X4645794D01*
X4622265Y8911603D01*
X4610500Y8923368D01*
X4746500Y8864544D02*
X4746500Y8958662D01*
Y8923368D02*
X4758265Y8946897D01*
X4781794Y8958662D01*
X4805324D01*
X4828853Y8946897D01*
X4840618Y8923368D01*
Y8864544D01*
X4882500Y8876309D02*
X4906029Y8864544D01*
X4953088D01*
X4976618Y8876309D01*
Y8899838D01*
X4953088Y8911603D01*
X4906029D01*
X4882500Y8923368D01*
Y8946897D01*
X4906029Y8958662D01*
X4953088D01*
X4976618Y8946897D01*
X5018500Y8899838D02*
X5030265Y8876309D01*
X5053794Y8864544D01*
X5077324D01*
X5100853Y8876309D01*
X5112618Y8899838D01*
Y8923368D01*
X5100853Y8946897D01*
X5077324Y8958662D01*
X5053794D01*
X5030265Y8946897D01*
X5018500Y8923368D01*
Y8899838D01*
X5154500Y8864544D02*
X5154500Y8958662D01*
Y8923368D02*
X5166265Y8946897D01*
X5189794Y8958662D01*
X5213324D01*
X5236853Y8946897D01*
X4530853Y9272618D02*
X4566147Y9272618D01*
Y9260853D01*
X4554382Y9237324D01*
X4542618Y9225559D01*
X4519088Y9213794D01*
X4495559D01*
X4472029Y9225559D01*
X4460265Y9237324D01*
X4448500Y9260853D01*
Y9307912D01*
X4460265Y9331441D01*
X4472029Y9343206D01*
X4495559Y9354971D01*
X4519088D01*
X4542618Y9343206D01*
X4554382Y9331441D01*
X4566147Y9307912D01*
X4610500Y9213794D02*
X4610500Y9354971D01*
X4728147Y9213794D01*
Y9354971D01*
X4772500Y9213794D02*
X4772500Y9354971D01*
X4843088D01*
X4866618Y9343206D01*
X4878382Y9331441D01*
X4890147Y9307912D01*
Y9260853D01*
X4878382Y9237324D01*
X4866618Y9225559D01*
X4843088Y9213794D01*
X4772500D01*
X4594353Y7494618D02*
X4629647Y7494618D01*
Y7482853D01*
X4617882Y7459324D01*
X4606118Y7447559D01*
X4582588Y7435794D01*
X4559059D01*
X4535529Y7447559D01*
X4523765Y7459324D01*
X4512000Y7482853D01*
Y7529912D01*
X4523765Y7553441D01*
X4535529Y7565206D01*
X4559059Y7576971D01*
X4582588D01*
X4606118Y7565206D01*
X4617882Y7553441D01*
X4629647Y7529912D01*
X4674000Y7435794D02*
X4674000Y7576971D01*
X4791647Y7435794D01*
Y7576971D01*
X4836000Y7435794D02*
X4836000Y7576971D01*
X4906588D01*
X4930118Y7565206D01*
X4941882Y7553441D01*
X4953647Y7529912D01*
Y7482853D01*
X4941882Y7459324D01*
X4930118Y7447559D01*
X4906588Y7435794D01*
X4836000D01*
X4512000Y7725088D02*
X4523765Y7701559D01*
X4547294Y7689794D01*
X4594353D01*
X4617882Y7701559D01*
X4629647Y7725088D01*
X4617882Y7748618D01*
X4594353Y7760382D01*
X4547294D01*
X4523765Y7772147D01*
X4512000Y7795676D01*
X4523765Y7819206D01*
X4547294Y7830971D01*
X4594353D01*
X4617882Y7819206D01*
X4629647Y7795676D01*
X4674000Y7689794D02*
X4674000Y7783912D01*
Y7819206D02*
X4674001Y7819207D01*
X4854118Y7748618D02*
X4842353Y7772147D01*
X4818824Y7783912D01*
X4795294D01*
X4771765Y7772147D01*
X4760000Y7748618D01*
Y7736853D01*
X4771765Y7713324D01*
X4795294Y7701559D01*
X4818824D01*
X4842353Y7713324D01*
X4854118Y7736853D01*
Y7783912D02*
X4854118Y7689794D01*
X4842353Y7666265D01*
X4818824Y7654500D01*
X4783529D01*
X4760000Y7666265D01*
X4896000Y7689794D02*
X4896000Y7783912D01*
Y7748618D02*
X4907765Y7772147D01*
X4931294Y7783912D01*
X4954824D01*
X4978353Y7772147D01*
X4990118Y7748618D01*
Y7689794D01*
X5032000Y7772147D02*
X5055529Y7783912D01*
X5090824D01*
X5114353Y7772147D01*
X5126118Y7748618D01*
Y7713324D01*
X5114353Y7701559D01*
X5090824Y7689794D01*
X5067294D01*
X5043765Y7701559D01*
X5032000Y7713324D01*
Y7725088D01*
X5043765Y7736853D01*
X5067294Y7748618D01*
X5090824D01*
X5114353Y7736853D01*
X5126118Y7725088D01*
Y7713324D02*
X5126118Y7689794D01*
X5179765D02*
X5168000Y7689794D01*
Y7830971D01*
X4795412Y4389000D02*
X4818941Y4400765D01*
X4830706Y4424294D01*
Y4471353D01*
X4818941Y4494882D01*
X4795412Y4506647D01*
X4771882Y4494882D01*
X4760118Y4471353D01*
Y4424294D01*
X4748353Y4400765D01*
X4724824Y4389000D01*
X4701294Y4400765D01*
X4689529Y4424294D01*
Y4471353D01*
X4701294Y4494882D01*
X4724824Y4506647D01*
X4818941Y4645118D02*
X4830706Y4633353D01*
Y4609824D01*
Y4586294D01*
X4818941Y4562765D01*
X4795412Y4551000D01*
X4760118D01*
X4748353Y4562765D01*
X4736588Y4586294D01*
Y4609824D01*
X4748353Y4633353D01*
X4760118Y4645118D01*
X4771882D01*
X4783647Y4633353D01*
X4795412Y4609824D01*
Y4586294D01*
X4783647Y4562765D01*
X4771882Y4551000D01*
X4830706Y4687000D02*
X4736588Y4687000D01*
X4771882D02*
X4748353Y4698765D01*
X4736588Y4722294D01*
Y4745824D01*
X4748353Y4769353D01*
X4771882Y4781118D01*
X4830706D01*
X4818941Y4823000D02*
X4830706Y4846529D01*
Y4893588D01*
X4818941Y4917118D01*
X4795412D01*
X4783647Y4893588D01*
Y4846529D01*
X4771882Y4823000D01*
X4748353D01*
X4736588Y4846529D01*
Y4893588D01*
X4748353Y4917118D01*
X4795412Y4959000D02*
X4818941Y4970765D01*
X4830706Y4994294D01*
Y5017824D01*
X4818941Y5041353D01*
X4795412Y5053118D01*
X4771882D01*
X4748353Y5041353D01*
X4736588Y5017824D01*
Y4994294D01*
X4748353Y4970765D01*
X4771882Y4959000D01*
X4795412D01*
X4830706Y5095000D02*
X4736588Y5095000D01*
X4771882D02*
X4748353Y5106765D01*
X4736588Y5130294D01*
Y5153824D01*
X4748353Y5177353D01*
X4766000Y11817294D02*
X4766000Y11958471D01*
X4883647Y11817294D01*
Y11958471D01*
X4766000Y12579294D02*
X4766000Y12720471D01*
X4848353D01*
X4871882Y12708706D01*
X4883647Y12685176D01*
X4871882Y12661647D01*
X4848353Y12649882D01*
X4766000D01*
X4928000Y12579294D02*
X4928000Y12720471D01*
X5045647D01*
X5022118Y12649882D02*
X4928000Y12649882D01*
Y12579294D02*
X5045647Y12579294D01*
X4766000Y13482471D02*
X4766000Y13341294D01*
X4883647D01*
X5025882Y4471353D02*
X5025882Y4506647D01*
X5037647D01*
X5061176Y4494882D01*
X5072941Y4483118D01*
X5084706Y4459588D01*
Y4436059D01*
X5072941Y4412529D01*
X5061176Y4400765D01*
X5037647Y4389000D01*
X4990588D01*
X4967059Y4400765D01*
X4955294Y4412529D01*
X4943529Y4436059D01*
Y4459588D01*
X4955294Y4483118D01*
X4967059Y4494882D01*
X4990588Y4506647D01*
X5084706Y4551000D02*
X4943529Y4551000D01*
X5084706Y4668647D01*
X4943529D01*
X5084706Y4713000D02*
X4943529Y4713000D01*
Y4783588D01*
X4955294Y4807118D01*
X4967059Y4818882D01*
X4990588Y4830647D01*
X5037647D01*
X5061176Y4818882D01*
X5072941Y4807118D01*
X5084706Y4783588D01*
Y4713000D01*
X7148118Y11822794D02*
X7054000Y11822794D01*
X7136353Y11905147D01*
X7148118Y11928676D01*
X7136353Y11952206D01*
X7112824Y11963971D01*
X7077529D01*
X7054000Y11952206D01*
X7201765Y11834559D02*
X7225294Y11822794D01*
X7248824D01*
X7272353Y11834559D01*
X7284118Y11858088D01*
X7272353Y11881618D01*
X7248824Y11893382D01*
X7225294D01*
X7248824D02*
X7272353Y11905147D01*
X7284118Y11928676D01*
X7272353Y11952206D01*
X7248824Y11963971D01*
X7225294D01*
X7201765Y11952206D01*
X7337765Y11834559D02*
X7361294Y11822794D01*
X7384824D01*
X7408353Y11834559D01*
X7420118Y11858088D01*
Y11928676D01*
X7408353Y11952206D01*
X7384824Y11963971D01*
X7361294D01*
X7337765Y11952206D01*
X7326000Y11928676D01*
Y11858088D01*
X7337765Y11834559D01*
X7408353Y11952206D01*
X7462000Y11963971D02*
X7520824Y11822794D01*
X7579647Y11963971D01*
X7624000Y11822794D02*
X7624001Y11822795D01*
X7624000Y11846324D02*
X7624000Y11963971D01*
X7456500Y5240471D02*
X7456500Y5134588D01*
X7468265Y5111059D01*
X7491794Y5099294D01*
X7538853D01*
X7562382Y5111059D01*
X7574147Y5134588D01*
Y5240471D01*
X7618500Y5134588D02*
X7630265Y5111059D01*
X7653794Y5099294D01*
X7700853D01*
X7724382Y5111059D01*
X7736147Y5134588D01*
X7724382Y5158118D01*
X7700853Y5169882D01*
X7653794D01*
X7630265Y5181647D01*
X7618500Y5205176D01*
X7630265Y5228706D01*
X7653794Y5240471D01*
X7700853D01*
X7724382Y5228706D01*
X7736147Y5205176D01*
X7862853Y5169882D02*
X7886382Y5158118D01*
X7898147Y5134588D01*
X7886382Y5111059D01*
X7862853Y5099294D01*
X7780500D01*
Y5240471D01*
X7862853D01*
X7886382Y5228706D01*
X7898147Y5205176D01*
X7886382Y5181647D01*
X7862853Y5169882D01*
X7780500D01*
X8946441Y12875265D02*
X8958206Y12898794D01*
Y12922324D01*
X8946441Y12945853D01*
X8922912Y12957618D01*
X8852324D01*
X8828794Y12945853D01*
X8817029Y12922324D01*
Y12898794D01*
X8828794Y12875265D01*
X8852324Y12863500D01*
X8922912D01*
X8946441Y12875265D01*
X8828794Y12945853D01*
X8958206Y12999500D02*
X8817029Y13058324D01*
X8958206Y13117147D01*
X8899382Y13023029D02*
X8899382Y13093618D01*
X8946441Y13161500D02*
X8958206Y13185029D01*
Y13220324D01*
X8946441Y13243853D01*
X8922912Y13255618D01*
X8911147D01*
X8887618Y13243853D01*
X8875853Y13220324D01*
Y13161500D01*
X8817029D01*
Y13255618D01*
X8958206Y13297500D02*
X8817029Y13415147D01*
X8958206Y13518324D02*
X8817029Y13518324D01*
Y13459500D02*
X8817029Y13577147D01*
X8922912Y13879500D02*
X8899382Y13891265D01*
X8887618Y13914794D01*
Y13938324D01*
X8899382Y13961853D01*
X8922912Y13973618D01*
X8946441Y13961853D01*
X8958206Y13938324D01*
Y13914794D01*
X8946441Y13891265D01*
X8922912Y13879500D01*
X8887618D01*
X8852324Y13891265D01*
X8828794Y13914794D01*
X8817029Y13938324D01*
X8958206Y14015500D02*
X8817029Y14074324D01*
X8958206Y14133147D01*
X8899382Y14039029D02*
X8899382Y14109618D01*
X8946441Y14189265D02*
X8958206Y14212794D01*
Y14236324D01*
X8946441Y14259853D01*
X8922912Y14271618D01*
X8899382Y14259853D01*
X8887618Y14236324D01*
Y14212794D01*
Y14236324D02*
X8875853Y14259853D01*
X8852324Y14271618D01*
X8828794Y14259853D01*
X8817029Y14236324D01*
Y14212794D01*
X8828794Y14189265D01*
X8958206Y14313500D02*
X8817029Y14431147D01*
X8958206Y14534324D02*
X8817029Y14534324D01*
Y14475500D02*
X8817029Y14593147D01*
X10107000Y14434971D02*
X10107000Y14293794D01*
X10224647D01*
X10292529D02*
X10269000Y14329088D01*
Y14411441D01*
X10292529Y14434971D01*
X10331000Y14305559D02*
X10354529Y14293794D01*
X10401588D01*
X10425118Y14305559D01*
Y14329088D01*
X10401588Y14340853D01*
X10354529D01*
X10331000Y14352618D01*
Y14376147D01*
X10354529Y14387912D01*
X10401588D01*
X10425118Y14376147D01*
X10467000Y14387912D02*
X10467000Y14305559D01*
X10478765Y14293794D01*
X10502294D01*
X10514059Y14305559D01*
Y14340853D01*
Y14305559D02*
X10525824Y14293794D01*
X10549353D01*
X10561118Y14305559D01*
Y14387912D01*
X10603000Y14293794D02*
X10603000Y14387912D01*
Y14423206D02*
X10603001Y14423207D01*
X10689000Y14387912D02*
X10736059Y14387912D01*
X10712529Y14411441D02*
X10712529Y14305559D01*
X10724294Y14293794D01*
X10736059D01*
X10747824Y14305559D01*
X10883118Y14376147D02*
X10859588Y14387912D01*
X10824294D01*
X10800765Y14376147D01*
X10789000Y14352618D01*
Y14329088D01*
X10800765Y14305559D01*
X10824294Y14293794D01*
X10859588D01*
X10883118Y14305559D01*
X10925000Y14293794D02*
X10925000Y14434971D01*
Y14352618D02*
X10936765Y14376147D01*
X10960294Y14387912D01*
X10983824D01*
X11007353Y14376147D01*
X11019118Y14352618D01*
Y14293794D01*
X11155118Y14305559D02*
X11143353Y14293794D01*
X11119824D01*
X11096294D01*
X11072765Y14305559D01*
X11061000Y14329088D01*
Y14364382D01*
X11072765Y14376147D01*
X11096294Y14387912D01*
X11119824D01*
X11143353Y14376147D01*
X11155118Y14364382D01*
Y14352618D01*
X11143353Y14340853D01*
X11119824Y14329088D01*
X11096294D01*
X11072765Y14340853D01*
X11061000Y14352618D01*
X11291118D02*
X11279353Y14376147D01*
X11255824Y14387912D01*
X11232294D01*
X11208765Y14376147D01*
X11197000Y14352618D01*
Y14329088D01*
X11208765Y14305559D01*
X11232294Y14293794D01*
X11255824D01*
X11279353Y14305559D01*
X11291118Y14329088D01*
Y14293794D02*
X11291118Y14434971D01*
X11333000Y14293794D02*
X11356529Y14329088D01*
Y14411441D01*
X11333000Y14434971D01*
X11071000Y14484294D02*
X11071000Y14625471D01*
X11153353D01*
X11176882Y14613706D01*
X11188647Y14590176D01*
X11176882Y14566647D01*
X11153353Y14554882D01*
X11071000D01*
X11233000Y14484294D02*
X11233000Y14625471D01*
X11350647D01*
X11327118Y14554882D02*
X11233000Y14554882D01*
Y14484294D02*
X11350647Y14484294D01*
X11233000Y14674794D02*
X11233000Y14815971D01*
X11350647Y14674794D01*
Y14815971D01*
D02*
D114*
X5755853Y11437500D02*
X5755854Y11437501D01*
X5696088Y11437500D02*
X5397265Y11437500D01*
X5755853Y11655940D02*
X5755854Y11655941D01*
X5696088Y11655940D02*
X5397265Y11655940D01*
X5755853Y11874380D02*
X5755854Y11874381D01*
X5696088Y11874380D02*
X5397265Y11874380D01*
X5755853Y12550319D02*
X5755853Y12311260D01*
X5546676Y12520436D01*
X5486912Y12550319D01*
X5427147Y12520436D01*
X5397265Y12460672D01*
Y12371025D01*
X5427147Y12311260D01*
X5725971Y12686582D02*
X5755853Y12746347D01*
Y12806112D01*
X5725971Y12865876D01*
X5666206Y12895759D01*
X5606441Y12865876D01*
X5576559Y12806112D01*
Y12746347D01*
Y12806112D02*
X5546676Y12865876D01*
X5486912Y12895759D01*
X5427147Y12865876D01*
X5397265Y12806112D01*
Y12746347D01*
X5427147Y12686582D01*
X5725971Y13032022D02*
X5755853Y13091787D01*
Y13151552D01*
X5725971Y13211316D01*
X5666206Y13241199D01*
X5486912D01*
X5427147Y13211316D01*
X5397265Y13151552D01*
Y13091787D01*
X5427147Y13032022D01*
X5486912Y13002140D01*
X5666206D01*
X5725971Y13032022D01*
X5427147Y13211316D01*
X5397265Y13347580D02*
X5755853Y13496992D01*
X5397265Y13646404D01*
X5755853Y13977500D02*
X5755854Y13977501D01*
X5696088Y13977500D02*
X5397265Y13977500D01*
X5755853Y14195940D02*
X5755854Y14195941D01*
X5696088Y14195940D02*
X5397265Y14195940D01*
X5755853Y14414380D02*
X5755854Y14414381D01*
X5696088Y14414380D02*
X5397265Y14414380D01*
X0Y0D02*
M02*
