G04 GENERATED BY PULSONIX 12.5 GERBER.DLL 9449*
G04 #@! TF.GenerationSoftware,Pulsonix,Pulsonix,12.5.9449*
G04 #@! TF.CreationDate,2025-07-29T07:21:01--1:00*
G04 #@! TF.Part,Single*
%FSLAX35Y35*%
%LPD*%
%MOMM*%
G04 #@! TF.FileFunction,Soldermask,Bot*
G04 #@! TF.FilePolarity,Negative*
G04 #@! TA.AperFunction,ViaPad*
%ADD113C,0.95400*%
G04 #@! TA.AperFunction,ComponentPad*
%ADD114C,2.25400*%
%ADD115C,1.95400*%
G04 #@! TA.AperFunction,SMDPad,CuDef*
%ADD116R,1.65400X1.15400*%
%ADD117R,1.20400X2.40400*%
%ADD118R,3.50400X2.40400*%
%ADD119R,1.25400X2.05400*%
%ADD120R,1.15400X1.65400*%
%ADD121R,2.05400X1.25400*%
%ADD122R,0.80400X2.20400*%
%ADD123R,0.85400X2.25400*%
G04 #@! TA.AperFunction,ComponentPad*
%ADD124C,1.77800*%
%ADD125C,3.25400*%
G04 #@! TD.AperFunction*
X0Y0D02*
D02*
D113*
X4385000Y4770000D03*
X4533500Y8407000D03*
X5099375Y8580000D03*
X5105000Y10756500D03*
X5232000D03*
X5401000Y4770000D03*
X5549500Y9550000D03*
X5613000Y9359500D03*
X6417000Y4770000D03*
X6819500Y9994500D03*
X6925000Y4770000D03*
Y5849500D03*
X6946500Y6057500D03*
Y6629000D03*
Y7200500D03*
X7010000Y9994500D03*
X7073500Y6057500D03*
X7137000Y6629000D03*
X7200500Y9994500D03*
X7264000Y7327500D03*
Y7518000D03*
X7373500Y5738375D03*
X7433000Y4770000D03*
X7500500Y5867000D03*
X7518000Y6121000D03*
Y6294000D03*
X7627500Y5867000D03*
X7746500D03*
X7893375Y6929000D03*
X8026000Y6756000D03*
Y7391000D03*
Y7835500D03*
Y8216500D03*
Y8597500D03*
X8216500Y6756000D03*
Y7391000D03*
X8280000Y9931000D03*
Y10058000D03*
X8385500Y4770000D03*
X8407000Y6121000D03*
X8470500Y5613000D03*
Y5803500D03*
X8496625Y5373250D03*
X8534000Y5105000D03*
Y5232000D03*
Y6184500D03*
X8597500Y10502500D03*
X8915000Y10248500D03*
Y10502500D03*
Y10947000D03*
X9169000Y5994000D03*
Y6311500D03*
X9296000Y8343500D03*
Y8597500D03*
Y11709000D03*
Y11899500D03*
Y12090000D03*
X9401500Y4770000D03*
X9486500Y11010500D03*
X9550000Y9423000D03*
X9613500Y11010500D03*
X9740500Y6946500D03*
Y7264000D03*
Y11010500D03*
Y11709000D03*
Y11899500D03*
Y12090000D03*
X10417500Y4770000D03*
X11433500D03*
D02*
D114*
X4258000Y8580000D03*
Y8930000D03*
Y9280000D03*
X4321500Y7504500D03*
Y7754500D03*
X4343000Y3817500D03*
X4448500Y11882000D03*
Y12644000D03*
Y13406000D03*
X4593000Y3817500D03*
X5359000D03*
X5609000D03*
X6375000D03*
X6544000Y5278000D03*
Y5532000D03*
Y5786000D03*
Y6040000D03*
Y6294000D03*
Y6548000D03*
Y6802000D03*
Y7056000D03*
Y7310000D03*
Y7564000D03*
Y7818000D03*
Y8072000D03*
Y8326000D03*
Y8580000D03*
Y8834000D03*
Y9088000D03*
Y9342000D03*
Y9596000D03*
Y9850000D03*
X6619500Y12187500D03*
X6625000Y3817500D03*
X7119500Y10687500D03*
X7391000Y3817500D03*
X7619500Y10687500D03*
X7641000Y3817500D03*
X8119500Y12187500D03*
X8407000Y3817500D03*
X8657000D03*
X8830000Y5278000D03*
Y5532000D03*
Y5786000D03*
Y6040000D03*
Y6294000D03*
Y6548000D03*
Y6802000D03*
Y7056000D03*
Y7310000D03*
Y7564000D03*
Y7818000D03*
Y8072000D03*
Y8326000D03*
Y8580000D03*
Y8834000D03*
Y9088000D03*
Y9342000D03*
Y9596000D03*
Y9850000D03*
X9423000Y3817500D03*
X9673000D03*
X10439000D03*
X10689000D03*
X10798500Y5722500D03*
Y8199000D03*
Y10675500D03*
Y13152000D03*
X11455000Y3817500D03*
X11560500Y5722500D03*
Y8199000D03*
Y10675500D03*
Y13152000D03*
X11705000Y3817500D03*
X12005000Y5722500D03*
Y6103500D03*
Y6484500D03*
Y8199000D03*
Y8580000D03*
Y8961000D03*
Y10675500D03*
Y11056500D03*
Y11437500D03*
Y13152000D03*
Y13533000D03*
Y13914000D03*
X12259000Y5722500D03*
Y6103500D03*
Y6484500D03*
Y8199000D03*
Y8580000D03*
Y8961000D03*
Y10675500D03*
Y11056500D03*
Y11437500D03*
Y13152000D03*
Y13533000D03*
Y13914000D03*
D02*
D115*
X5147000Y9913500D03*
Y10167500D03*
X5718500Y9913500D03*
Y10167500D03*
X9782500Y5722500D03*
Y6484500D03*
Y8199000D03*
Y8961000D03*
Y10675500D03*
Y11437500D03*
Y13152000D03*
Y13914000D03*
D02*
D116*
X4385000Y4039750D03*
Y4230250D03*
Y4420750D03*
Y4611250D03*
X4575500Y4230250D03*
Y4420750D03*
X4893000Y7786250D03*
Y7976750D03*
X5147000Y10389750D03*
Y10580250D03*
X5401000Y4039750D03*
Y4230250D03*
Y4420750D03*
Y4611250D03*
X5591500Y4230250D03*
Y4420750D03*
X5718500Y9500750D03*
Y9691250D03*
X6417000Y4039750D03*
Y4230250D03*
Y4420750D03*
Y4611250D03*
X6607500Y4230250D03*
Y4420750D03*
X6861500Y9627750D03*
Y9818250D03*
X6925000Y4928750D03*
Y5119250D03*
X7433000Y4039750D03*
Y4230250D03*
Y4420750D03*
Y4611250D03*
X7623500Y4230250D03*
Y4420750D03*
X8131500Y5881250D03*
Y6071750D03*
X8322000Y5182750D03*
Y5373250D03*
X8385500Y4039750D03*
Y4230250D03*
Y4420750D03*
Y4611250D03*
X8576000Y4230250D03*
Y4420750D03*
X9401500Y4039750D03*
Y4230250D03*
Y4420750D03*
Y4611250D03*
X9465000Y7278250D03*
Y7468750D03*
X9528500Y9754750D03*
Y9945250D03*
Y12231250D03*
Y12421750D03*
X9592000Y4230250D03*
Y4420750D03*
X10417500Y4039750D03*
Y4230250D03*
Y4420750D03*
Y4611250D03*
X10608000Y4230250D03*
Y4420750D03*
X11433500Y4039750D03*
Y4230250D03*
Y4420750D03*
Y4611250D03*
X11624000Y4230250D03*
Y4420750D03*
D02*
D117*
X7330000Y9759000D03*
X7560000D03*
X7790000D03*
D02*
D118*
X7560000Y9179000D03*
D02*
D119*
X7791000Y9977000D03*
X8091000D03*
D02*
D120*
X4734250Y8389500D03*
Y8580000D03*
Y8897500D03*
X4924750Y8389500D03*
Y8580000D03*
Y8897500D03*
X6956750Y6865500D03*
X7083750Y6294000D03*
X7147250Y6865500D03*
X7274250Y6294000D03*
X7464750Y7373500D03*
Y9977000D03*
X7591750Y8326000D03*
Y8516500D03*
X7655250Y7373500D03*
Y9977000D03*
X7782250Y8326000D03*
Y8516500D03*
X7972750Y11072375D03*
X8099750Y5722500D03*
Y6294000D03*
X8163250Y11072375D03*
X8290250Y5722500D03*
Y6294000D03*
X9115750Y5595500D03*
X9306250D03*
D02*
D121*
X7115500Y9509500D03*
Y9809500D03*
X8766500Y10779500D03*
Y11079500D03*
D02*
D122*
X7246500Y4978280D03*
Y5450720D03*
X7373500Y4978280D03*
Y5450720D03*
X7433000Y7645280D03*
Y8117720D03*
X7500500Y4978280D03*
Y5450720D03*
X7560000Y7645280D03*
Y8117720D03*
X7627500Y4978280D03*
Y5450720D03*
X7687000Y7645280D03*
Y8117720D03*
X7746500Y4978280D03*
Y5450720D03*
X7814000Y7645280D03*
Y8117720D03*
X7873500Y4978280D03*
Y5450720D03*
X8000500Y4978280D03*
Y5450720D03*
X8127500Y4978280D03*
Y5450720D03*
D02*
D123*
X7306000Y6509500D03*
Y7094500D03*
X7433000Y6509500D03*
Y7094500D03*
X7560000Y6509500D03*
Y7094500D03*
X7687000Y6509500D03*
Y7094500D03*
X7814000Y6509500D03*
Y7094500D03*
X7941000Y6509500D03*
Y7094500D03*
X8068000Y6509500D03*
Y7094500D03*
D02*
D124*
X9205375Y7754500D03*
X9253000Y5278000D03*
X9268875Y10231000D03*
Y12707500D03*
X9459375Y7754500D03*
X9507000Y5278000D03*
Y5659000D03*
Y6548000D03*
Y8135500D03*
Y9024500D03*
Y10612000D03*
Y11501000D03*
Y13088500D03*
Y13977500D03*
X9522875Y10231000D03*
Y12707500D03*
X9713375Y7754500D03*
X9761000Y5278000D03*
X9776875Y10231000D03*
Y12707500D03*
D02*
D125*
X6303000Y13215500D03*
Y14231500D03*
X8563000Y13215500D03*
Y14231500D03*
X0Y0D02*
M02*
