G04 GENERATED BY PULSONIX 12.5 GERBER.DLL 9449*
G04 #@! TF.GenerationSoftware,Pulsonix,Pulsonix,12.5.9449*
G04 #@! TF.CreationDate,2025-07-29T07:21:01--1:00*
G04 #@! TF.Part,Single*
%FSLAX35Y35*%
%LPD*%
%MOMM*%
G04 #@! TF.FileFunction,Copper,L2,Bot*
G04 #@! TF.FilePolarity,Positive*
G04 #@! TA.AperFunction,OtherCopper,Copper*
%ADD14C,0.50000*%
%ADD15C,0.30000*%
G04 #@! TA.AperFunction,Conductor*
%ADD16C,0.40640*%
G04 #@! TA.AperFunction,ViaPad*
%ADD17C,0.70000*%
G04 #@! TA.AperFunction,Conductor*
%ADD19C,0.20320*%
%ADD71C,0.63500*%
G04 #@! TA.AperFunction,ComponentPad*
%ADD78C,2.00000*%
%ADD79C,1.52400*%
%ADD83C,1.70000*%
G04 #@! TA.AperFunction,Conductor*
%ADD90C,0.30480*%
G04 #@! TA.AperFunction,SMDPad,CuDef*
%ADD94R,1.00000X1.80000*%
%ADD95R,0.90000X1.40000*%
%ADD99R,1.40000X0.90000*%
%ADD103R,1.80000X1.00000*%
G04 #@! TA.AperFunction,Conductor*
%ADD107C,3.00000*%
G04 #@! TA.AperFunction,SMDPad,CuDef*
%ADD108R,0.95000X2.15000*%
%ADD109R,3.25000X2.15000*%
%ADD110R,0.55000X1.95000*%
%ADD111R,0.60000X2.00000*%
G04 #@! TA.AperFunction,ComponentPad*
%ADD112C,3.00000*%
G04 #@! TD.AperFunction*
X0Y0D02*
D02*
D14*
X3555050Y11342250D02*
Y3514250D01*
G75*
G03*
X3764250Y3305050I209200J0D01*
G01*
X12264250D01*
G75*
G03*
X12473450Y3514250I0J209200D01*
G01*
Y4958760D01*
X10973950D01*
X11323260Y4609450D01*
Y4656250D01*
G75*
G02*
X11361510Y4696441I40240J0D01*
G01*
Y4748125D01*
G75*
G02*
X11358260Y4770000I71990J21875D01*
G01*
G75*
G02*
X11508740I75240J0D01*
G01*
G75*
G02*
X11505490Y4748125I-75240J0D01*
G01*
Y4696441D01*
G75*
G02*
X11543740Y4656250I-1990J-40191D01*
G01*
Y4566250D01*
G75*
G02*
X11503500Y4526010I-40240J0D01*
G01*
X11406700D01*
X11426720Y4505990D01*
X11503500D01*
G75*
G02*
X11528750Y4497082I0J-40240D01*
G01*
G75*
G02*
X11554000Y4505990I25250J-31332D01*
G01*
X11694000D01*
G75*
G02*
X11734240Y4465750I0J-40240D01*
G01*
Y4375750D01*
G75*
G02*
X11694000Y4335510I-40240J0D01*
G01*
X11554000D01*
G75*
G02*
X11528750Y4344418I0J40240D01*
G01*
G75*
G02*
X11503500Y4335510I-25250J31332D01*
G01*
X11488980D01*
Y4315490D01*
X11503500D01*
G75*
G02*
X11524733Y4309432I0J-40240D01*
G01*
G75*
G02*
X11554000Y4320250I29268J-34182D01*
G01*
X11694000D01*
G75*
G02*
X11739000Y4275250I0J-45000D01*
G01*
Y4185250D01*
G75*
G02*
X11694000Y4140250I-45000J0D01*
G01*
X11554000D01*
G75*
G02*
X11524733Y4151068I1J45000D01*
G01*
G75*
G02*
X11503500Y4145010I-21233J34182D01*
G01*
X11363500D01*
G75*
G02*
X11323260Y4185250I0J40240D01*
G01*
Y4275250D01*
G75*
G02*
X11363500Y4315490I40240J0D01*
G01*
X11378020D01*
Y4335510D01*
X11363500D01*
G75*
G02*
X11323260Y4375750I0J40240D01*
G01*
Y4452530D01*
X10852990Y4922800D01*
X8195240D01*
Y4880780D01*
G75*
G02*
X8194501Y4873105I-40240J1D01*
G01*
X8283145D01*
X8298496Y4888456D01*
G75*
G02*
X8337875Y4904855I39379J-39081D01*
G01*
X9988875D01*
G75*
G02*
X10028254Y4888456I0J-55480D01*
G01*
X10307260Y4609450D01*
Y4656250D01*
G75*
G02*
X10345510Y4696441I40240J0D01*
G01*
Y4748125D01*
G75*
G02*
X10342260Y4770000I71990J21875D01*
G01*
G75*
G02*
X10492740I75240J0D01*
G01*
G75*
G02*
X10489490Y4748125I-75240J0D01*
G01*
Y4696441D01*
G75*
G02*
X10527740Y4656250I-1990J-40191D01*
G01*
Y4566250D01*
G75*
G02*
X10487500Y4526010I-40240J0D01*
G01*
X10390700D01*
X10410720Y4505990D01*
X10487500D01*
G75*
G02*
X10512750Y4497082I0J-40240D01*
G01*
G75*
G02*
X10538000Y4505990I25250J-31332D01*
G01*
X10678000D01*
G75*
G02*
X10718240Y4465750I0J-40240D01*
G01*
Y4375750D01*
G75*
G02*
X10678000Y4335510I-40240J0D01*
G01*
X10538000D01*
G75*
G02*
X10512750Y4344418I0J40240D01*
G01*
G75*
G02*
X10487500Y4335510I-25250J31332D01*
G01*
X10472980D01*
Y4315490D01*
X10487500D01*
G75*
G02*
X10508733Y4309432I0J-40240D01*
G01*
G75*
G02*
X10538000Y4320250I29268J-34182D01*
G01*
X10678000D01*
G75*
G02*
X10723000Y4275250I0J-45000D01*
G01*
Y4185250D01*
G75*
G02*
X10678000Y4140250I-45000J0D01*
G01*
X10538000D01*
G75*
G02*
X10508733Y4151068I1J45000D01*
G01*
G75*
G02*
X10487500Y4145010I-21233J34182D01*
G01*
X10347500D01*
G75*
G02*
X10307260Y4185250I0J40240D01*
G01*
Y4275250D01*
G75*
G02*
X10347500Y4315490I40240J0D01*
G01*
X10362020D01*
Y4335510D01*
X10347500D01*
G75*
G02*
X10307260Y4375750I0J40240D01*
G01*
Y4452530D01*
X9965895Y4793895D01*
X9472845D01*
G75*
G02*
X9473490Y4748125I-71345J-23895D01*
G01*
Y4696441D01*
G75*
G02*
X9511740Y4656250I-1990J-40191D01*
G01*
Y4566250D01*
G75*
G02*
X9471500Y4526010I-40240J0D01*
G01*
X9374700D01*
X9394720Y4505990D01*
X9471500D01*
G75*
G02*
X9496750Y4497082I0J-40240D01*
G01*
G75*
G02*
X9522000Y4505990I25250J-31332D01*
G01*
X9662000D01*
G75*
G02*
X9702240Y4465750I0J-40240D01*
G01*
Y4375750D01*
G75*
G02*
X9662000Y4335510I-40240J0D01*
G01*
X9522000D01*
G75*
G02*
X9496750Y4344418I0J40240D01*
G01*
G75*
G02*
X9471500Y4335510I-25250J31332D01*
G01*
X9456980D01*
Y4315490D01*
X9471500D01*
G75*
G02*
X9492733Y4309432I0J-40240D01*
G01*
G75*
G02*
X9522000Y4320250I29268J-34182D01*
G01*
X9662000D01*
G75*
G02*
X9707000Y4275250I0J-45000D01*
G01*
Y4185250D01*
G75*
G02*
X9662000Y4140250I-45000J0D01*
G01*
X9522000D01*
G75*
G02*
X9492733Y4151068I1J45000D01*
G01*
G75*
G02*
X9471500Y4145010I-21233J34182D01*
G01*
X9331500D01*
G75*
G02*
X9291260Y4185250I0J40240D01*
G01*
Y4275250D01*
G75*
G02*
X9331500Y4315490I40240J0D01*
G01*
X9346020D01*
Y4335510D01*
X9331500D01*
G75*
G02*
X9291260Y4375750I0J40240D01*
G01*
Y4452530D01*
X9283270Y4460520D01*
X8686240D01*
Y4375750D01*
G75*
G02*
X8646000Y4335510I-40240J0D01*
G01*
X8506000D01*
G75*
G02*
X8480750Y4344418I0J40240D01*
G01*
G75*
G02*
X8455500Y4335510I-25250J31332D01*
G01*
X8440980D01*
Y4315490D01*
X8455500D01*
G75*
G02*
X8476733Y4309432I0J-40240D01*
G01*
G75*
G02*
X8506000Y4320250I29268J-34182D01*
G01*
X8646000D01*
G75*
G02*
X8691000Y4275250I0J-45000D01*
G01*
Y4185250D01*
G75*
G02*
X8646000Y4140250I-45000J0D01*
G01*
X8506000D01*
G75*
G02*
X8476733Y4151068I1J45000D01*
G01*
G75*
G02*
X8455500Y4145010I-21233J34182D01*
G01*
X8315500D01*
G75*
G02*
X8275260Y4185250I0J40240D01*
G01*
Y4275250D01*
G75*
G02*
X8315500Y4315490I40240J0D01*
G01*
X8330020D01*
Y4335510D01*
X8315500D01*
G75*
G02*
X8276649Y4365270I0J40240D01*
G01*
X7893375D01*
G75*
G02*
X7853996Y4381669I0J55480D01*
G01*
X7707419Y4528246D01*
G75*
G02*
X7691020Y4567625I39081J39379D01*
G01*
Y4851860D01*
G75*
G02*
X7687000Y4856382I27979J28921D01*
G01*
G75*
G02*
X7678980Y4848466I-31999J24399D01*
G01*
Y4505990D01*
X7693500D01*
G75*
G02*
X7733740Y4465750I0J-40240D01*
G01*
Y4375750D01*
G75*
G02*
X7693500Y4335510I-40240J0D01*
G01*
X7553500D01*
G75*
G02*
X7528250Y4344418I0J40240D01*
G01*
G75*
G02*
X7503000Y4335510I-25250J31332D01*
G01*
X7488480D01*
Y4315490D01*
X7503000D01*
G75*
G02*
X7524233Y4309432I0J-40240D01*
G01*
G75*
G02*
X7553500Y4320250I29268J-34182D01*
G01*
X7693500D01*
G75*
G02*
X7738500Y4275250I0J-45000D01*
G01*
Y4185250D01*
G75*
G02*
X7693500Y4140250I-45000J0D01*
G01*
X7553500D01*
G75*
G02*
X7524233Y4151068I1J45000D01*
G01*
G75*
G02*
X7503000Y4145010I-21233J34182D01*
G01*
X7363000D01*
G75*
G02*
X7322760Y4185250I0J40240D01*
G01*
Y4275250D01*
G75*
G02*
X7363000Y4315490I40240J0D01*
G01*
X7377520D01*
Y4335510D01*
X7363000D01*
G75*
G02*
X7322760Y4375750I0J40240D01*
G01*
Y4465750D01*
G75*
G02*
X7363000Y4505990I40240J0D01*
G01*
X7503000D01*
G75*
G02*
X7528250Y4497082I0J-40240D01*
G01*
G75*
G02*
X7553500Y4505990I25250J-31332D01*
G01*
X7568020D01*
Y4856356D01*
G75*
G02*
X7564000Y4862801I31980J24424D01*
G01*
G75*
G02*
X7528000Y4840540I-36000J17979D01*
G01*
X7486750D01*
X7477141Y4830931D01*
G75*
G02*
X7504990Y4748125I-44141J-60931D01*
G01*
Y4696441D01*
G75*
G02*
X7543240Y4656250I-1990J-40191D01*
G01*
Y4566250D01*
G75*
G02*
X7503000Y4526010I-40240J0D01*
G01*
X7363000D01*
G75*
G02*
X7322760Y4566250I0J40240D01*
G01*
Y4656250D01*
G75*
G02*
X7361010Y4696441I40240J0D01*
G01*
Y4714800D01*
X7027879Y4381669D01*
G75*
G02*
X6988500Y4365270I-39379J39081D01*
G01*
X6716351D01*
G75*
G02*
X6677500Y4335510I-38851J10480D01*
G01*
X6537500D01*
G75*
G02*
X6512250Y4344418I0J40240D01*
G01*
G75*
G02*
X6487000Y4335510I-25250J31332D01*
G01*
X6472480D01*
Y4315490D01*
X6487000D01*
G75*
G02*
X6508233Y4309432I0J-40240D01*
G01*
G75*
G02*
X6537500Y4320250I29268J-34182D01*
G01*
X6677500D01*
G75*
G02*
X6722500Y4275250I0J-45000D01*
G01*
Y4185250D01*
G75*
G02*
X6677500Y4140250I-45000J0D01*
G01*
X6537500D01*
G75*
G02*
X6508233Y4151068I1J45000D01*
G01*
G75*
G02*
X6487000Y4145010I-21233J34182D01*
G01*
X6347000D01*
G75*
G02*
X6306760Y4185250I0J40240D01*
G01*
Y4275250D01*
G75*
G02*
X6347000Y4315490I40240J0D01*
G01*
X6361520D01*
Y4335510D01*
X6347000D01*
G75*
G02*
X6306760Y4375750I0J40240D01*
G01*
Y4460520D01*
X5868480D01*
X5789629Y4381669D01*
G75*
G02*
X5750250Y4365270I-39379J39081D01*
G01*
X5700351D01*
G75*
G02*
X5661500Y4335510I-38851J10480D01*
G01*
X5521500D01*
G75*
G02*
X5496250Y4344418I0J40240D01*
G01*
G75*
G02*
X5471000Y4335510I-25250J31332D01*
G01*
X5456480D01*
Y4315490D01*
X5471000D01*
G75*
G02*
X5492233Y4309432I0J-40240D01*
G01*
G75*
G02*
X5521500Y4320250I29268J-34182D01*
G01*
X5661500D01*
G75*
G02*
X5706500Y4275250I0J-45000D01*
G01*
Y4185250D01*
G75*
G02*
X5661500Y4140250I-45000J0D01*
G01*
X5521500D01*
G75*
G02*
X5492233Y4151068I1J45000D01*
G01*
G75*
G02*
X5471000Y4145010I-21233J34182D01*
G01*
X5331000D01*
G75*
G02*
X5290760Y4185250I0J40240D01*
G01*
Y4275250D01*
G75*
G02*
X5331000Y4315490I40240J0D01*
G01*
X5345520D01*
Y4335510D01*
X5331000D01*
G75*
G02*
X5290760Y4375750I0J40240D01*
G01*
Y4465750D01*
G75*
G02*
X5331000Y4505990I40240J0D01*
G01*
X5471000D01*
G75*
G02*
X5496250Y4497082I0J-40240D01*
G01*
G75*
G02*
X5521500Y4505990I25250J-31332D01*
G01*
X5661500D01*
G75*
G02*
X5700351Y4476230I0J-40240D01*
G01*
X5727270D01*
X5806121Y4555081D01*
G75*
G02*
X5845500Y4571480I39379J-39081D01*
G01*
X6306760D01*
Y4656250D01*
G75*
G02*
X6345010Y4696441I40240J0D01*
G01*
Y4748125D01*
G75*
G02*
X6341760Y4770000I71990J21875D01*
G01*
G75*
G02*
X6492240I75240J0D01*
G01*
G75*
G02*
X6488990Y4748125I-75240J0D01*
G01*
Y4696441D01*
G75*
G02*
X6527240Y4656250I-1990J-40191D01*
G01*
Y4571480D01*
X6949645D01*
X7218706Y4840541D01*
G75*
G02*
X7178760Y4880780I294J40239D01*
G01*
Y4922800D01*
X7161220D01*
G75*
G02*
X7121841Y4939199I0J55480D01*
G01*
X7092520Y4968520D01*
X7035240D01*
Y4883750D01*
G75*
G02*
X6996990Y4843559I-40240J0D01*
G01*
Y4791875D01*
G75*
G02*
X7000240Y4770000I-71990J-21875D01*
G01*
G75*
G02*
X6849760I-75240J0D01*
G01*
G75*
G02*
X6853010Y4791875I75240J0D01*
G01*
Y4843559D01*
G75*
G02*
X6814760Y4883750I1990J40191D01*
G01*
Y4968520D01*
X5201730D01*
X4685740Y4452530D01*
Y4375750D01*
G75*
G02*
X4645500Y4335510I-40240J0D01*
G01*
X4505500D01*
G75*
G02*
X4480250Y4344418I0J40240D01*
G01*
G75*
G02*
X4455000Y4335510I-25250J31332D01*
G01*
X4440480D01*
Y4315490D01*
X4455000D01*
G75*
G02*
X4476233Y4309432I0J-40240D01*
G01*
G75*
G02*
X4505500Y4320250I29268J-34182D01*
G01*
X4645500D01*
G75*
G02*
X4690500Y4275250I0J-45000D01*
G01*
Y4185250D01*
G75*
G02*
X4645500Y4140250I-45000J0D01*
G01*
X4505500D01*
G75*
G02*
X4476233Y4151068I1J45000D01*
G01*
G75*
G02*
X4455000Y4145010I-21233J34182D01*
G01*
X4315000D01*
G75*
G02*
X4274760Y4185250I0J40240D01*
G01*
Y4275250D01*
G75*
G02*
X4315000Y4315490I40240J0D01*
G01*
X4329520D01*
Y4335510D01*
X4315000D01*
G75*
G02*
X4274760Y4375750I0J40240D01*
G01*
Y4465750D01*
G75*
G02*
X4315000Y4505990I40240J0D01*
G01*
X4455000D01*
G75*
G02*
X4480250Y4497082I0J-40240D01*
G01*
G75*
G02*
X4505500Y4505990I25250J-31332D01*
G01*
X4582280D01*
X5139371Y5063081D01*
G75*
G02*
X5178750Y5079480I39379J-39081D01*
G01*
X6814760D01*
Y5164250D01*
G75*
G02*
X6837135Y5200307I40240J0D01*
G01*
Y5579346D01*
G75*
G02*
X6858220Y5630530I71990J279D01*
G01*
X7202260Y5974570D01*
Y6194154D01*
G75*
G02*
X7189010Y6224000I26990J29846D01*
G01*
Y6364000D01*
G75*
G02*
X7229250Y6404240I40240J0D01*
G01*
X7234010D01*
Y6509500D01*
G75*
G02*
X7235760Y6525277I71990J0D01*
G01*
Y6609500D01*
G75*
G02*
X7276000Y6649740I40240J0D01*
G01*
X7336000D01*
G75*
G02*
X7369500Y6631794I0J-40240D01*
G01*
G75*
G02*
X7403000Y6649740I33500J-22294D01*
G01*
X7463000D01*
G75*
G02*
X7496500Y6631794I0J-40240D01*
G01*
G75*
G02*
X7530000Y6649740I33500J-22294D01*
G01*
X7590000D01*
G75*
G02*
X7615010Y6641024I0J-40240D01*
G01*
Y6661055D01*
X7482555Y6793510D01*
X7232441D01*
G75*
G02*
X7192250Y6755260I-40191J1990D01*
G01*
X7102250D01*
G75*
G02*
X7062010Y6795500I0J40240D01*
G01*
Y6935500D01*
G75*
G02*
X7075260Y6965346I40240J0D01*
G01*
Y7704922D01*
G75*
G02*
X7096093Y7755621I71990J48D01*
G01*
X7286593Y7948026D01*
G75*
G02*
X7337798Y7969365I51157J-50651D01*
G01*
X7450805D01*
X7461431Y7979991D01*
G75*
G02*
X7460500Y7979980I-941J40229D01*
G01*
X7405500D01*
G75*
G02*
X7365260Y8020220I0J40240D01*
G01*
Y8215220D01*
G75*
G02*
X7405500Y8255460I40240J0D01*
G01*
X7460500D01*
G75*
G02*
X7488010Y8244588I0J-40240D01*
G01*
Y8293971D01*
G75*
G02*
X7506510Y8342432I71990J279D01*
G01*
Y8396000D01*
G75*
G02*
X7515418Y8421250I40240J0D01*
G01*
G75*
G02*
X7506510Y8446500I31332J25250D01*
G01*
Y8586500D01*
G75*
G02*
X7519760Y8616346I40240J0D01*
G01*
Y8659096D01*
G75*
G02*
X7540845Y8710280I71990J279D01*
G01*
X7718010Y8887445D01*
Y9031260D01*
X7631990D01*
Y8929529D01*
G75*
G02*
X7610905Y8878345I-71990J-279D01*
G01*
X6869990Y8137430D01*
Y6952266D01*
G75*
G02*
X6911750Y6980500I41760J-16766D01*
G01*
X7001750D01*
G75*
G02*
X7046750Y6935500I0J-45000D01*
G01*
Y6795500D01*
G75*
G02*
X7001750Y6750500I-45000J0D01*
G01*
X6911750D01*
G75*
G02*
X6869990Y6778734I0J45000D01*
G01*
Y6006320D01*
X6960439Y5915871D01*
G75*
G02*
X7000240Y5849500I-35439J-66371D01*
G01*
G75*
G02*
X6858629Y5814061I-75240J0D01*
G01*
X6747095Y5925595D01*
G75*
G02*
X6726010Y5976779I50905J50905D01*
G01*
Y8166971D01*
G75*
G02*
X6747095Y8218155I71990J279D01*
G01*
X7488010Y8959070D01*
Y9031260D01*
X7397500D01*
G75*
G02*
X7357260Y9071500I0J40240D01*
G01*
Y9286500D01*
G75*
G02*
X7397500Y9326740I40240J0D01*
G01*
X7488010D01*
Y9437510D01*
X7239200D01*
G75*
G02*
X7205500Y9419260I-33700J21990D01*
G01*
X7025500D01*
G75*
G02*
X6991800Y9437510I0J40240D01*
G01*
X6980029D01*
G75*
G02*
X6928845Y9458595I-279J71990D01*
G01*
X6844930Y9542510D01*
X6791500D01*
G75*
G02*
X6761514Y9555915I0J40240D01*
G01*
G75*
G02*
X6715345Y9576845I4737J71835D01*
G01*
X6683681Y9608509D01*
G75*
G02*
X6603483Y9469000I-139681J-12509D01*
G01*
G75*
G02*
Y9215000I-59483J-127000D01*
G01*
G75*
G02*
X6664187Y9015735I-59483J-127000D01*
G01*
G75*
G02*
X6694504Y9000081I-9062J-54735D01*
G01*
X6757706Y8936879D01*
G75*
G02*
X6774105Y8897500I-39081J-39379D01*
G01*
Y8500625D01*
G75*
G02*
X6757706Y8461246I-55480J0D01*
G01*
X6674305Y8377845D01*
G75*
G02*
X6603483Y8199000I-130305J-51845D01*
G01*
G75*
G02*
Y7945000I-59483J-127000D01*
G01*
G75*
G02*
Y7691000I-59483J-127000D01*
G01*
G75*
G02*
Y7437000I-59483J-127000D01*
G01*
G75*
G02*
Y7183000I-59483J-127000D01*
G01*
G75*
G02*
Y6929000I-59483J-127000D01*
G01*
G75*
G02*
X6608884Y6677673I-59483J-127000D01*
G01*
G75*
G02*
Y6418327I-64884J-129673D01*
G01*
G75*
G02*
X6603483Y6167000I-64884J-124327D01*
G01*
G75*
G02*
Y5913000I-59483J-127000D01*
G01*
G75*
G02*
Y5659000I-59483J-127000D01*
G01*
G75*
G02*
Y5405000I-59483J-127000D01*
G01*
G75*
G02*
X6684240Y5278000I-59483J-127000D01*
G01*
G75*
G02*
X6403760I-140240J0D01*
G01*
G75*
G02*
X6484517Y5405000I140240J0D01*
G01*
G75*
G02*
Y5659000I59483J127000D01*
G01*
G75*
G02*
Y5913000I59483J127000D01*
G01*
G75*
G02*
Y6167000I59483J127000D01*
G01*
G75*
G02*
X6479116Y6418327I59483J127000D01*
G01*
G75*
G02*
Y6677673I64884J129673D01*
G01*
G75*
G02*
X6484517Y6929000I64884J124327D01*
G01*
G75*
G02*
Y7183000I59483J127000D01*
G01*
G75*
G02*
Y7437000I59483J127000D01*
G01*
G75*
G02*
Y7691000I59483J127000D01*
G01*
G75*
G02*
Y7945000I59483J127000D01*
G01*
G75*
G02*
Y8199000I59483J127000D01*
G01*
G75*
G02*
X6410077Y8367617I59483J127000D01*
G01*
X5789629Y7747169D01*
G75*
G02*
X5750250Y7730770I-39379J39081D01*
G01*
X5001851D01*
G75*
G02*
X4963000Y7701010I-38851J10480D01*
G01*
X4823000D01*
G75*
G02*
X4784149Y7730770I0J40240D01*
G01*
X4459718D01*
G75*
G02*
X4390157Y7632215I-138218J23730D01*
G01*
G75*
G02*
X4466500Y7504500I-68657J-127715D01*
G01*
G75*
G02*
X4176500I-145000J0D01*
G01*
G75*
G02*
X4252843Y7632215I145000J0D01*
G01*
G75*
G02*
X4181260Y7754500I68657J122285D01*
G01*
G75*
G02*
X4431310Y7841730I140240J0D01*
G01*
X4784149D01*
G75*
G02*
X4823000Y7871490I38851J-10480D01*
G01*
X4963000D01*
G75*
G02*
X5001851Y7841730I0J-40240D01*
G01*
X5727270D01*
X6413695Y8528155D01*
G75*
G02*
X6484517Y8707000I130305J51845D01*
G01*
G75*
G02*
X6415201Y8778520I59483J127000D01*
G01*
X5670875D01*
G75*
G02*
X5631496Y8794919I0J55480D01*
G01*
X5584395Y8842020D01*
X5009990D01*
Y8827500D01*
G75*
G02*
X4969750Y8787260I-40240J0D01*
G01*
X4879750D01*
G75*
G02*
X4839510Y8827500I0J40240D01*
G01*
Y8967500D01*
G75*
G02*
X4879750Y9007740I40240J0D01*
G01*
X4969750D01*
G75*
G02*
X5009990Y8967500I0J-40240D01*
G01*
Y8952980D01*
X5607375D01*
G75*
G02*
X5646754Y8936581I0J-55480D01*
G01*
X5693855Y8889480D01*
X6415201D01*
G75*
G02*
X6423368Y8905520I128799J-55481D01*
G01*
X5845500D01*
G75*
G02*
X5806121Y8921919I0J55480D01*
G01*
X5107919Y9620121D01*
G75*
G02*
X5091520Y9659500I39081J39379D01*
G01*
Y9801219D01*
G75*
G02*
X5021760Y9913500I55480J112281D01*
G01*
G75*
G02*
X5272240I125240J0D01*
G01*
G75*
G02*
X5202480Y9801219I-125240J0D01*
G01*
Y9682480D01*
X5868480Y9016480D01*
X6423368D01*
G75*
G02*
X6484517Y9215000I120632J71520D01*
G01*
G75*
G02*
Y9469000I59483J127000D01*
G01*
G75*
G02*
Y9723000I59483J127000D01*
G01*
G75*
G02*
X6403760Y9850000I59483J127000D01*
G01*
G75*
G02*
X6684240I140240J0D01*
G01*
G75*
G02*
X6680007Y9815803I-140240J-1D01*
G01*
X6783603Y9712207D01*
G75*
G02*
X6791500Y9712990I7900J-39457D01*
G01*
X6931500D01*
G75*
G02*
X6971740Y9672750I0J-40240D01*
G01*
Y9619320D01*
X7000238Y9590822D01*
G75*
G02*
X7025500Y9599740I25262J-31322D01*
G01*
X7205500D01*
G75*
G02*
X7239200Y9581490I0J-40240D01*
G01*
X7488010D01*
Y9619570D01*
G75*
G02*
X7472260Y9651500I24490J31930D01*
G01*
Y9862000D01*
X7422500D01*
Y9651500D01*
G75*
G02*
X7377500Y9606500I-45000J0D01*
G01*
X7282500D01*
G75*
G02*
X7237500Y9651500I0J45000D01*
G01*
Y9727861D01*
G75*
G02*
X7205500Y9714500I-32000J31639D01*
G01*
X7025500D01*
G75*
G02*
X6980500Y9759500I0J45000D01*
G01*
Y9859500D01*
G75*
G02*
X7025500Y9904500I45000J0D01*
G01*
X7205500D01*
G75*
G02*
X7241915Y9885938I0J-45000D01*
G01*
G75*
G02*
X7282500Y9911500I40585J-19438D01*
G01*
X7374750D01*
Y10047000D01*
G75*
G02*
X7419750Y10092000I45000J0D01*
G01*
X7509750D01*
G75*
G02*
X7554750Y10047000I0J-45000D01*
G01*
Y9907000D01*
X7554749Y9906740D01*
X7570011D01*
X7570010Y9907000D01*
Y10047000D01*
G75*
G02*
X7583260Y10076846I40240J0D01*
G01*
Y10121930D01*
X7153697Y10551493D01*
G75*
G02*
X6979260Y10687500I-34197J136007D01*
G01*
G75*
G02*
X7153697Y10823507I140240J0D01*
G01*
X7453470Y11123280D01*
G75*
G02*
X7504654Y11144365I50905J-50905D01*
G01*
X7887559D01*
G75*
G02*
X7927750Y11182615I40191J-1990D01*
G01*
X8017750D01*
G75*
G02*
X8057990Y11142375I0J-40240D01*
G01*
Y11002375D01*
G75*
G02*
X8017750Y10962135I-40240J0D01*
G01*
X7927750D01*
G75*
G02*
X7887559Y11000385I0J40240D01*
G01*
X7534195D01*
X7255507Y10721697D01*
G75*
G02*
Y10653303I-136007J-34197D01*
G01*
X7706155Y10202655D01*
G75*
G02*
X7727240Y10151471I-50905J-50905D01*
G01*
Y10104814D01*
G75*
G02*
X7741000Y10107240I13761J-37814D01*
G01*
X7841000D01*
G75*
G02*
X7881240Y10067000I0J-40240D01*
G01*
Y9887000D01*
G75*
G02*
X7877569Y9870208I-40240J0D01*
G01*
G75*
G02*
X7877740Y9866500I-40069J-3706D01*
G01*
Y9651500D01*
G75*
G02*
X7861990Y9619570I-40240J0D01*
G01*
Y8857904D01*
G75*
G02*
X7840905Y8806720I-71990J-279D01*
G01*
X7663740Y8629555D01*
Y8616346D01*
G75*
G02*
X7676990Y8586500I-26990J-29846D01*
G01*
Y8446500D01*
G75*
G02*
X7668082Y8421250I-40240J0D01*
G01*
G75*
G02*
X7676990Y8396000I-31332J-25250D01*
G01*
Y8256000D01*
X7676986Y8255460D01*
X7692253D01*
X7692250Y8256000D01*
Y8396000D01*
G75*
G02*
X7700002Y8421250I45000J0D01*
G01*
G75*
G02*
X7692250Y8446500I37248J25250D01*
G01*
Y8586500D01*
G75*
G02*
X7737250Y8631500I45000J0D01*
G01*
X7827250D01*
G75*
G02*
X7872250Y8586500I0J-45000D01*
G01*
Y8446500D01*
G75*
G02*
X7864498Y8421250I-45000J0D01*
G01*
G75*
G02*
X7872250Y8396000I-37248J-25250D01*
G01*
Y8256000D01*
G75*
G02*
X7871643Y8248633I-45000J-1D01*
G01*
G75*
G02*
X7886500Y8215220I-30143J-33413D01*
G01*
Y8020220D01*
G75*
G02*
X7841500Y7975220I-45000J0D01*
G01*
X7786500D01*
G75*
G02*
X7747682Y7997456I0J45000D01*
G01*
G75*
G02*
X7714500Y7979980I-33182J22764D01*
G01*
X7659500D01*
G75*
G02*
X7631990Y7990852I0J40240D01*
G01*
Y7977029D01*
G75*
G02*
X7610905Y7925845I-71990J-279D01*
G01*
X7531530Y7846470D01*
G75*
G02*
X7480346Y7825385I-50905J50905D01*
G01*
X7367779D01*
X7219240Y7675360D01*
Y6965346D01*
G75*
G02*
X7232441Y6937490I-26990J-29846D01*
G01*
X7512096D01*
G75*
G02*
X7563280Y6916405I279J-71990D01*
G01*
X7737905Y6741780D01*
G75*
G02*
X7758520Y6699093I-50905J-50905D01*
G01*
Y6858395D01*
X7711419Y6905496D01*
G75*
G02*
X7695020Y6944875I39081J39379D01*
G01*
Y6949500D01*
X7657000D01*
G75*
G02*
X7620472Y6968219I0J45000D01*
G01*
G75*
G02*
X7590000Y6954260I-30472J26281D01*
G01*
X7530000D01*
G75*
G02*
X7496500Y6972206I0J40240D01*
G01*
G75*
G02*
X7463000Y6954260I-33500J22294D01*
G01*
X7403000D01*
G75*
G02*
X7369500Y6972206I0J40240D01*
G01*
G75*
G02*
X7336000Y6954260I-33500J22294D01*
G01*
X7276000D01*
G75*
G02*
X7235760Y6994500I0J40240D01*
G01*
Y7194500D01*
G75*
G02*
X7276000Y7234740I40240J0D01*
G01*
X7336000D01*
G75*
G02*
X7369500Y7216794I0J-40240D01*
G01*
G75*
G02*
X7403000Y7234740I33500J-22294D01*
G01*
X7463000D01*
G75*
G02*
X7496500Y7216794I0J-40240D01*
G01*
G75*
G02*
X7530000Y7234740I33500J-22294D01*
G01*
X7590000D01*
G75*
G02*
X7620472Y7220781I0J-40240D01*
G01*
G75*
G02*
X7657000Y7239500I36528J-26281D01*
G01*
X7695020D01*
Y7255270D01*
X7687030Y7263260D01*
X7610250D01*
G75*
G02*
X7570010Y7303500I0J40240D01*
G01*
Y7443500D01*
G75*
G02*
X7610250Y7483740I40240J0D01*
G01*
X7615010D01*
Y7518412D01*
G75*
G02*
X7587500Y7507540I-27510J29368D01*
G01*
X7532500D01*
G75*
G02*
X7496500Y7529801I0J40240D01*
G01*
G75*
G02*
X7460500Y7507540I-36000J17979D01*
G01*
X7405500D01*
G75*
G02*
X7365260Y7547780I0J40240D01*
G01*
Y7742780D01*
G75*
G02*
X7405500Y7783020I40240J0D01*
G01*
X7460500D01*
G75*
G02*
X7496500Y7760759I0J-40240D01*
G01*
G75*
G02*
X7532500Y7783020I36000J-17979D01*
G01*
X7587500D01*
G75*
G02*
X7623500Y7760759I0J-40240D01*
G01*
G75*
G02*
X7659500Y7783020I36000J-17979D01*
G01*
X7714500D01*
G75*
G02*
X7750500Y7760759I0J-40240D01*
G01*
G75*
G02*
X7786500Y7783020I36000J-17979D01*
G01*
X7841500D01*
G75*
G02*
X7881740Y7742780I0J-40240D01*
G01*
Y7547780D01*
G75*
G02*
X7841500Y7507540I-40240J0D01*
G01*
X7786500D01*
G75*
G02*
X7758990Y7518412I0J40240D01*
G01*
Y7405529D01*
G75*
G02*
X7744832Y7362378I-71989J-278D01*
G01*
X7789581Y7317629D01*
G75*
G02*
X7805980Y7278250I-39081J-39379D01*
G01*
Y7234740D01*
X7844000D01*
G75*
G02*
X7877500Y7216794I0J-40240D01*
G01*
G75*
G02*
X7911000Y7234740I33500J-22294D01*
G01*
X7971000D01*
G75*
G02*
X8004500Y7216794I0J-40240D01*
G01*
G75*
G02*
X8038000Y7234740I33500J-22294D01*
G01*
X8098000D01*
G75*
G02*
X8138240Y7194500I0J-40240D01*
G01*
Y6994500D01*
G75*
G02*
X8136973Y6984480I-40240J-2D01*
G01*
X8709368D01*
G75*
G02*
X8770517Y7183000I120632J71520D01*
G01*
G75*
G02*
Y7437000I59483J127000D01*
G01*
G75*
G02*
Y7691000I59483J127000D01*
G01*
G75*
G02*
Y7945000I59483J127000D01*
G01*
G75*
G02*
X8765116Y8196327I59483J127000D01*
G01*
G75*
G02*
Y8455673I64884J129673D01*
G01*
G75*
G02*
X8770517Y8707000I64884J124327D01*
G01*
G75*
G02*
Y8961000I59483J127000D01*
G01*
G75*
G02*
Y9215000I59483J127000D01*
G01*
G75*
G02*
Y9469000I59483J127000D01*
G01*
G75*
G02*
X8765116Y9720327I59483J127000D01*
G01*
G75*
G02*
X8685000Y9850000I64884J129673D01*
G01*
G75*
G02*
X8933270Y9951786I145000J0D01*
G01*
Y10770750D01*
G75*
G02*
X8949669Y10810129I55480J0D01*
G01*
X9525594Y11386054D01*
G75*
G02*
X9493192Y11385382I-18592J114946D01*
G01*
X9136405Y11028595D01*
G75*
G02*
X9085221Y11007510I-50905J50905D01*
G01*
X8890200D01*
G75*
G02*
X8856500Y10989260I-33700J21990D01*
G01*
X8676500D01*
G75*
G02*
X8648723Y11000385I0J40240D01*
G01*
X8248441D01*
G75*
G02*
X8208250Y10962135I-40191J1990D01*
G01*
X8118250D01*
G75*
G02*
X8078010Y11002375I0J40240D01*
G01*
Y11142375D01*
G75*
G02*
X8118250Y11182615I40240J0D01*
G01*
X8208250D01*
G75*
G02*
X8248441Y11144365I0J-40240D01*
G01*
X8639106D01*
G75*
G02*
X8676500Y11169740I37394J-14865D01*
G01*
X8856500D01*
G75*
G02*
X8890200Y11151490I0J-40240D01*
G01*
X9055680D01*
X9391382Y11487192D01*
G75*
G02*
X9584145Y11588218I115618J13808D01*
G01*
Y11605020D01*
X9489419Y11699746D01*
G75*
G02*
X9473020Y11739125I39081J39379D01*
G01*
Y12146010D01*
X9458500D01*
G75*
G02*
X9418260Y12186250I0J40240D01*
G01*
Y12276250D01*
G75*
G02*
X9458500Y12316490I40240J0D01*
G01*
X9598500D01*
G75*
G02*
X9638740Y12276250I0J-40240D01*
G01*
Y12186250D01*
G75*
G02*
X9598500Y12146010I-40240J0D01*
G01*
X9583980D01*
Y11762105D01*
X9678706Y11667379D01*
G75*
G02*
X9695105Y11628000I-39081J-39379D01*
G01*
Y11527206D01*
G75*
G02*
X9907740Y11437500I87395J-89706D01*
G01*
G75*
G02*
X9673063Y11376603I-125240J0D01*
G01*
X9044230Y10747770D01*
Y9348940D01*
X9418260Y9722970D01*
Y9799750D01*
G75*
G02*
X9458500Y9839990I40240J0D01*
G01*
X9598500D01*
G75*
G02*
X9638740Y9799750I0J-40240D01*
G01*
Y9709750D01*
G75*
G02*
X9598500Y9669510I-40240J0D01*
G01*
X9521720D01*
X9123605Y9271395D01*
Y7843960D01*
G75*
G02*
X9326575Y7754500I81770J-89460D01*
G01*
G75*
G02*
X9123605Y7665040I-121200J0D01*
G01*
Y7294125D01*
G75*
G02*
X9107206Y7254746I-55480J0D01*
G01*
X8960305Y7107845D01*
G75*
G02*
X8950632Y6984480I-130305J-51845D01*
G01*
X9092770D01*
X9354760Y7246470D01*
Y7323250D01*
G75*
G02*
X9395000Y7363490I40240J0D01*
G01*
X9535000D01*
G75*
G02*
X9575240Y7323250I0J-40240D01*
G01*
Y7233250D01*
G75*
G02*
X9535000Y7193010I-40240J0D01*
G01*
X9458220D01*
X9155129Y6889919D01*
G75*
G02*
X9115750Y6873520I-39379J39081D01*
G01*
X8950632D01*
G75*
G02*
X8889483Y6675000I-120632J-71520D01*
G01*
G75*
G02*
Y6421000I-59483J-127000D01*
G01*
G75*
G02*
Y6167000I-59483J-127000D01*
G01*
G75*
G02*
Y5913000I-59483J-127000D01*
G01*
G75*
G02*
X8950187Y5713735I-59483J-127000D01*
G01*
G75*
G02*
X8980504Y5698081I-9062J-54735D01*
G01*
X9027605Y5650980D01*
X9030510D01*
Y5665500D01*
G75*
G02*
X9070750Y5705740I40240J0D01*
G01*
X9160750D01*
G75*
G02*
X9200990Y5665500I0J-40240D01*
G01*
Y5525500D01*
G75*
G02*
X9160750Y5485260I-40240J0D01*
G01*
X9070750D01*
G75*
G02*
X9030510Y5525500I0J40240D01*
G01*
Y5540020D01*
X9004625D01*
G75*
G02*
X8968614Y5553296I1J55480D01*
G01*
G75*
G02*
X8889483Y5405000I-138614J-21296D01*
G01*
G75*
G02*
X8970240Y5278000I-59483J-127000D01*
G01*
G75*
G02*
X8689760I-140240J0D01*
G01*
G75*
G02*
X8770517Y5405000I140240J0D01*
G01*
G75*
G02*
X8723638Y5623402I59483J127000D01*
G01*
X8426020Y5921020D01*
X8241740D01*
Y5837363D01*
G75*
G02*
X8245250Y5837500I3509J-44863D01*
G01*
X8335250D01*
G75*
G02*
X8380250Y5792500I0J-45000D01*
G01*
Y5652500D01*
G75*
G02*
X8335250Y5607500I-45000J0D01*
G01*
X8245250D01*
G75*
G02*
X8200250Y5652500I0J45000D01*
G01*
Y5792500D01*
G75*
G02*
X8200387Y5796010I45000J1D01*
G01*
X8186980D01*
Y5754250D01*
G75*
G02*
X8184990Y5739524I-55480J0D01*
G01*
Y5652500D01*
G75*
G02*
X8144750Y5612260I-40240J0D01*
G01*
X8067970D01*
X8055980Y5600270D01*
Y5577140D01*
G75*
G02*
X8064000Y5566199I-27980J-28920D01*
G01*
G75*
G02*
X8100000Y5588460I36000J-17979D01*
G01*
X8155000D01*
G75*
G02*
X8195240Y5548220I0J-40240D01*
G01*
Y5511280D01*
X8244530D01*
G75*
G02*
X8287534Y5493360I0J-60560D01*
G01*
X8322404Y5458490D01*
X8392000D01*
G75*
G02*
X8421846Y5445240I0J-40240D01*
G01*
X8474750D01*
G75*
G02*
X8571865Y5373250I21875J-71990D01*
G01*
G75*
G02*
X8474750Y5301260I-75240J0D01*
G01*
X8421846D01*
G75*
G02*
X8392000Y5288010I-29846J26990D01*
G01*
X8252000D01*
G75*
G02*
X8211760Y5328250I0J40240D01*
G01*
Y5390160D01*
X8195240D01*
Y5353220D01*
G75*
G02*
X8155000Y5312980I-40240J0D01*
G01*
X8100000D01*
G75*
G02*
X8064000Y5335241I0J40240D01*
G01*
G75*
G02*
X8028000Y5312980I-36000J17979D01*
G01*
X7973000D01*
G75*
G02*
X7939818Y5330456I0J40240D01*
G01*
G75*
G02*
X7901000Y5308220I-38818J22764D01*
G01*
X7846000D01*
G75*
G02*
X7807182Y5330456I0J45000D01*
G01*
G75*
G02*
X7774000Y5312980I-33182J22764D01*
G01*
X7719000D01*
G75*
G02*
X7687000Y5328822I0J40240D01*
G01*
G75*
G02*
X7655000Y5312980I-32000J24398D01*
G01*
X7600000D01*
G75*
G02*
X7564000Y5335241I0J40240D01*
G01*
G75*
G02*
X7528000Y5312980I-36000J17979D01*
G01*
X7473000D01*
G75*
G02*
X7437000Y5335241I0J40240D01*
G01*
G75*
G02*
X7401000Y5312980I-36000J17979D01*
G01*
X7346000D01*
G75*
G02*
X7312818Y5330456I0J40240D01*
G01*
G75*
G02*
X7274000Y5308220I-38818J22764D01*
G01*
X7219000D01*
G75*
G02*
X7174000Y5353220I0J45000D01*
G01*
Y5548220D01*
G75*
G02*
X7219000Y5593220I45000J0D01*
G01*
X7274000D01*
G75*
G02*
X7312818Y5570984I0J-45000D01*
G01*
G75*
G02*
X7318020Y5577140I33182J-22764D01*
G01*
Y5687552D01*
G75*
G02*
X7298260Y5738375I55480J50823D01*
G01*
G75*
G02*
X7445020Y5761741I75240J0D01*
G01*
Y5816177D01*
G75*
G02*
X7425260Y5867000I55480J50823D01*
G01*
G75*
G02*
X7564000Y5907358I75240J0D01*
G01*
G75*
G02*
X7687000Y5913052I63500J-40358D01*
G01*
G75*
G02*
X7821740Y5867000I59500J-46052D01*
G01*
G75*
G02*
X7801980Y5816177I-75240J0D01*
G01*
Y5577140D01*
G75*
G02*
X7807182Y5570984I-27980J-28920D01*
G01*
G75*
G02*
X7846000Y5593220I38818J-22764D01*
G01*
X7901000D01*
G75*
G02*
X7939818Y5570984I0J-45000D01*
G01*
G75*
G02*
X7945020Y5577140I33182J-22764D01*
G01*
Y5623250D01*
G75*
G02*
X7961419Y5662629I55480J0D01*
G01*
X8014510Y5715720D01*
Y5792500D01*
G75*
G02*
X8024912Y5819499I40240J0D01*
G01*
G75*
G02*
X8021260Y5836250I36588J16750D01*
G01*
Y5921020D01*
X7988625D01*
G75*
G02*
X7949246Y5937419I0J55480D01*
G01*
X7648145Y6238520D01*
X7568823D01*
G75*
G02*
X7446714Y6269931I-50823J55480D01*
G01*
G75*
G02*
X7400971Y6253760I-45463J55819D01*
G01*
X7359490D01*
Y6224000D01*
G75*
G02*
X7346240Y6194154I-40240J0D01*
G01*
Y5945029D01*
G75*
G02*
X7325155Y5893845I-71990J-279D01*
G01*
X6981115Y5549805D01*
Y5204490D01*
X6995000D01*
G75*
G02*
X7035240Y5164250I0J-40240D01*
G01*
Y5079480D01*
X7115500D01*
G75*
G02*
X7154879Y5063081I0J-55480D01*
G01*
X7178760Y5039200D01*
Y5075780D01*
G75*
G02*
X7219000Y5116020I40240J0D01*
G01*
X7274000D01*
G75*
G02*
X7310000Y5093759I0J-40240D01*
G01*
G75*
G02*
X7346000Y5116020I36000J-17979D01*
G01*
X7401000D01*
G75*
G02*
X7437000Y5093759I0J-40240D01*
G01*
G75*
G02*
X7473000Y5116020I36000J-17979D01*
G01*
X7528000D01*
G75*
G02*
X7564000Y5093759I0J-40240D01*
G01*
G75*
G02*
X7600000Y5116020I36000J-17979D01*
G01*
X7655000D01*
G75*
G02*
X7687000Y5100178I0J-40240D01*
G01*
G75*
G02*
X7719000Y5116020I32000J-24398D01*
G01*
X7774000D01*
G75*
G02*
X7810000Y5093759I0J-40240D01*
G01*
G75*
G02*
X7846000Y5116020I36000J-17979D01*
G01*
X7901000D01*
G75*
G02*
X7937000Y5093759I0J-40240D01*
G01*
G75*
G02*
X7973000Y5116020I36000J-17979D01*
G01*
X8028000D01*
G75*
G02*
X8064000Y5093759I0J-40240D01*
G01*
G75*
G02*
X8100000Y5116020I36000J-17979D01*
G01*
X8155000D01*
G75*
G02*
X8195240Y5075780I0J-40240D01*
G01*
Y5033760D01*
X9909500D01*
Y12834500D01*
X9115750D01*
Y11548625D01*
X8909375Y11342250D01*
X3555050D01*
X12459490Y3514250D02*
G75*
G02*
X12069010I-195240J0D01*
G01*
G75*
G02*
X12459490I195240J0D01*
G01*
X11378020Y3934723D02*
Y3954510D01*
X11363500D01*
G75*
G02*
X11323260Y3994750I0J40240D01*
G01*
Y4084750D01*
G75*
G02*
X11363500Y4124990I40240J0D01*
G01*
X11503500D01*
G75*
G02*
X11543740Y4084750I0J-40240D01*
G01*
Y3994750D01*
G75*
G02*
X11503500Y3954510I-40240J0D01*
G01*
X11488980D01*
Y3953561D01*
G75*
G02*
X11577285Y3886157I-33979J-136061D01*
G01*
G75*
G02*
X11850000Y3817500I127715J-68657D01*
G01*
G75*
G02*
X11577285Y3748843I-145000J0D01*
G01*
G75*
G02*
X11314760Y3817500I-122285J68657D01*
G01*
G75*
G02*
X11378020Y3934723I140240J0D01*
G01*
X10362020D02*
Y3954510D01*
X10347500D01*
G75*
G02*
X10307260Y3994750I0J40240D01*
G01*
Y4084750D01*
G75*
G02*
X10347500Y4124990I40240J0D01*
G01*
X10487500D01*
G75*
G02*
X10527740Y4084750I0J-40240D01*
G01*
Y3994750D01*
G75*
G02*
X10487500Y3954510I-40240J0D01*
G01*
X10472980D01*
Y3953561D01*
G75*
G02*
X10561285Y3886157I-33979J-136061D01*
G01*
G75*
G02*
X10834000Y3817500I127715J-68657D01*
G01*
G75*
G02*
X10561285Y3748843I-145000J0D01*
G01*
G75*
G02*
X10298760Y3817500I-122285J68657D01*
G01*
G75*
G02*
X10362020Y3934723I140240J0D01*
G01*
X9291260Y4084750D02*
G75*
G02*
X9331500Y4124990I40240J0D01*
G01*
X9471500D01*
G75*
G02*
X9511740Y4084750I0J-40240D01*
G01*
Y3994750D01*
G75*
G02*
X9471500Y3954510I-40240J0D01*
G01*
X9456980D01*
Y3953561D01*
G75*
G02*
X9545285Y3886157I-33979J-136061D01*
G01*
G75*
G02*
X9818000Y3817500I127715J-68657D01*
G01*
G75*
G02*
X9545285Y3748843I-145000J0D01*
G01*
G75*
G02*
X9282760Y3817500I-122285J68657D01*
G01*
G75*
G02*
X9346020Y3934723I140240J0D01*
G01*
Y3954510D01*
X9331500D01*
G75*
G02*
X9291260Y3994750I0J40240D01*
G01*
Y4084750D01*
X8330020Y3934723D02*
Y3954510D01*
X8315500D01*
G75*
G02*
X8275260Y3994750I0J40240D01*
G01*
Y4084750D01*
G75*
G02*
X8315500Y4124990I40240J0D01*
G01*
X8455500D01*
G75*
G02*
X8495740Y4084750I0J-40240D01*
G01*
Y3994750D01*
G75*
G02*
X8455500Y3954510I-40240J0D01*
G01*
X8440980D01*
Y3953561D01*
G75*
G02*
X8529285Y3886157I-33979J-136061D01*
G01*
G75*
G02*
X8802000Y3817500I127715J-68657D01*
G01*
G75*
G02*
X8529285Y3748843I-145000J0D01*
G01*
G75*
G02*
X8266760Y3817500I-122285J68657D01*
G01*
G75*
G02*
X8330020Y3934723I140240J0D01*
G01*
X7361250Y3954548D02*
G75*
G02*
X7322760Y3994750I1750J40202D01*
G01*
Y4084750D01*
G75*
G02*
X7363000Y4124990I40240J0D01*
G01*
X7503000D01*
G75*
G02*
X7543240Y4084750I0J-40240D01*
G01*
Y3994750D01*
G75*
G02*
X7503000Y3954510I-40240J0D01*
G01*
X7488480D01*
Y3918321D01*
G75*
G02*
X7513285Y3886157I-97479J-100823D01*
G01*
G75*
G02*
X7786000Y3817500I127715J-68657D01*
G01*
G75*
G02*
X7513285Y3748843I-145000J0D01*
G01*
G75*
G02*
X7250760Y3817500I-122285J68657D01*
G01*
G75*
G02*
X7361250Y3954548I140240J0D01*
G01*
X6345250D02*
G75*
G02*
X6306760Y3994750I1750J40202D01*
G01*
Y4084750D01*
G75*
G02*
X6347000Y4124990I40240J0D01*
G01*
X6487000D01*
G75*
G02*
X6527240Y4084750I0J-40240D01*
G01*
Y3994750D01*
G75*
G02*
X6487000Y3954510I-40240J0D01*
G01*
X6472480D01*
Y3918321D01*
G75*
G02*
X6497285Y3886157I-97479J-100823D01*
G01*
G75*
G02*
X6770000Y3817500I127715J-68657D01*
G01*
G75*
G02*
X6497285Y3748843I-145000J0D01*
G01*
G75*
G02*
X6234760Y3817500I-122285J68657D01*
G01*
G75*
G02*
X6345250Y3954548I140240J0D01*
G01*
X5329250D02*
G75*
G02*
X5290760Y3994750I1750J40202D01*
G01*
Y4084750D01*
G75*
G02*
X5331000Y4124990I40240J0D01*
G01*
X5471000D01*
G75*
G02*
X5511240Y4084750I0J-40240D01*
G01*
Y3994750D01*
G75*
G02*
X5471000Y3954510I-40240J0D01*
G01*
X5456480D01*
Y3918321D01*
G75*
G02*
X5481285Y3886157I-97479J-100823D01*
G01*
G75*
G02*
X5754000Y3817500I127715J-68657D01*
G01*
G75*
G02*
X5481285Y3748843I-145000J0D01*
G01*
G75*
G02*
X5218760Y3817500I-122285J68657D01*
G01*
G75*
G02*
X5329250Y3954548I140240J0D01*
G01*
X5290760Y4656250D02*
G75*
G02*
X5329010Y4696441I40240J0D01*
G01*
Y4748125D01*
G75*
G02*
X5325760Y4770000I71990J21875D01*
G01*
G75*
G02*
X5476240I75240J0D01*
G01*
G75*
G02*
X5472990Y4748125I-75240J0D01*
G01*
Y4696441D01*
G75*
G02*
X5511240Y4656250I-1990J-40191D01*
G01*
Y4566250D01*
G75*
G02*
X5471000Y4526010I-40240J0D01*
G01*
X5331000D01*
G75*
G02*
X5290760Y4566250I0J40240D01*
G01*
Y4656250D01*
X6993750Y6364000D02*
G75*
G02*
X7038750Y6409000I45000J0D01*
G01*
X7128750D01*
G75*
G02*
X7173750Y6364000I0J-45000D01*
G01*
Y6224000D01*
G75*
G02*
X7128750Y6179000I-45000J0D01*
G01*
X7038750D01*
G75*
G02*
X6993750Y6224000I0J45000D01*
G01*
Y6364000D01*
X4313250Y3954548D02*
G75*
G02*
X4274760Y3994750I1750J40202D01*
G01*
Y4084750D01*
G75*
G02*
X4315000Y4124990I40240J0D01*
G01*
X4455000D01*
G75*
G02*
X4495240Y4084750I0J-40240D01*
G01*
Y3994750D01*
G75*
G02*
X4455000Y3954510I-40240J0D01*
G01*
X4440480D01*
Y3918321D01*
G75*
G02*
X4465285Y3886157I-97479J-100823D01*
G01*
G75*
G02*
X4738000Y3817500I127715J-68657D01*
G01*
G75*
G02*
X4465285Y3748843I-145000J0D01*
G01*
G75*
G02*
X4202760Y3817500I-122285J68657D01*
G01*
G75*
G02*
X4313250Y3954548I140240J0D01*
G01*
X4274760Y4656250D02*
G75*
G02*
X4313010Y4696441I40240J0D01*
G01*
Y4748125D01*
G75*
G02*
X4309760Y4770000I71990J21875D01*
G01*
G75*
G02*
X4460240I75240J0D01*
G01*
G75*
G02*
X4456990Y4748125I-75240J0D01*
G01*
Y4696441D01*
G75*
G02*
X4495240Y4656250I-1990J-40191D01*
G01*
Y4566250D01*
G75*
G02*
X4455000Y4526010I-40240J0D01*
G01*
X4315000D01*
G75*
G02*
X4274760Y4566250I0J40240D01*
G01*
Y4656250D01*
X7996000Y10067000D02*
G75*
G02*
X8041000Y10112000I45000J0D01*
G01*
X8141000D01*
G75*
G02*
X8186000Y10067000I0J-45000D01*
G01*
Y9887000D01*
G75*
G02*
X8141000Y9842000I-45000J0D01*
G01*
X8041000D01*
G75*
G02*
X7996000Y9887000I0J45000D01*
G01*
Y10067000D01*
X7764500Y10687500D02*
G75*
G02*
X7474500I-145000J0D01*
G01*
G75*
G02*
X7764500I145000J0D01*
G01*
X7374750Y7443500D02*
G75*
G02*
X7419750Y7488500I45000J0D01*
G01*
X7509750D01*
G75*
G02*
X7554750Y7443500I0J-45000D01*
G01*
Y7303500D01*
G75*
G02*
X7509750Y7258500I-45000J0D01*
G01*
X7419750D01*
G75*
G02*
X7374750Y7303500I0J45000D01*
G01*
Y7443500D01*
X8631500Y10829500D02*
G75*
G02*
X8676500Y10874500I45000J0D01*
G01*
X8856500D01*
G75*
G02*
X8901500Y10829500I0J-45000D01*
G01*
Y10729500D01*
G75*
G02*
X8856500Y10684500I-45000J0D01*
G01*
X8676500D01*
G75*
G02*
X8631500Y10729500I0J45000D01*
G01*
Y10829500D01*
X9390075Y10231000D02*
G75*
G02*
X9147675I-121200J0D01*
G01*
G75*
G02*
X9390075I121200J0D01*
G01*
X9623440Y10612000D02*
G75*
G02*
X9390560I-116440J0D01*
G01*
G75*
G02*
X9623440I116440J0D01*
G01*
X9639315Y10231000D02*
G75*
G02*
X9583980Y10131882I-116440J0D01*
G01*
Y10030490D01*
X9598500D01*
G75*
G02*
X9638740Y9990250I0J-40240D01*
G01*
Y9900250D01*
G75*
G02*
X9598500Y9860010I-40240J0D01*
G01*
X9458500D01*
G75*
G02*
X9418260Y9900250I0J40240D01*
G01*
Y9990250D01*
G75*
G02*
X9458500Y10030490I40240J0D01*
G01*
X9473020D01*
Y10125773D01*
G75*
G02*
X9406435Y10231000I49855J105227D01*
G01*
G75*
G02*
X9639315I116440J0D01*
G01*
X9907740Y8199000D02*
G75*
G02*
X9657260I-125240J0D01*
G01*
G75*
G02*
X9907740I125240J0D01*
G01*
Y8961000D02*
G75*
G02*
X9657260I-125240J0D01*
G01*
G75*
G02*
X9907740I125240J0D01*
G01*
Y10675500D02*
G75*
G02*
X9657260I-125240J0D01*
G01*
G75*
G02*
X9907740I125240J0D01*
G01*
X9893315Y10231000D02*
G75*
G02*
X9660435I-116440J0D01*
G01*
G75*
G02*
X9893315I116440J0D01*
G01*
X9575815Y7754500D02*
G75*
G02*
X9520480Y7655382I-116440J0D01*
G01*
Y7553990D01*
X9535000D01*
G75*
G02*
X9575240Y7513750I0J-40240D01*
G01*
Y7423750D01*
G75*
G02*
X9535000Y7383510I-40240J0D01*
G01*
X9395000D01*
G75*
G02*
X9354760Y7423750I0J40240D01*
G01*
Y7513750D01*
G75*
G02*
X9395000Y7553990I40240J0D01*
G01*
X9409520D01*
Y7649273D01*
G75*
G02*
X9342935Y7754500I49855J105227D01*
G01*
G75*
G02*
X9575815I116440J0D01*
G01*
X9623440Y8135500D02*
G75*
G02*
X9390560I-116440J0D01*
G01*
G75*
G02*
X9623440I116440J0D01*
G01*
X9829815Y7754500D02*
G75*
G02*
X9596935I-116440J0D01*
G01*
G75*
G02*
X9829815I116440J0D01*
G01*
X9877440Y5278000D02*
G75*
G02*
X9644560I-116440J0D01*
G01*
G75*
G02*
X9877440I116440J0D01*
G01*
X9907740Y5722500D02*
G75*
G02*
X9657260I-125240J0D01*
G01*
G75*
G02*
X9907740I125240J0D01*
G01*
Y6484500D02*
G75*
G02*
X9657260I-125240J0D01*
G01*
G75*
G02*
X9907740I125240J0D01*
G01*
X9623440Y9024500D02*
G75*
G02*
X9390560I-116440J0D01*
G01*
G75*
G02*
X9623440I116440J0D01*
G01*
X9221010Y5665500D02*
G75*
G02*
X9261250Y5705740I40240J0D01*
G01*
X9351250D01*
G75*
G02*
X9391151Y5670714I0J-40240D01*
G01*
G75*
G02*
X9623440Y5659000I115849J-11714D01*
G01*
G75*
G02*
X9391490Y5644313I-116440J0D01*
G01*
Y5525500D01*
G75*
G02*
X9372272Y5491188I-40240J0D01*
G01*
X9473841Y5389619D01*
G75*
G02*
X9623440Y5278000I33159J-111619D01*
G01*
G75*
G02*
X9390560I-116440J0D01*
G01*
G75*
G02*
X9395381Y5311159I116440J1D01*
G01*
X9267169Y5439371D01*
G75*
G02*
X9250770Y5478750I39081J39379D01*
G01*
Y5486649D01*
G75*
G02*
X9221010Y5525500I10480J38851D01*
G01*
Y5665500D01*
X9623440Y6548000D02*
G75*
G02*
X9390560I-116440J0D01*
G01*
G75*
G02*
X9623440I116440J0D01*
G01*
X9374200Y5278000D02*
G75*
G02*
X9131800I-121200J0D01*
G01*
G75*
G02*
X9374200I121200J0D01*
G01*
X8207000Y5227750D02*
G75*
G02*
X8252000Y5272750I45000J0D01*
G01*
X8392000D01*
G75*
G02*
X8437000Y5227750I0J-45000D01*
G01*
Y5137750D01*
G75*
G02*
X8392000Y5092750I-45000J0D01*
G01*
X8252000D01*
G75*
G02*
X8207000Y5137750I0J45000D01*
G01*
Y5227750D01*
X9390075Y12707500D02*
G75*
G02*
X9147675I-121200J0D01*
G01*
G75*
G02*
X9390075I121200J0D01*
G01*
X9639315D02*
G75*
G02*
X9583980Y12608382I-116440J0D01*
G01*
Y12506990D01*
X9598500D01*
G75*
G02*
X9638740Y12466750I0J-40240D01*
G01*
Y12376750D01*
G75*
G02*
X9598500Y12336510I-40240J0D01*
G01*
X9458500D01*
G75*
G02*
X9418260Y12376750I0J40240D01*
G01*
Y12466750D01*
G75*
G02*
X9458500Y12506990I40240J0D01*
G01*
X9473020D01*
Y12602273D01*
G75*
G02*
X9406435Y12707500I49855J105227D01*
G01*
G75*
G02*
X9639315I116440J0D01*
G01*
X9893315D02*
G75*
G02*
X9660435I-116440J0D01*
G01*
G75*
G02*
X9893315I116440J0D01*
G01*
X3959490Y3514250D02*
G75*
G02*
X3569010I-195240J0D01*
G01*
G75*
G02*
X3959490I195240J0D01*
G01*
X4403000Y9280000D02*
G75*
G02*
X4113000I-145000J0D01*
G01*
G75*
G02*
X4403000I145000J0D01*
G01*
X4386799Y8635480D02*
X4649010D01*
Y8650000D01*
G75*
G02*
X4689250Y8690240I40240J0D01*
G01*
X4779250D01*
G75*
G02*
X4819490Y8650000I0J-40240D01*
G01*
Y8510000D01*
G75*
G02*
X4813432Y8488767I-40240J0D01*
G01*
G75*
G02*
X4824250Y8459500I-34182J-29268D01*
G01*
Y8319500D01*
G75*
G02*
X4779250Y8274500I-45000J0D01*
G01*
X4689250D01*
G75*
G02*
X4644250Y8319500I0J45000D01*
G01*
Y8459500D01*
G75*
G02*
X4655068Y8488767I45000J-1D01*
G01*
G75*
G02*
X4649010Y8510000I34182J21233D01*
G01*
Y8524520D01*
X4386799D01*
G75*
G02*
X4117760Y8580000I-128799J55480D01*
G01*
G75*
G02*
X4386799Y8635480I140240J0D01*
G01*
X4782760Y8021750D02*
G75*
G02*
X4823000Y8061990I40240J0D01*
G01*
X4832440D01*
Y8151375D01*
G75*
G02*
X4850360Y8194379I60560J0D01*
G01*
X4864190Y8208209D01*
Y8282390D01*
G75*
G02*
X4839510Y8319500I15560J37110D01*
G01*
Y8459500D01*
G75*
G02*
X4848418Y8484750I40240J0D01*
G01*
G75*
G02*
X4839510Y8510000I31332J25250D01*
G01*
Y8650000D01*
G75*
G02*
X4879750Y8690240I40240J0D01*
G01*
X4969750D01*
G75*
G02*
X5009990Y8650000I0J-40240D01*
G01*
Y8640560D01*
X5054726D01*
G75*
G02*
X5174615Y8580000I44649J-60560D01*
G01*
G75*
G02*
X5054726Y8519440I-75240J0D01*
G01*
X5009990D01*
Y8510000D01*
G75*
G02*
X5001082Y8484750I-40240J0D01*
G01*
G75*
G02*
X5009990Y8459500I-31332J-25250D01*
G01*
Y8319500D01*
G75*
G02*
X4985310Y8282390I-40240J0D01*
G01*
Y8183125D01*
G75*
G02*
X4967390Y8140121I-60560J0D01*
G01*
X4953560Y8126291D01*
Y8061990D01*
X4963000D01*
G75*
G02*
X5003240Y8021750I0J-40240D01*
G01*
Y7931750D01*
G75*
G02*
X4963000Y7891510I-40240J0D01*
G01*
X4823000D01*
G75*
G02*
X4782760Y7931750I0J40240D01*
G01*
Y8021750D01*
X4396344Y8952980D02*
X4649010D01*
Y8967500D01*
G75*
G02*
X4689250Y9007740I40240J0D01*
G01*
X4779250D01*
G75*
G02*
X4819490Y8967500I0J-40240D01*
G01*
Y8827500D01*
G75*
G02*
X4779250Y8787260I-40240J0D01*
G01*
X4689250D01*
G75*
G02*
X4649010Y8827500I0J40240D01*
G01*
Y8842020D01*
X4367210D01*
G75*
G02*
X4117760Y8930000I-109210J87980D01*
G01*
G75*
G02*
X4396344Y8952980I140240J0D01*
G01*
X5091520Y10279781D02*
Y10304510D01*
X5077000D01*
G75*
G02*
X5036760Y10344750I0J40240D01*
G01*
Y10434750D01*
G75*
G02*
X5077000Y10474990I40240J0D01*
G01*
X5217000D01*
G75*
G02*
X5257240Y10434750I0J-40240D01*
G01*
Y10344750D01*
G75*
G02*
X5217000Y10304510I-40240J0D01*
G01*
X5202480D01*
Y10279781D01*
G75*
G02*
X5272240Y10167500I-55480J-112281D01*
G01*
G75*
G02*
X5021760I-125240J0D01*
G01*
G75*
G02*
X5091520Y10279781I125240J0D01*
G01*
X5032000Y10625250D02*
G75*
G02*
X5077000Y10670250I45000J0D01*
G01*
X5217000D01*
G75*
G02*
X5262000Y10625250I0J-45000D01*
G01*
Y10535250D01*
G75*
G02*
X5217000Y10490250I-45000J0D01*
G01*
X5077000D01*
G75*
G02*
X5032000Y10535250I0J45000D01*
G01*
Y10625250D01*
X5843740Y9913500D02*
G75*
G02*
X5773980Y9801219I-125240J0D01*
G01*
Y9776490D01*
X5788500D01*
G75*
G02*
X5828740Y9736250I0J-40240D01*
G01*
Y9646250D01*
G75*
G02*
X5788500Y9606010I-40240J0D01*
G01*
X5648500D01*
G75*
G02*
X5608260Y9646250I0J40240D01*
G01*
Y9736250D01*
G75*
G02*
X5648500Y9776490I40240J0D01*
G01*
X5663020D01*
Y9801219D01*
G75*
G02*
X5593260Y9913500I55480J112281D01*
G01*
G75*
G02*
X5843740I125240J0D01*
G01*
X5603500Y9545750D02*
G75*
G02*
X5648500Y9590750I45000J0D01*
G01*
X5788500D01*
G75*
G02*
X5833500Y9545750I0J-45000D01*
G01*
Y9455750D01*
G75*
G02*
X5788500Y9410750I-45000J0D01*
G01*
X5648500D01*
G75*
G02*
X5603500Y9455750I0J45000D01*
G01*
Y9545750D01*
X5843740Y10167500D02*
G75*
G02*
X5593260I-125240J0D01*
G01*
G75*
G02*
X5843740I125240J0D01*
G01*
X6746500Y9863250D02*
G75*
G02*
X6791500Y9908250I45000J0D01*
G01*
X6931500D01*
G75*
G02*
X6976500Y9863250I0J-45000D01*
G01*
Y9773250D01*
G75*
G02*
X6931500Y9728250I-45000J0D01*
G01*
X6791500D01*
G75*
G02*
X6746500Y9773250I0J45000D01*
G01*
Y9863250D01*
X3555050Y7754500D02*
G36*
X3555050Y7754500D02*
Y7627225D01*
X4244276D01*
G75*
G02*
X4252843Y7632215I77221J-122727D01*
G01*
G75*
G02*
X4181260Y7754500I68657J122285D01*
G01*
X3555050D01*
G37*
Y7627225D02*
G36*
X3555050Y7627225D02*
Y7373500D01*
X4259339D01*
G75*
G02*
X4176500Y7504500I62161J131000D01*
G01*
G75*
G02*
X4244276Y7627225I145000J0D01*
G01*
X3555050D01*
G37*
X4457309Y3898745D02*
G36*
X4457309Y3898745D02*
G75*
G02*
X4465285Y3886157I-114307J-81248D01*
G01*
G75*
G02*
X4472899Y3898745I127717J-68654D01*
G01*
X4457309D01*
G37*
X4394770Y8961000D02*
G36*
X4394770Y8961000D02*
G75*
G02*
X4396344Y8952980I-136769J-31007D01*
G01*
X4649010D01*
Y8961000D01*
X4394770D01*
G37*
X4371312Y8497370D02*
G36*
X4371312Y8497370D02*
X4651044D01*
G75*
G02*
X4649010Y8510000I38206J12632D01*
G01*
Y8524520D01*
X4386799D01*
G75*
G02*
X4371312Y8497370I-128800J55478D01*
G01*
G37*
X3555050D02*
G36*
X3555050Y8497370D02*
Y8199000D01*
X4854981D01*
X4864190Y8208209D01*
Y8282390D01*
G75*
G02*
X4839510Y8319500I15560J37110D01*
G01*
Y8459500D01*
G75*
G02*
X4848418Y8484750I40240J0D01*
G01*
G75*
G02*
X4841543Y8497370I31331J25251D01*
G01*
X4817456D01*
G75*
G02*
X4813432Y8488767I-38207J12628D01*
G01*
G75*
G02*
X4824250Y8459500I-34182J-29268D01*
G01*
Y8319500D01*
G75*
G02*
X4779250Y8274500I-45000J0D01*
G01*
X4689250D01*
G75*
G02*
X4644250Y8319500I0J45000D01*
G01*
Y8459500D01*
G75*
G02*
X4655068Y8488767I45000J-1D01*
G01*
G75*
G02*
X4651044Y8497370I34183J21231D01*
G01*
X4371312D01*
G75*
G02*
X4144688I-113312J82630D01*
G01*
X3555050D01*
G37*
Y9977000D02*
G36*
X3555050Y9977000D02*
Y9818250D01*
X5065683D01*
G75*
G02*
X5021760Y9913500I81317J95250D01*
G01*
G75*
G02*
X5039052Y9977000I125240J0D01*
G01*
X3555050D01*
G37*
Y9818250D02*
G36*
X3555050Y9818250D02*
Y9500750D01*
X5227290D01*
X5107919Y9620121D01*
G75*
G02*
X5091520Y9659500I39081J39379D01*
G01*
Y9801219D01*
G75*
G02*
X5065683Y9818250I55480J112281D01*
G01*
X3555050D01*
G37*
Y9500750D02*
G36*
X3555050Y9500750D02*
Y9280000D01*
X4113000D01*
G75*
G02*
X4403000I145000J0D01*
G01*
X5448040D01*
X5227290Y9500750D01*
X3555050D01*
G37*
X5473309Y3898745D02*
G36*
X5473309Y3898745D02*
G75*
G02*
X5481285Y3886157I-114307J-81248D01*
G01*
G75*
G02*
X5488899Y3898745I127717J-68654D01*
G01*
X5473309D01*
G37*
X5228317Y9818250D02*
G36*
X5228317Y9818250D02*
X5637183D01*
G75*
G02*
X5593260Y9913500I81317J95250D01*
G01*
G75*
G02*
X5610552Y9977000I125240J0D01*
G01*
X5254948D01*
G75*
G02*
X5272240Y9913500I-107948J-63500D01*
G01*
G75*
G02*
X5228317Y9818250I-125240J0D01*
G01*
G37*
X3555050Y9280000D02*
G36*
X3555050Y9280000D02*
Y8961000D01*
X4121229D01*
G75*
G02*
X4394770I136771J-31000D01*
G01*
X4649010D01*
Y8967500D01*
G75*
G02*
X4689250Y9007740I40240J0D01*
G01*
X4779250D01*
G75*
G02*
X4819490Y8967500I0J-40240D01*
G01*
Y8961000D01*
X4839510D01*
Y8967500D01*
G75*
G02*
X4879750Y9007740I40240J0D01*
G01*
X4969750D01*
G75*
G02*
X5009990Y8967500I0J-40240D01*
G01*
Y8961000D01*
X5767040D01*
X5448040Y9280000D01*
X4403000D01*
G75*
G02*
X4113000I-145000J0D01*
G01*
X3555050D01*
G37*
Y8199000D02*
G36*
X3555050Y8199000D02*
Y7754500D01*
X4181260D01*
G75*
G02*
X4431310Y7841730I140240J0D01*
G01*
X4784149D01*
G75*
G02*
X4823000Y7871490I38851J-10480D01*
G01*
X4963000D01*
G75*
G02*
X5001851Y7841730I0J-40240D01*
G01*
X5727270D01*
X6084540Y8199000D01*
X4985310D01*
Y8183125D01*
G75*
G02*
X4967390Y8140121I-60560J0D01*
G01*
X4953560Y8126291D01*
Y8061990D01*
X4963000D01*
G75*
G02*
X5003240Y8021750I0J-40240D01*
G01*
Y7931750D01*
G75*
G02*
X4963000Y7891510I-40240J0D01*
G01*
X4823000D01*
G75*
G02*
X4782760Y7931750I0J40240D01*
G01*
Y8021750D01*
G75*
G02*
X4823000Y8061990I40240J0D01*
G01*
X4832440D01*
Y8151375D01*
G75*
G02*
X4850360Y8194379I60560J0D01*
G01*
X4854981Y8199000D01*
X3555050D01*
G37*
X4985310Y8282390D02*
G36*
X4985310Y8282390D02*
Y8199000D01*
X6084540D01*
X6382910Y8497370D01*
X5007957D01*
G75*
G02*
X5001082Y8484750I-38206J12631D01*
G01*
G75*
G02*
X5009990Y8459500I-31332J-25250D01*
G01*
Y8319500D01*
G75*
G02*
X4985310Y8282390I-40240J0D01*
G01*
G37*
X5009990Y8961000D02*
G36*
X5009990Y8961000D02*
Y8952980D01*
X5607375D01*
G75*
G02*
X5646754Y8936581I0J-55480D01*
G01*
X5693855Y8889480D01*
X6415201D01*
G75*
G02*
X6423368Y8905520I128799J-55481D01*
G01*
X5845500D01*
G75*
G02*
X5806121Y8921919I0J55480D01*
G01*
X5767040Y8961000D01*
X5009990D01*
G37*
X3555050Y5278000D02*
G36*
X3555050Y5278000D02*
Y5182750D01*
X6441069D01*
G75*
G02*
X6403760Y5278000I102931J95250D01*
G01*
X3555050D01*
G37*
Y6484500D02*
G36*
X3555050Y6484500D02*
Y6294000D01*
X6403760D01*
G75*
G02*
X6479116Y6418327I140240J0D01*
G01*
G75*
G02*
X6413644Y6484500I64884J129673D01*
G01*
X3555050D01*
G37*
X5799817Y9818250D02*
G36*
X5799817Y9818250D02*
X6407401D01*
G75*
G02*
X6403760Y9850000I136599J31749D01*
G01*
G75*
G02*
X6484517Y9977000I140240J0D01*
G01*
X5826448D01*
G75*
G02*
X5843740Y9913500I-107948J-63500D01*
G01*
G75*
G02*
X5799817Y9818250I-125240J0D01*
G01*
G37*
X3555050Y5722500D02*
G36*
X3555050Y5722500D02*
Y5278000D01*
X6403760D01*
G75*
G02*
X6484517Y5405000I140240J0D01*
G01*
G75*
G02*
X6403760Y5532000I59483J127000D01*
G01*
G75*
G02*
X6484517Y5659000I140240J0D01*
G01*
G75*
G02*
X6418960Y5722500I59483J127000D01*
G01*
X3555050D01*
G37*
Y6294000D02*
G36*
X3555050Y6294000D02*
Y5722500D01*
X6418960D01*
G75*
G02*
X6403760Y5786000I125040J63500D01*
G01*
G75*
G02*
X6484517Y5913000I140240J0D01*
G01*
G75*
G02*
X6403760Y6040000I59483J127000D01*
G01*
G75*
G02*
X6484517Y6167000I140240J0D01*
G01*
G75*
G02*
X6403760Y6294000I59483J127000D01*
G01*
X3555050D01*
G37*
Y7373500D02*
G36*
X3555050Y7373500D02*
Y6484500D01*
X6413644D01*
G75*
G02*
X6399000Y6548000I130356J63500D01*
G01*
G75*
G02*
X6479116Y6677673I145000J0D01*
G01*
G75*
G02*
X6403760Y6802000I64884J124327D01*
G01*
G75*
G02*
X6484517Y6929000I140240J0D01*
G01*
G75*
G02*
X6403760Y7056000I59483J127000D01*
G01*
G75*
G02*
X6484517Y7183000I140240J0D01*
G01*
G75*
G02*
X6403760Y7310000I59483J127000D01*
G01*
G75*
G02*
X6418960Y7373500I140240J0D01*
G01*
X4383661D01*
G75*
G02*
X4259339I-62161J131000D01*
G01*
X3555050D01*
G37*
X4383661D02*
G36*
X4383661Y7373500D02*
X6418960D01*
G75*
G02*
X6484517Y7437000I125040J-63500D01*
G01*
G75*
G02*
X6403760Y7564000I59483J127000D01*
G01*
G75*
G02*
X6418821Y7627225I140240J-1D01*
G01*
X4398724D01*
G75*
G02*
X4466500Y7504500I-77224J-122725D01*
G01*
G75*
G02*
X4383661Y7373500I-145000J0D01*
G01*
G37*
X4390157Y7632215D02*
G36*
X4390157Y7632215D02*
G75*
G02*
X4398724Y7627225I-68654J-127717D01*
G01*
X6418821D01*
G75*
G02*
X6484517Y7691000I125179J-63225D01*
G01*
G75*
G02*
X6418960Y7754500I59483J127000D01*
G01*
X5796960D01*
X5789629Y7747169D01*
G75*
G02*
X5750250Y7730770I-39379J39081D01*
G01*
X5001851D01*
G75*
G02*
X4963000Y7701010I-38851J10480D01*
G01*
X4823000D01*
G75*
G02*
X4784149Y7730770I0J40240D01*
G01*
X4459718D01*
G75*
G02*
X4390157Y7632215I-138218J23730D01*
G01*
G37*
X5796960Y7754500D02*
G36*
X5796960Y7754500D02*
X6418960D01*
G75*
G02*
X6403760Y7818000I125040J63500D01*
G01*
G75*
G02*
X6484517Y7945000I140240J0D01*
G01*
G75*
G02*
X6403760Y8072000I59483J127000D01*
G01*
G75*
G02*
X6484517Y8199000I140240J0D01*
G01*
X6241460D01*
X5796960Y7754500D01*
G37*
X6241460Y8199000D02*
G36*
X6241460Y8199000D02*
X6484517D01*
G75*
G02*
X6403760Y8326000I59483J127000D01*
G01*
G75*
G02*
X6410077Y8367617I140240J1D01*
G01*
X6241460Y8199000D01*
G37*
X3555050Y8961000D02*
G36*
X3555050Y8961000D02*
Y8497370D01*
X4144688D01*
G75*
G02*
X4117760Y8580000I113312J82630D01*
G01*
G75*
G02*
X4386799Y8635480I140240J0D01*
G01*
X4649010D01*
Y8650000D01*
G75*
G02*
X4689250Y8690240I40240J0D01*
G01*
X4779250D01*
G75*
G02*
X4819490Y8650000I0J-40240D01*
G01*
Y8510000D01*
G75*
G02*
X4817456Y8497370I-40240J2D01*
G01*
X4841543D01*
G75*
G02*
X4839510Y8510000I38207J12629D01*
G01*
Y8650000D01*
G75*
G02*
X4879750Y8690240I40240J0D01*
G01*
X4969750D01*
G75*
G02*
X5009990Y8650000I0J-40240D01*
G01*
Y8640560D01*
X5054726D01*
G75*
G02*
X5174615Y8580000I44649J-60560D01*
G01*
G75*
G02*
X5054726Y8519440I-75240J0D01*
G01*
X5009990D01*
Y8510000D01*
G75*
G02*
X5007957Y8497370I-40240J-1D01*
G01*
X6382910D01*
X6413695Y8528155D01*
G75*
G02*
X6403760Y8580000I130305J51845D01*
G01*
G75*
G02*
X6484517Y8707000I140240J0D01*
G01*
G75*
G02*
X6415201Y8778520I59483J127000D01*
G01*
X5670875D01*
G75*
G02*
X5631496Y8794919I0J55480D01*
G01*
X5584395Y8842020D01*
X5009990D01*
Y8827500D01*
G75*
G02*
X4969750Y8787260I-40240J0D01*
G01*
X4879750D01*
G75*
G02*
X4839510Y8827500I0J40240D01*
G01*
Y8961000D01*
X4819490D01*
Y8827500D01*
G75*
G02*
X4779250Y8787260I-40240J0D01*
G01*
X4689250D01*
G75*
G02*
X4649010Y8827500I0J40240D01*
G01*
Y8842020D01*
X4367210D01*
G75*
G02*
X4117760Y8930000I-109210J87980D01*
G01*
G75*
G02*
X4121229Y8961000I140240J1D01*
G01*
X3555050D01*
G37*
X5604960Y9280000D02*
G36*
X5604960Y9280000D02*
X5868480Y9016480D01*
X6423368D01*
G75*
G02*
X6403760Y9088000I120632J71520D01*
G01*
G75*
G02*
X6484517Y9215000I140240J0D01*
G01*
G75*
G02*
X6418210Y9280000I59483J127000D01*
G01*
X5604960D01*
G37*
X5384210Y9500750D02*
G36*
X5384210Y9500750D02*
X5604960Y9280000D01*
X6418210D01*
G75*
G02*
X6403760Y9342000I125790J62001D01*
G01*
G75*
G02*
X6484517Y9469000I140240J0D01*
G01*
G75*
G02*
X6441070Y9500750I59484J127000D01*
G01*
X5833500D01*
Y9455750D01*
G75*
G02*
X5788500Y9410750I-45000J0D01*
G01*
X5648500D01*
G75*
G02*
X5603500Y9455750I0J45000D01*
G01*
Y9500750D01*
X5384210D01*
G37*
X5202480Y9801219D02*
G36*
X5202480Y9801219D02*
Y9682480D01*
X5384210Y9500750D01*
X5603500D01*
Y9545750D01*
G75*
G02*
X5648500Y9590750I45000J0D01*
G01*
X5788500D01*
G75*
G02*
X5833500Y9545750I0J-45000D01*
G01*
Y9500750D01*
X6441070D01*
G75*
G02*
X6403760Y9596000I102930J95250D01*
G01*
G75*
G02*
X6484517Y9723000I140240J0D01*
G01*
G75*
G02*
X6407401Y9818250I59483J127000D01*
G01*
X5799817D01*
G75*
G02*
X5773980Y9801219I-81317J95250D01*
G01*
Y9776490D01*
X5788500D01*
G75*
G02*
X5828740Y9736250I0J-40240D01*
G01*
Y9646250D01*
G75*
G02*
X5788500Y9606010I-40240J0D01*
G01*
X5648500D01*
G75*
G02*
X5608260Y9646250I0J40240D01*
G01*
Y9736250D01*
G75*
G02*
X5648500Y9776490I40240J0D01*
G01*
X5663020D01*
Y9801219D01*
G75*
G02*
X5637183Y9818250I55480J112281D01*
G01*
X5228317D01*
G75*
G02*
X5202480Y9801219I-81317J95250D01*
G01*
G37*
X6489309Y3898745D02*
G36*
X6489309Y3898745D02*
G75*
G02*
X6497285Y3886157I-114307J-81248D01*
G01*
G75*
G02*
X6504899Y3898745I127717J-68654D01*
G01*
X6489309D01*
G37*
X6608884Y6418327D02*
G36*
X6608884Y6418327D02*
G75*
G02*
X6684240Y6294000I-64884J-124327D01*
G01*
X6726010D01*
Y6484500D01*
X6674356D01*
G75*
G02*
X6608884Y6418327I-130356J63500D01*
G01*
G37*
X6603483Y7183000D02*
G36*
X6603483Y7183000D02*
G75*
G02*
X6684240Y7056000I-59483J-127000D01*
G01*
G75*
G02*
X6603483Y6929000I-140240J0D01*
G01*
G75*
G02*
X6684240Y6802000I-59483J-127000D01*
G01*
G75*
G02*
X6608884Y6677673I-140240J0D01*
G01*
G75*
G02*
X6689000Y6548000I-64884J-129673D01*
G01*
G75*
G02*
X6674356Y6484500I-145000J0D01*
G01*
X6726010D01*
Y7373500D01*
X6669040D01*
G75*
G02*
X6684240Y7310000I-125040J-63500D01*
G01*
G75*
G02*
X6603483Y7183000I-140240J0D01*
G01*
G37*
Y7437000D02*
G36*
X6603483Y7437000D02*
G75*
G02*
X6669040Y7373500I-59483J-127000D01*
G01*
X6726010D01*
Y7627225D01*
X6669179D01*
G75*
G02*
X6684240Y7564000I-125179J-63226D01*
G01*
G75*
G02*
X6603483Y7437000I-140240J0D01*
G01*
G37*
Y7691000D02*
G36*
X6603483Y7691000D02*
G75*
G02*
X6669179Y7627225I-59483J-127000D01*
G01*
X6726010D01*
Y7754500D01*
X6669040D01*
G75*
G02*
X6603483Y7691000I-125040J63500D01*
G01*
G37*
Y8199000D02*
G36*
X6603483Y8199000D02*
G75*
G02*
X6684240Y8072000I-59483J-127000D01*
G01*
G75*
G02*
X6603483Y7945000I-140240J0D01*
G01*
G75*
G02*
X6684240Y7818000I-59483J-127000D01*
G01*
G75*
G02*
X6669040Y7754500I-140240J0D01*
G01*
X6726010D01*
Y8166971D01*
X6726009Y8167250D01*
G75*
G02*
X6733389Y8199000I71991J-1D01*
G01*
X6603483D01*
G37*
X3555050Y5182750D02*
G36*
X3555050Y5182750D02*
Y4685625D01*
X4287498D01*
G75*
G02*
X4313010Y4696441I27502J-29375D01*
G01*
Y4748125D01*
G75*
G02*
X4309760Y4770000I71990J21875D01*
G01*
G75*
G02*
X4460240I75240J0D01*
G01*
G75*
G02*
X4456990Y4748125I-75240J0D01*
G01*
Y4696441D01*
G75*
G02*
X4482502Y4685625I-1990J-40191D01*
G01*
X4761915D01*
X5139371Y5063081D01*
G75*
G02*
X5178750Y5079480I39379J-39081D01*
G01*
X6814760D01*
Y5164250D01*
G75*
G02*
X6819265Y5182750I40240J0D01*
G01*
X6646931D01*
G75*
G02*
X6441069I-102931J95250D01*
G01*
X3555050D01*
G37*
X6646931D02*
G36*
X6646931Y5182750D02*
X6819265D01*
G75*
G02*
X6837135Y5200307I35735J-18500D01*
G01*
Y5278000D01*
X6684240D01*
G75*
G02*
X6646931Y5182750I-140240J0D01*
G01*
G37*
X6646930Y9500750D02*
G36*
X6646930Y9500750D02*
X6886690D01*
X6844930Y9542510D01*
X6791500D01*
G75*
G02*
X6761514Y9555915I0J40240D01*
G01*
G75*
G02*
X6715345Y9576845I4737J71835D01*
G01*
X6683681Y9608509D01*
G75*
G02*
X6684240Y9596000I-139681J-12509D01*
G01*
G75*
G02*
X6646930Y9500750I-140240J0D01*
G01*
G37*
X6603483Y5659000D02*
G36*
X6603483Y5659000D02*
G75*
G02*
X6684240Y5532000I-59483J-127000D01*
G01*
G75*
G02*
X6603483Y5405000I-140240J0D01*
G01*
G75*
G02*
X6684240Y5278000I-59483J-127000D01*
G01*
X6837135D01*
Y5579346D01*
X6837134Y5579625D01*
G75*
G02*
X6858220Y5630530I71991J-1D01*
G01*
X6950190Y5722500D01*
X6669040D01*
G75*
G02*
X6603483Y5659000I-125040J63500D01*
G01*
G37*
Y8199000D02*
G36*
X6603483Y8199000D02*
X6733389D01*
G75*
G02*
X6747095Y8218155I64611J-31750D01*
G01*
X7026310Y8497370D01*
X6774009D01*
G75*
G02*
X6757706Y8461246I-55384J3254D01*
G01*
X6674305Y8377845D01*
G75*
G02*
X6684240Y8326000I-130305J-51845D01*
G01*
G75*
G02*
X6603483Y8199000I-140240J0D01*
G01*
G37*
X3555050Y10687500D02*
G36*
X3555050Y10687500D02*
Y10580250D01*
X5032000D01*
Y10625250D01*
G75*
G02*
X5077000Y10670250I45000J0D01*
G01*
X5217000D01*
G75*
G02*
X5262000Y10625250I0J-45000D01*
G01*
Y10580250D01*
X7029141D01*
G75*
G02*
X6979260Y10687500I90359J107250D01*
G01*
X3555050D01*
G37*
X6514502Y4685625D02*
G36*
X6514502Y4685625D02*
G75*
G02*
X6527240Y4656250I-27502J-29375D01*
G01*
Y4571480D01*
X6949645D01*
X7063790Y4685625D01*
X6514502D01*
G37*
X6869990Y7627225D02*
G36*
X6869990Y7627225D02*
Y7373500D01*
X7075260D01*
Y7627225D01*
X6869990D01*
G37*
Y7754500D02*
G36*
X6869990Y7754500D02*
Y7627225D01*
X7075260D01*
Y7704922D01*
Y7704970D01*
G75*
G02*
X7095007Y7754500I71990J0D01*
G01*
X6869990D01*
G37*
X6603483Y6167000D02*
G36*
X6603483Y6167000D02*
G75*
G02*
X6684240Y6040000I-59483J-127000D01*
G01*
G75*
G02*
X6603483Y5913000I-140240J0D01*
G01*
G75*
G02*
X6684240Y5786000I-59483J-127000D01*
G01*
G75*
G02*
X6669040Y5722500I-140240J0D01*
G01*
X6950190D01*
X7202260Y5974570D01*
Y6194154D01*
G75*
G02*
X7189010Y6224000I26990J29846D01*
G01*
Y6294000D01*
X7173750D01*
Y6224000D01*
G75*
G02*
X7128750Y6179000I-45000J0D01*
G01*
X7038750D01*
G75*
G02*
X6993750Y6224000I0J45000D01*
G01*
Y6294000D01*
X6869990D01*
Y6006320D01*
X6960439Y5915871D01*
G75*
G02*
X7000240Y5849500I-35439J-66371D01*
G01*
G75*
G02*
X6858629Y5814061I-75240J0D01*
G01*
X6747095Y5925595D01*
G75*
G02*
X6726009Y5976500I50905J50906D01*
G01*
X6726010Y5976779D01*
Y6294000D01*
X6684240D01*
G75*
G02*
X6603483Y6167000I-140240J0D01*
G01*
G37*
X4918835Y4685625D02*
G36*
X4918835Y4685625D02*
X5303498D01*
G75*
G02*
X5329010Y4696441I27502J-29375D01*
G01*
Y4748125D01*
G75*
G02*
X5325760Y4770000I71990J21875D01*
G01*
G75*
G02*
X5476240I75240J0D01*
G01*
G75*
G02*
X5472990Y4748125I-75240J0D01*
G01*
Y4696441D01*
G75*
G02*
X5498502Y4685625I-1990J-40191D01*
G01*
X6319498D01*
G75*
G02*
X6345010Y4696441I27502J-29375D01*
G01*
Y4748125D01*
G75*
G02*
X6341760Y4770000I71990J21875D01*
G01*
G75*
G02*
X6492240I75240J0D01*
G01*
G75*
G02*
X6488990Y4748125I-75240J0D01*
G01*
Y4696441D01*
G75*
G02*
X6514502Y4685625I-1990J-40191D01*
G01*
X7063790D01*
X7218706Y4840541D01*
G75*
G02*
X7178760Y4880780I294J40239D01*
G01*
Y4922800D01*
X7161220D01*
G75*
G02*
X7121841Y4939199I0J55480D01*
G01*
X7092520Y4968520D01*
X7035240D01*
Y4883750D01*
G75*
G02*
X6996990Y4843559I-40240J0D01*
G01*
Y4791875D01*
G75*
G02*
X7000240Y4770000I-71990J-21875D01*
G01*
G75*
G02*
X6849760I-75240J0D01*
G01*
G75*
G02*
X6853010Y4791875I75240J0D01*
G01*
Y4843559D01*
G75*
G02*
X6814760Y4883750I1990J40191D01*
G01*
Y4968520D01*
X5201730D01*
X4918835Y4685625D01*
G37*
X6869990Y6484500D02*
G36*
X6869990Y6484500D02*
Y6294000D01*
X6993750D01*
Y6364000D01*
G75*
G02*
X7038750Y6409000I45000J0D01*
G01*
X7128750D01*
G75*
G02*
X7173750Y6364000I0J-45000D01*
G01*
Y6294000D01*
X7189010D01*
Y6364000D01*
G75*
G02*
X7229250Y6404240I40240J0D01*
G01*
X7234010D01*
Y6484500D01*
X6869990D01*
G37*
X7331835Y4685625D02*
G36*
X7331835Y4685625D02*
X7335498D01*
G75*
G02*
X7361010Y4696441I27502J-29375D01*
G01*
Y4714800D01*
X7331835Y4685625D01*
G37*
X7219240Y7675360D02*
G36*
X7219240Y7675360D02*
Y7627225D01*
X7365260D01*
Y7742780D01*
G75*
G02*
X7367005Y7754500I40240J-1D01*
G01*
X7297596D01*
X7219240Y7675360D01*
G37*
X6603483Y9977000D02*
G36*
X6603483Y9977000D02*
G75*
G02*
X6684240Y9850000I-59483J-127000D01*
G01*
Y9849999D01*
G75*
G02*
X6680599Y9818250I-140240J0D01*
G01*
X6746500D01*
Y9863250D01*
G75*
G02*
X6791500Y9908250I45000J0D01*
G01*
X6931500D01*
G75*
G02*
X6976500Y9863250I0J-45000D01*
G01*
Y9818250D01*
X6980500D01*
Y9859500D01*
G75*
G02*
X7025500Y9904500I45000J0D01*
G01*
X7205500D01*
G75*
G02*
X7241915Y9885938I0J-45000D01*
G01*
G75*
G02*
X7282500Y9911500I40585J-19438D01*
G01*
X7374750D01*
Y9977000D01*
X6603483D01*
G37*
X6869990Y8137430D02*
G36*
X6869990Y8137430D02*
Y7754500D01*
X7095007D01*
G75*
G02*
X7096093Y7755621I52246J-49528D01*
G01*
X7286593Y7948026D01*
G75*
G02*
X7337798Y7969365I51157J-50651D01*
G01*
X7450805D01*
X7461431Y7979991D01*
G75*
G02*
X7460500Y7979980I-941J40229D01*
G01*
X7405500D01*
G75*
G02*
X7365260Y8020220I0J40240D01*
G01*
Y8199000D01*
X6931560D01*
X6869990Y8137430D01*
G37*
X7422500Y9862000D02*
G36*
X7422500Y9862000D02*
Y9818250D01*
X7472260D01*
Y9862000D01*
X7422500D01*
G37*
X3555050Y10580250D02*
G36*
X3555050Y10580250D02*
Y10231000D01*
X5039052D01*
G75*
G02*
X5091520Y10279781I107948J-63500D01*
G01*
Y10304510D01*
X5077000D01*
G75*
G02*
X5036760Y10344750I0J40240D01*
G01*
Y10434750D01*
G75*
G02*
X5077000Y10474990I40240J0D01*
G01*
X5217000D01*
G75*
G02*
X5257240Y10434750I0J-40240D01*
G01*
Y10344750D01*
G75*
G02*
X5217000Y10304510I-40240J0D01*
G01*
X5202480D01*
Y10279781D01*
G75*
G02*
X5254948Y10231000I-55480J-112281D01*
G01*
X5610552D01*
G75*
G02*
X5826448I107948J-63500D01*
G01*
X7474190D01*
X7153697Y10551493D01*
G75*
G02*
X7029141Y10580250I-34197J136007D01*
G01*
X5262000D01*
Y10535250D01*
G75*
G02*
X5217000Y10490250I-45000J0D01*
G01*
X5077000D01*
G75*
G02*
X5032000Y10535250I0J45000D01*
G01*
Y10580250D01*
X3555050D01*
G37*
X6733585Y8961000D02*
G36*
X6733585Y8961000D02*
X6757706Y8936879D01*
G75*
G02*
X6774105Y8897500I-39081J-39379D01*
G01*
Y8500625D01*
G75*
G02*
X6774009Y8497370I-55480J7D01*
G01*
X7026310D01*
X7488010Y8959070D01*
Y8961000D01*
X6733585D01*
G37*
X6603483Y9215000D02*
G36*
X6603483Y9215000D02*
G75*
G02*
X6684240Y9088000I-59483J-127000D01*
G01*
G75*
G02*
X6664187Y9015735I-140240J1D01*
G01*
G75*
G02*
X6694504Y9000081I-9062J-54735D01*
G01*
X6733585Y8961000D01*
X7488010D01*
Y9031260D01*
X7397500D01*
G75*
G02*
X7357260Y9071500I0J40240D01*
G01*
Y9280000D01*
X6669790D01*
G75*
G02*
X6603483Y9215000I-125790J62000D01*
G01*
G37*
Y9469000D02*
G36*
X6603483Y9469000D02*
G75*
G02*
X6684240Y9342000I-59483J-127000D01*
G01*
G75*
G02*
X6669790Y9280000I-140240J1D01*
G01*
X7357260D01*
Y9286500D01*
G75*
G02*
X7397500Y9326740I40240J0D01*
G01*
X7488010D01*
Y9437510D01*
X7239200D01*
G75*
G02*
X7205500Y9419260I-33700J21990D01*
G01*
X7025500D01*
G75*
G02*
X6991800Y9437510I0J40240D01*
G01*
X6980029D01*
G75*
G02*
X6928845Y9458595I-279J71990D01*
G01*
X6886690Y9500750D01*
X6646930D01*
G75*
G02*
X6603483Y9469000I-102931J95250D01*
G01*
G37*
X6680007Y9815803D02*
G36*
X6680007Y9815803D02*
X6783603Y9712207D01*
G75*
G02*
X6791500Y9712990I7900J-39457D01*
G01*
X6931500D01*
G75*
G02*
X6971740Y9672750I0J-40240D01*
G01*
Y9619320D01*
X7000238Y9590822D01*
G75*
G02*
X7025500Y9599740I25262J-31322D01*
G01*
X7205500D01*
G75*
G02*
X7239200Y9581490I0J-40240D01*
G01*
X7488010D01*
Y9619570D01*
G75*
G02*
X7472260Y9651500I24490J31930D01*
G01*
Y9818250D01*
X7422500D01*
Y9651500D01*
G75*
G02*
X7377500Y9606500I-45000J0D01*
G01*
X7282500D01*
G75*
G02*
X7237500Y9651500I0J45000D01*
G01*
Y9727861D01*
G75*
G02*
X7205500Y9714500I-32000J31639D01*
G01*
X7025500D01*
G75*
G02*
X6980500Y9759500I0J45000D01*
G01*
Y9818250D01*
X6976500D01*
Y9773250D01*
G75*
G02*
X6931500Y9728250I-45000J0D01*
G01*
X6791500D01*
G75*
G02*
X6746500Y9773250I0J45000D01*
G01*
Y9818250D01*
X6680599D01*
G75*
G02*
X6680007Y9815803I-136598J31752D01*
G01*
G37*
X6931560Y8199000D02*
G36*
X6931560Y8199000D02*
X7365260D01*
Y8215220D01*
G75*
G02*
X7405500Y8255460I40240J0D01*
G01*
X7460500D01*
G75*
G02*
X7488010Y8244588I0J-40240D01*
G01*
Y8293971D01*
X7488009Y8294250D01*
G75*
G02*
X7506510Y8342432I71991J0D01*
G01*
Y8396000D01*
G75*
G02*
X7515418Y8421250I40240J0D01*
G01*
G75*
G02*
X7506510Y8446500I31332J25250D01*
G01*
Y8497370D01*
X7229930D01*
X6931560Y8199000D01*
G37*
X7505309Y3898745D02*
G36*
X7505309Y3898745D02*
G75*
G02*
X7513285Y3886157I-114307J-81248D01*
G01*
G75*
G02*
X7520899Y3898745I127717J-68654D01*
G01*
X7505309D01*
G37*
X7255507Y10653303D02*
G36*
X7255507Y10653303D02*
X7328560Y10580250D01*
X7521917D01*
G75*
G02*
X7474500Y10687500I97583J107250D01*
G01*
X7259740D01*
G75*
G02*
X7255507Y10653303I-140240J-1D01*
G01*
G37*
X7477141Y4830931D02*
G36*
X7477141Y4830931D02*
G75*
G02*
X7508240Y4770000I-44141J-60931D01*
G01*
G75*
G02*
X7504990Y4748125I-75240J0D01*
G01*
Y4696441D01*
G75*
G02*
X7530502Y4685625I-1990J-40191D01*
G01*
X7568020D01*
Y4856356D01*
G75*
G02*
X7564000Y4862801I31980J24424D01*
G01*
G75*
G02*
X7528000Y4840540I-36000J17979D01*
G01*
X7486750D01*
X7477141Y4830931D01*
G37*
X7554749Y9906740D02*
G36*
X7554749Y9906740D02*
X7570011D01*
X7570010Y9907000D01*
Y9977000D01*
X7554750D01*
Y9907000D01*
X7554749Y9906740D01*
G37*
X3555050Y10231000D02*
G36*
X3555050Y10231000D02*
Y9977000D01*
X5039052D01*
G75*
G02*
X5254948I107948J-63500D01*
G01*
X5610552D01*
G75*
G02*
X5826448I107948J-63500D01*
G01*
X6484517D01*
G75*
G02*
X6603483I59483J-127000D01*
G01*
X7374750D01*
Y10047000D01*
G75*
G02*
X7419750Y10092000I45000J0D01*
G01*
X7509750D01*
G75*
G02*
X7554750Y10047000I0J-45000D01*
G01*
Y9977000D01*
X7570010D01*
Y10047000D01*
G75*
G02*
X7583260Y10076846I40240J0D01*
G01*
Y10121930D01*
X7474190Y10231000D01*
X5826448D01*
G75*
G02*
X5843740Y10167500I-107948J-63500D01*
G01*
G75*
G02*
X5593260I-125240J0D01*
G01*
G75*
G02*
X5610552Y10231000I125240J0D01*
G01*
X5254948D01*
G75*
G02*
X5272240Y10167500I-107948J-63500D01*
G01*
G75*
G02*
X5021760I-125240J0D01*
G01*
G75*
G02*
X5039052Y10231000I125240J0D01*
G01*
X3555050D01*
G37*
X6869990Y7373500D02*
G36*
X6869990Y7373500D02*
Y6952266D01*
G75*
G02*
X6911750Y6980500I41760J-16766D01*
G01*
X7001750D01*
G75*
G02*
X7046750Y6935500I0J-45000D01*
G01*
Y6795500D01*
G75*
G02*
X7001750Y6750500I-45000J0D01*
G01*
X6911750D01*
G75*
G02*
X6869990Y6778734I0J45000D01*
G01*
Y6484500D01*
X7234010D01*
Y6509500D01*
G75*
G02*
X7235760Y6525277I71990J0D01*
G01*
Y6609500D01*
G75*
G02*
X7276000Y6649740I40240J0D01*
G01*
X7336000D01*
G75*
G02*
X7369500Y6631794I0J-40240D01*
G01*
G75*
G02*
X7403000Y6649740I33500J-22294D01*
G01*
X7463000D01*
G75*
G02*
X7496500Y6631794I0J-40240D01*
G01*
G75*
G02*
X7530000Y6649740I33500J-22294D01*
G01*
X7590000D01*
G75*
G02*
X7615010Y6641024I0J-40240D01*
G01*
Y6661055D01*
X7482555Y6793510D01*
X7232441D01*
G75*
G02*
X7192250Y6755260I-40191J1990D01*
G01*
X7102250D01*
G75*
G02*
X7062010Y6795500I0J40240D01*
G01*
Y6935500D01*
G75*
G02*
X7075260Y6965346I40240J0D01*
G01*
Y7373500D01*
X6869990D01*
G37*
X7219240Y7627225D02*
G36*
X7219240Y7627225D02*
Y7373500D01*
X7374750D01*
Y7443500D01*
G75*
G02*
X7419750Y7488500I45000J0D01*
G01*
X7509750D01*
G75*
G02*
X7554750Y7443500I0J-45000D01*
G01*
Y7373500D01*
X7570010D01*
Y7443500D01*
G75*
G02*
X7610250Y7483740I40240J0D01*
G01*
X7615010D01*
Y7518412D01*
G75*
G02*
X7587500Y7507540I-27510J29368D01*
G01*
X7532500D01*
G75*
G02*
X7496500Y7529801I0J40240D01*
G01*
G75*
G02*
X7460500Y7507540I-36000J17979D01*
G01*
X7405500D01*
G75*
G02*
X7365260Y7547780I0J40240D01*
G01*
Y7627225D01*
X7219240D01*
G37*
X7678980Y4848466D02*
G36*
X7678980Y4848466D02*
Y4685625D01*
X7691020D01*
Y4851860D01*
G75*
G02*
X7687000Y4856382I27979J28921D01*
G01*
G75*
G02*
X7678980Y4848466I-31999J24399D01*
G01*
G37*
X7668082Y8421250D02*
G36*
X7668082Y8421250D02*
G75*
G02*
X7676990Y8396000I-31332J-25250D01*
G01*
Y8256000D01*
X7676986Y8255460D01*
X7692253D01*
X7692250Y8255980D01*
Y8256000D01*
Y8396000D01*
G75*
G02*
X7700002Y8421250I45000J0D01*
G01*
G75*
G02*
X7692250Y8446500I37248J25250D01*
G01*
Y8497370D01*
X7676990D01*
Y8446500D01*
G75*
G02*
X7668082Y8421250I-40240J0D01*
G01*
G37*
X7229930Y8497370D02*
G36*
X7229930Y8497370D02*
X7506510D01*
Y8586500D01*
G75*
G02*
X7519760Y8616346I40240J0D01*
G01*
Y8659096D01*
X7519759Y8659375D01*
G75*
G02*
X7540845Y8710280I71991J-1D01*
G01*
X7718010Y8887445D01*
Y8961000D01*
X7631990D01*
Y8929529D01*
X7631991Y8929250D01*
G75*
G02*
X7610905Y8878345I-71991J1D01*
G01*
X7229930Y8497370D01*
G37*
X7631990Y9031260D02*
G36*
X7631990Y9031260D02*
Y8961000D01*
X7718010D01*
Y9031260D01*
X7631990D01*
G37*
X7219240Y7373500D02*
G36*
X7219240Y7373500D02*
Y6965346D01*
G75*
G02*
X7232441Y6937490I-26990J-29846D01*
G01*
X7512096D01*
G75*
G02*
X7563280Y6916405I279J-71990D01*
G01*
X7737905Y6741780D01*
G75*
G02*
X7758520Y6699093I-50905J-50905D01*
G01*
Y6858395D01*
X7711419Y6905496D01*
G75*
G02*
X7695020Y6944875I39081J39379D01*
G01*
Y6949500D01*
X7657000D01*
G75*
G02*
X7620472Y6968219I0J45000D01*
G01*
G75*
G02*
X7590000Y6954260I-30472J26281D01*
G01*
X7530000D01*
G75*
G02*
X7496500Y6972206I0J40240D01*
G01*
G75*
G02*
X7463000Y6954260I-33500J22294D01*
G01*
X7403000D01*
G75*
G02*
X7369500Y6972206I0J40240D01*
G01*
G75*
G02*
X7336000Y6954260I-33500J22294D01*
G01*
X7276000D01*
G75*
G02*
X7235760Y6994500I0J40240D01*
G01*
Y7194500D01*
G75*
G02*
X7276000Y7234740I40240J0D01*
G01*
X7336000D01*
G75*
G02*
X7369500Y7216794I0J-40240D01*
G01*
G75*
G02*
X7403000Y7234740I33500J-22294D01*
G01*
X7463000D01*
G75*
G02*
X7496500Y7216794I0J-40240D01*
G01*
G75*
G02*
X7530000Y7234740I33500J-22294D01*
G01*
X7590000D01*
G75*
G02*
X7620472Y7220781I0J-40240D01*
G01*
G75*
G02*
X7657000Y7239500I36528J-26281D01*
G01*
X7695020D01*
Y7255270D01*
X7687030Y7263260D01*
X7610250D01*
G75*
G02*
X7570010Y7303500I0J40240D01*
G01*
Y7373500D01*
X7554750D01*
Y7303500D01*
G75*
G02*
X7509750Y7258500I-45000J0D01*
G01*
X7419750D01*
G75*
G02*
X7374750Y7303500I0J45000D01*
G01*
Y7373500D01*
X7219240D01*
G37*
X7801980Y5722500D02*
G36*
X7801980Y5722500D02*
Y5577140D01*
G75*
G02*
X7807182Y5570984I-27980J-28920D01*
G01*
G75*
G02*
X7846000Y5593220I38818J-22764D01*
G01*
X7901000D01*
G75*
G02*
X7939818Y5570984I0J-45000D01*
G01*
G75*
G02*
X7945020Y5577140I33182J-22764D01*
G01*
Y5623250D01*
G75*
G02*
X7961419Y5662629I55480J0D01*
G01*
X8014510Y5715720D01*
Y5722500D01*
X7801980D01*
G37*
X7153810D02*
G36*
X7153810Y5722500D02*
X7299954D01*
G75*
G02*
X7298260Y5738375I73546J15876D01*
G01*
G75*
G02*
X7445020Y5761741I75240J0D01*
G01*
Y5816177D01*
G75*
G02*
X7425260Y5867000I55480J50823D01*
G01*
G75*
G02*
X7564000Y5907358I75240J0D01*
G01*
G75*
G02*
X7687000Y5913052I63500J-40358D01*
G01*
G75*
G02*
X7821740Y5867000I59500J-46052D01*
G01*
G75*
G02*
X7801980Y5816177I-75240J0D01*
G01*
Y5722500D01*
X8014510D01*
Y5792500D01*
G75*
G02*
X8024912Y5819499I40240J0D01*
G01*
G75*
G02*
X8021260Y5836249I36588J16750D01*
G01*
Y5836250D01*
Y5921020D01*
X7988625D01*
G75*
G02*
X7949246Y5937419I0J55480D01*
G01*
X7648145Y6238520D01*
X7568823D01*
G75*
G02*
X7446714Y6269931I-50823J55480D01*
G01*
G75*
G02*
X7400971Y6253760I-45463J55819D01*
G01*
X7359490D01*
Y6224000D01*
G75*
G02*
X7346240Y6194154I-40240J0D01*
G01*
Y5945029D01*
X7346241Y5944750D01*
G75*
G02*
X7325155Y5893845I-71991J1D01*
G01*
X7153810Y5722500D01*
G37*
X8184990Y5739524D02*
G36*
X8184990Y5739524D02*
Y5722500D01*
X8200250D01*
Y5792500D01*
Y5792501D01*
G75*
G02*
X8200387Y5796010I45000J0D01*
G01*
X8186980D01*
Y5754250D01*
G75*
G02*
X8184990Y5739524I-55480J0D01*
G01*
G37*
X8521309Y3898745D02*
G36*
X8521309Y3898745D02*
G75*
G02*
X8529285Y3886157I-114306J-81248D01*
G01*
G75*
G02*
X8536899Y3898745I127717J-68654D01*
G01*
X8521309D01*
G37*
X8241740Y5921020D02*
G36*
X8241740Y5921020D02*
Y5837363D01*
G75*
G02*
X8245250Y5837500I3509J-44863D01*
G01*
X8335250D01*
G75*
G02*
X8380250Y5792500I0J-45000D01*
G01*
Y5722500D01*
X8624540D01*
X8426020Y5921020D01*
X8241740D01*
G37*
X6981115Y5278000D02*
G36*
X6981115Y5278000D02*
Y5204490D01*
X6995000D01*
G75*
G02*
X7030735Y5182750I0J-40240D01*
G01*
X8207000D01*
Y5227750D01*
G75*
G02*
X8252000Y5272750I45000J0D01*
G01*
X8392000D01*
G75*
G02*
X8437000Y5227750I0J-45000D01*
G01*
Y5182750D01*
X8727069D01*
G75*
G02*
X8689760Y5278000I102931J95250D01*
G01*
X6981115D01*
G37*
X7877569Y9870208D02*
G36*
X7877569Y9870208D02*
G75*
G02*
X7877740Y9866502I-40069J-3706D01*
G01*
Y9866500D01*
Y9818250D01*
X8688519D01*
G75*
G02*
X8685000Y9850000I141481J31751D01*
G01*
G75*
G02*
X8760028Y9977000I145000J0D01*
G01*
X8186000D01*
Y9887000D01*
G75*
G02*
X8141000Y9842000I-45000J0D01*
G01*
X8041000D01*
G75*
G02*
X7996000Y9887000I0J45000D01*
G01*
Y9977000D01*
X7881240D01*
Y9887000D01*
G75*
G02*
X7877569Y9870208I-40240J0D01*
G01*
G37*
X7864498Y8421250D02*
G36*
X7864498Y8421250D02*
G75*
G02*
X7872250Y8396000I-37248J-25250D01*
G01*
Y8256000D01*
Y8255999D01*
G75*
G02*
X7871643Y8248633I-45000J0D01*
G01*
G75*
G02*
X7886500Y8215220I-30143J-33413D01*
G01*
Y8199000D01*
X8760028D01*
G75*
G02*
X8685000Y8326000I69972J127000D01*
G01*
G75*
G02*
X8765116Y8455673I145000J0D01*
G01*
G75*
G02*
X8716689Y8497370I64884J124327D01*
G01*
X7872250D01*
Y8446500D01*
G75*
G02*
X7864498Y8421250I-45000J0D01*
G01*
G37*
X7861990Y9619570D02*
G36*
X7861990Y9619570D02*
Y9500750D01*
X8727070D01*
G75*
G02*
X8689760Y9596000I102930J95250D01*
G01*
G75*
G02*
X8765116Y9720327I140240J0D01*
G01*
G75*
G02*
X8688519Y9818250I64884J129673D01*
G01*
X7877740D01*
Y9651500D01*
G75*
G02*
X7861990Y9619570I-40240J0D01*
G01*
G37*
X6981115Y5549805D02*
G36*
X6981115Y5549805D02*
Y5278000D01*
X8689760D01*
G75*
G02*
X8770517Y5405000I140240J0D01*
G01*
G75*
G02*
X8689760Y5532000I59483J127000D01*
G01*
G75*
G02*
X8723638Y5623402I140240J0D01*
G01*
X8624540Y5722500D01*
X8380250D01*
Y5652500D01*
G75*
G02*
X8335250Y5607500I-45000J0D01*
G01*
X8245250D01*
G75*
G02*
X8200250Y5652500I0J45000D01*
G01*
Y5722500D01*
X8184990D01*
Y5652500D01*
G75*
G02*
X8144750Y5612260I-40240J0D01*
G01*
X8067970D01*
X8055980Y5600270D01*
Y5577140D01*
G75*
G02*
X8064000Y5566199I-27980J-28920D01*
G01*
G75*
G02*
X8100000Y5588460I36000J-17979D01*
G01*
X8155000D01*
G75*
G02*
X8195240Y5548220I0J-40240D01*
G01*
Y5511280D01*
X8244530D01*
G75*
G02*
X8287534Y5493360I0J-60560D01*
G01*
X8322404Y5458490D01*
X8392000D01*
G75*
G02*
X8421846Y5445240I0J-40240D01*
G01*
X8474750D01*
G75*
G02*
X8571865Y5373250I21875J-71990D01*
G01*
G75*
G02*
X8474750Y5301260I-75240J0D01*
G01*
X8421846D01*
G75*
G02*
X8392000Y5288010I-29846J26990D01*
G01*
X8252000D01*
G75*
G02*
X8211760Y5328250I0J40240D01*
G01*
Y5390160D01*
X8195240D01*
Y5353220D01*
G75*
G02*
X8155000Y5312980I-40240J0D01*
G01*
X8100000D01*
G75*
G02*
X8064000Y5335241I0J40240D01*
G01*
G75*
G02*
X8028000Y5312980I-36000J17979D01*
G01*
X7973000D01*
G75*
G02*
X7939818Y5330456I0J40240D01*
G01*
G75*
G02*
X7901000Y5308220I-38818J22764D01*
G01*
X7846000D01*
G75*
G02*
X7807182Y5330456I0J45000D01*
G01*
G75*
G02*
X7774000Y5312980I-33182J22764D01*
G01*
X7719000D01*
G75*
G02*
X7687000Y5328822I0J40240D01*
G01*
G75*
G02*
X7655000Y5312980I-32000J24398D01*
G01*
X7600000D01*
G75*
G02*
X7564000Y5335241I0J40240D01*
G01*
G75*
G02*
X7528000Y5312980I-36000J17979D01*
G01*
X7473000D01*
G75*
G02*
X7437000Y5335241I0J40240D01*
G01*
G75*
G02*
X7401000Y5312980I-36000J17979D01*
G01*
X7346000D01*
G75*
G02*
X7312818Y5330456I0J40240D01*
G01*
G75*
G02*
X7274000Y5308220I-38818J22764D01*
G01*
X7219000D01*
G75*
G02*
X7174000Y5353220I0J45000D01*
G01*
Y5548220D01*
G75*
G02*
X7219000Y5593220I45000J0D01*
G01*
X7274000D01*
G75*
G02*
X7312818Y5570984I0J-45000D01*
G01*
G75*
G02*
X7318020Y5577140I33182J-22764D01*
G01*
Y5687552D01*
G75*
G02*
X7299954Y5722500I55480J50823D01*
G01*
X7153810D01*
X6981115Y5549805D01*
G37*
X7744832Y7362378D02*
G36*
X7744832Y7362378D02*
X7789581Y7317629D01*
G75*
G02*
X7805980Y7278250I-39081J-39379D01*
G01*
Y7234740D01*
X7844000D01*
G75*
G02*
X7877500Y7216794I0J-40240D01*
G01*
G75*
G02*
X7911000Y7234740I33500J-22294D01*
G01*
X7971000D01*
G75*
G02*
X8004500Y7216794I0J-40240D01*
G01*
G75*
G02*
X8038000Y7234740I33500J-22294D01*
G01*
X8098000D01*
G75*
G02*
X8138240Y7194500I0J-40240D01*
G01*
Y6994500D01*
Y6994498D01*
G75*
G02*
X8136973Y6984480I-40240J0D01*
G01*
X8709368D01*
G75*
G02*
X8689760Y7056000I120632J71520D01*
G01*
G75*
G02*
X8770517Y7183000I140240J0D01*
G01*
G75*
G02*
X8689760Y7310000I59483J127000D01*
G01*
G75*
G02*
X8704960Y7373500I140240J0D01*
G01*
X7751610D01*
G75*
G02*
X7744832Y7362378I-64610J31749D01*
G01*
G37*
X7751610Y7373500D02*
G36*
X7751610Y7373500D02*
X8704960D01*
G75*
G02*
X8770517Y7437000I125040J-63500D01*
G01*
G75*
G02*
X8689760Y7564000I59483J127000D01*
G01*
G75*
G02*
X8704821Y7627225I140240J-1D01*
G01*
X7881740D01*
Y7547780D01*
G75*
G02*
X7841500Y7507540I-40240J0D01*
G01*
X7786500D01*
G75*
G02*
X7758990Y7518412I0J40240D01*
G01*
Y7405529D01*
X7758991Y7405251D01*
G75*
G02*
X7751610Y7373500I-71990J2D01*
G01*
G37*
X7879995Y7754500D02*
G36*
X7879995Y7754500D02*
G75*
G02*
X7881740Y7742780I-38495J-11721D01*
G01*
Y7627225D01*
X8704821D01*
G75*
G02*
X8770517Y7691000I125179J-63225D01*
G01*
G75*
G02*
X8704960Y7754500I59483J127000D01*
G01*
X7879995D01*
G37*
X7297596D02*
G36*
X7297596Y7754500D02*
X7367005D01*
G75*
G02*
X7405500Y7783020I38495J-11720D01*
G01*
X7460500D01*
G75*
G02*
X7496500Y7760759I0J-40240D01*
G01*
G75*
G02*
X7532500Y7783020I36000J-17979D01*
G01*
X7587500D01*
G75*
G02*
X7623500Y7760759I0J-40240D01*
G01*
G75*
G02*
X7659500Y7783020I36000J-17979D01*
G01*
X7714500D01*
G75*
G02*
X7750500Y7760759I0J-40240D01*
G01*
G75*
G02*
X7786500Y7783020I36000J-17979D01*
G01*
X7841500D01*
G75*
G02*
X7879995Y7754500I0J-40240D01*
G01*
X8704960D01*
G75*
G02*
X8689760Y7818000I125040J63500D01*
G01*
G75*
G02*
X8770517Y7945000I140240J0D01*
G01*
G75*
G02*
X8689760Y8072000I59483J127000D01*
G01*
G75*
G02*
X8765116Y8196327I140240J0D01*
G01*
G75*
G02*
X8760028Y8199000I64879J129676D01*
G01*
X7886500D01*
Y8020220D01*
G75*
G02*
X7841500Y7975220I-45000J0D01*
G01*
X7786500D01*
G75*
G02*
X7747682Y7997456I0J45000D01*
G01*
G75*
G02*
X7714500Y7979980I-33182J22764D01*
G01*
X7659500D01*
G75*
G02*
X7631990Y7990852I0J40240D01*
G01*
Y7977029D01*
X7631991Y7976750D01*
G75*
G02*
X7610905Y7925845I-71991J1D01*
G01*
X7531530Y7846470D01*
G75*
G02*
X7480346Y7825385I-50905J50905D01*
G01*
X7367779D01*
X7297596Y7754500D01*
G37*
X7663740Y8629555D02*
G36*
X7663740Y8629555D02*
Y8616346D01*
G75*
G02*
X7676990Y8586500I-26990J-29846D01*
G01*
Y8497370D01*
X7692250D01*
Y8586500D01*
G75*
G02*
X7737250Y8631500I45000J0D01*
G01*
X7827250D01*
G75*
G02*
X7872250Y8586500I0J-45000D01*
G01*
Y8497370D01*
X8716689D01*
G75*
G02*
X8689760Y8580000I113311J82631D01*
G01*
G75*
G02*
X8770517Y8707000I140240J0D01*
G01*
G75*
G02*
X8689760Y8834000I59483J127000D01*
G01*
G75*
G02*
X8770517Y8961000I140240J0D01*
G01*
X7861990D01*
Y8857904D01*
X7861991Y8857625D01*
G75*
G02*
X7840905Y8806720I-71991J1D01*
G01*
X7663740Y8629555D01*
G37*
X7861990Y9280000D02*
G36*
X7861990Y9280000D02*
Y8961000D01*
X8770517D01*
G75*
G02*
X8689760Y9088000I59483J127000D01*
G01*
G75*
G02*
X8770517Y9215000I140240J0D01*
G01*
G75*
G02*
X8704210Y9280000I59483J127000D01*
G01*
X7861990D01*
G37*
Y9500750D02*
G36*
X7861990Y9500750D02*
Y9280000D01*
X8704210D01*
G75*
G02*
X8689760Y9342000I125790J62001D01*
G01*
G75*
G02*
X8770517Y9469000I140240J0D01*
G01*
G75*
G02*
X8727070Y9500750I59484J127000D01*
G01*
X7861990D01*
G37*
X8899972Y9977000D02*
G36*
X8899972Y9977000D02*
G75*
G02*
X8933270Y9951786I-69972J-127000D01*
G01*
Y9977000D01*
X8899972D01*
G37*
X7677810Y10231000D02*
G36*
X7677810Y10231000D02*
X7706155Y10202655D01*
G75*
G02*
X7727241Y10151750I-50905J-50906D01*
G01*
X7727240Y10151471D01*
Y10104814D01*
G75*
G02*
X7741000Y10107240I13761J-37814D01*
G01*
X7841000D01*
G75*
G02*
X7881240Y10067000I0J-40240D01*
G01*
Y9977000D01*
X7996000D01*
Y10067000D01*
G75*
G02*
X8041000Y10112000I45000J0D01*
G01*
X8141000D01*
G75*
G02*
X8186000Y10067000I0J-45000D01*
G01*
Y9977000D01*
X8760028D01*
G75*
G02*
X8899972I69972J-127000D01*
G01*
X8933270D01*
Y10231000D01*
X7677810D01*
G37*
X7328560Y10580250D02*
G36*
X7328560Y10580250D02*
X7677810Y10231000D01*
X8933270D01*
Y10580250D01*
X7717083D01*
G75*
G02*
X7521917I-97583J107250D01*
G01*
X7328560D01*
G37*
X7717083D02*
G36*
X7717083Y10580250D02*
X8933270D01*
Y10687500D01*
X8872655D01*
G75*
G02*
X8856500Y10684500I-16155J42000D01*
G01*
X8676500D01*
G75*
G02*
X8660345Y10687500I0J45000D01*
G01*
X7764500D01*
G75*
G02*
X7717083Y10580250I-145000J0D01*
G01*
G37*
X8932931Y5182750D02*
G36*
X8932931Y5182750D02*
X9178054D01*
G75*
G02*
X9131800Y5278000I74946J95250D01*
G01*
X8970240D01*
G75*
G02*
X8932931Y5182750I-140240J0D01*
G01*
G37*
X9044230Y9500750D02*
G36*
X9044230Y9500750D02*
Y9348940D01*
X9196040Y9500750D01*
X9044230D01*
G37*
X8889483Y5405000D02*
G36*
X8889483Y5405000D02*
G75*
G02*
X8970240Y5278000I-59483J-127000D01*
G01*
X9131800D01*
G75*
G02*
X9374200I121200J0D01*
G01*
X9390560D01*
Y5278001D01*
G75*
G02*
X9395381Y5311159I116440J0D01*
G01*
X9267169Y5439371D01*
G75*
G02*
X9250770Y5478750I39081J39379D01*
G01*
Y5486649D01*
G75*
G02*
X9221010Y5525500I10480J38851D01*
G01*
Y5665500D01*
G75*
G02*
X9261250Y5705740I40240J0D01*
G01*
X9351250D01*
G75*
G02*
X9391151Y5670714I0J-40240D01*
G01*
G75*
G02*
X9409399Y5722500I115849J-11714D01*
G01*
X8955040D01*
G75*
G02*
X8950187Y5713735I-125037J63505D01*
G01*
G75*
G02*
X8980504Y5698081I-9062J-54735D01*
G01*
X9027605Y5650980D01*
X9030510D01*
Y5665500D01*
G75*
G02*
X9070750Y5705740I40240J0D01*
G01*
X9160750D01*
G75*
G02*
X9200990Y5665500I0J-40240D01*
G01*
Y5525500D01*
G75*
G02*
X9160750Y5485260I-40240J0D01*
G01*
X9070750D01*
G75*
G02*
X9030510Y5525500I0J40240D01*
G01*
Y5540020D01*
X9004625D01*
G75*
G02*
X8968614Y5553296I1J55480D01*
G01*
G75*
G02*
X8970240Y5532000I-138614J-21294D01*
G01*
G75*
G02*
X8889483Y5405000I-140240J0D01*
G01*
G37*
X9123605Y7665040D02*
G36*
X9123605Y7665040D02*
Y7627225D01*
X9409520D01*
Y7649273D01*
G75*
G02*
X9342935Y7754500I49855J105227D01*
G01*
X9326575D01*
G75*
G02*
X9123605Y7665040I-121200J0D01*
G01*
G37*
X9044230Y10687500D02*
G36*
X9044230Y10687500D02*
Y10580250D01*
X9394972D01*
G75*
G02*
X9390560Y10612000I112028J31749D01*
G01*
G75*
G02*
X9418355Y10687500I116440J-1D01*
G01*
X9044230D01*
G37*
Y9818250D02*
G36*
X9044230Y9818250D02*
Y9500750D01*
X9196040D01*
X9418260Y9722970D01*
Y9799750D01*
G75*
G02*
X9422765Y9818250I40240J0D01*
G01*
X9044230D01*
G37*
X9327946Y5182750D02*
G36*
X9327946Y5182750D02*
X9440025D01*
G75*
G02*
X9390560Y5278000I66975J95250D01*
G01*
X9374200D01*
G75*
G02*
X9327946Y5182750I-121200J0D01*
G01*
G37*
X9044230Y10231000D02*
G36*
X9044230Y10231000D02*
Y9977000D01*
X9418260D01*
Y9990250D01*
G75*
G02*
X9458500Y10030490I40240J0D01*
G01*
X9473020D01*
Y10125773D01*
G75*
G02*
X9406435Y10231000I49855J105227D01*
G01*
X9390075D01*
G75*
G02*
X9147675I-121200J0D01*
G01*
X9044230D01*
G37*
X9537309Y3898745D02*
G36*
X9537309Y3898745D02*
G75*
G02*
X9545285Y3886157I-114306J-81248D01*
G01*
G75*
G02*
X9552899Y3898745I127717J-68654D01*
G01*
X9537309D01*
G37*
X9573975Y5182750D02*
G36*
X9573975Y5182750D02*
X9694025D01*
G75*
G02*
X9644560Y5278000I66975J95250D01*
G01*
X9623440D01*
G75*
G02*
X9573975Y5182750I-116440J0D01*
G01*
G37*
X9595645Y10687500D02*
G36*
X9595645Y10687500D02*
G75*
G02*
X9623440Y10612000I-88645J-75501D01*
G01*
G75*
G02*
X9619028Y10580250I-116440J-1D01*
G01*
X9701183D01*
G75*
G02*
X9657260Y10675500I81317J95250D01*
G01*
G75*
G02*
X9657836Y10687500I125240J2D01*
G01*
X9595645D01*
G37*
X7030735Y5182750D02*
G36*
X7030735Y5182750D02*
G75*
G02*
X7035240Y5164250I-35735J-18500D01*
G01*
Y5079480D01*
X7115500D01*
G75*
G02*
X7154879Y5063081I0J-55480D01*
G01*
X7178760Y5039200D01*
Y5075780D01*
G75*
G02*
X7219000Y5116020I40240J0D01*
G01*
X7274000D01*
G75*
G02*
X7310000Y5093759I0J-40240D01*
G01*
G75*
G02*
X7346000Y5116020I36000J-17979D01*
G01*
X7401000D01*
G75*
G02*
X7437000Y5093759I0J-40240D01*
G01*
G75*
G02*
X7473000Y5116020I36000J-17979D01*
G01*
X7528000D01*
G75*
G02*
X7564000Y5093759I0J-40240D01*
G01*
G75*
G02*
X7600000Y5116020I36000J-17979D01*
G01*
X7655000D01*
G75*
G02*
X7687000Y5100178I0J-40240D01*
G01*
G75*
G02*
X7719000Y5116020I32000J-24398D01*
G01*
X7774000D01*
G75*
G02*
X7810000Y5093759I0J-40240D01*
G01*
G75*
G02*
X7846000Y5116020I36000J-17979D01*
G01*
X7901000D01*
G75*
G02*
X7937000Y5093759I0J-40240D01*
G01*
G75*
G02*
X7973000Y5116020I36000J-17979D01*
G01*
X8028000D01*
G75*
G02*
X8064000Y5093759I0J-40240D01*
G01*
G75*
G02*
X8100000Y5116020I36000J-17979D01*
G01*
X8155000D01*
G75*
G02*
X8195240Y5075780I0J-40240D01*
G01*
Y5033760D01*
X9909500D01*
Y5182750D01*
X9827975D01*
G75*
G02*
X9694025I-66975J95250D01*
G01*
X9573975D01*
G75*
G02*
X9440025I-66975J95250D01*
G01*
X9327946D01*
G75*
G02*
X9178054I-74946J95250D01*
G01*
X8932931D01*
G75*
G02*
X8727069I-102931J95250D01*
G01*
X8437000D01*
Y5137750D01*
G75*
G02*
X8392000Y5092750I-45000J0D01*
G01*
X8252000D01*
G75*
G02*
X8207000Y5137750I0J45000D01*
G01*
Y5182750D01*
X7030735D01*
G37*
X9827975D02*
G36*
X9827975Y5182750D02*
X9909500D01*
Y5278000D01*
X9877440D01*
G75*
G02*
X9827975Y5182750I-116440J0D01*
G01*
G37*
X9372272Y5491188D02*
G36*
X9372272Y5491188D02*
X9473841Y5389619D01*
G75*
G02*
X9623440Y5278000I33159J-111619D01*
G01*
X9644560D01*
G75*
G02*
X9877440I116440J0D01*
G01*
X9909500D01*
Y5722500D01*
X9907740D01*
G75*
G02*
X9657260I-125240J0D01*
G01*
X9604601D01*
G75*
G02*
X9623440Y5659000I-97601J-63500D01*
G01*
G75*
G02*
X9391490Y5644313I-116440J0D01*
G01*
Y5525500D01*
G75*
G02*
X9372272Y5491188I-40240J0D01*
G01*
G37*
X8889483Y6167000D02*
G36*
X8889483Y6167000D02*
G75*
G02*
X8970240Y6040000I-59483J-127000D01*
G01*
G75*
G02*
X8889483Y5913000I-140240J0D01*
G01*
G75*
G02*
X8970240Y5786000I-59483J-127000D01*
G01*
G75*
G02*
X8955040Y5722500I-140240J0D01*
G01*
X9409399D01*
G75*
G02*
X9604601I97601J-63500D01*
G01*
X9657260D01*
G75*
G02*
X9907740I125240J0D01*
G01*
X9909500D01*
Y6294000D01*
X8970240D01*
G75*
G02*
X8889483Y6167000I-140240J0D01*
G01*
G37*
Y6421000D02*
G36*
X8889483Y6421000D02*
G75*
G02*
X8970240Y6294000I-59483J-127000D01*
G01*
X9909500D01*
Y6484500D01*
X9907740D01*
G75*
G02*
X9657260I-125240J0D01*
G01*
X9604601D01*
G75*
G02*
X9409399I-97601J63500D01*
G01*
X8955040D01*
G75*
G02*
X8889483Y6421000I-125040J63500D01*
G01*
G37*
Y6675000D02*
G36*
X8889483Y6675000D02*
G75*
G02*
X8970240Y6548000I-59483J-127000D01*
G01*
G75*
G02*
X8955040Y6484500I-140240J0D01*
G01*
X9409399D01*
G75*
G02*
X9390560Y6548000I97601J63500D01*
G01*
G75*
G02*
X9623440I116440J0D01*
G01*
G75*
G02*
X9604601Y6484500I-116440J0D01*
G01*
X9657260D01*
G75*
G02*
X9907740I125240J0D01*
G01*
X9909500D01*
Y7373500D01*
X9123605D01*
Y7294125D01*
G75*
G02*
X9107206Y7254746I-55480J0D01*
G01*
X8960305Y7107845D01*
G75*
G02*
X8970240Y7056000I-130305J-51845D01*
G01*
G75*
G02*
X8950632Y6984480I-140240J0D01*
G01*
X9092770D01*
X9354760Y7246470D01*
Y7323250D01*
G75*
G02*
X9395000Y7363490I40240J0D01*
G01*
X9535000D01*
G75*
G02*
X9575240Y7323250I0J-40240D01*
G01*
Y7233250D01*
G75*
G02*
X9535000Y7193010I-40240J0D01*
G01*
X9458220D01*
X9155129Y6889919D01*
G75*
G02*
X9115750Y6873520I-39379J39081D01*
G01*
X8950632D01*
G75*
G02*
X8970240Y6802000I-120632J-71520D01*
G01*
G75*
G02*
X8889483Y6675000I-140240J0D01*
G01*
G37*
X9123605Y7627225D02*
G36*
X9123605Y7627225D02*
Y7373500D01*
X9909500D01*
Y7627225D01*
X9520480D01*
Y7553990D01*
X9535000D01*
G75*
G02*
X9575240Y7513750I0J-40240D01*
G01*
Y7423750D01*
G75*
G02*
X9535000Y7383510I-40240J0D01*
G01*
X9395000D01*
G75*
G02*
X9354760Y7423750I0J40240D01*
G01*
Y7513750D01*
G75*
G02*
X9395000Y7553990I40240J0D01*
G01*
X9409520D01*
Y7627225D01*
X9123605D01*
G37*
X9520480Y7655382D02*
G36*
X9520480Y7655382D02*
Y7627225D01*
X9909500D01*
Y7754500D01*
X9829815D01*
G75*
G02*
X9596935I-116440J0D01*
G01*
X9575815D01*
G75*
G02*
X9520480Y7655382I-116440J0D01*
G01*
G37*
X9123605Y8199000D02*
G36*
X9123605Y8199000D02*
Y7843960D01*
G75*
G02*
X9326575Y7754500I81770J-89460D01*
G01*
X9342935D01*
G75*
G02*
X9575815I116440J0D01*
G01*
X9596935D01*
G75*
G02*
X9829815I116440J0D01*
G01*
X9909500D01*
Y8199000D01*
X9907740D01*
G75*
G02*
X9657260I-125240J0D01*
G01*
X9604601D01*
G75*
G02*
X9623440Y8135500I-97601J-63500D01*
G01*
G75*
G02*
X9390560I-116440J0D01*
G01*
G75*
G02*
X9409399Y8199000I116440J0D01*
G01*
X9123605D01*
G37*
Y8497370D02*
G36*
X9123605Y8497370D02*
Y8199000D01*
X9409399D01*
G75*
G02*
X9604601I97601J-63500D01*
G01*
X9657260D01*
G75*
G02*
X9907740I125240J0D01*
G01*
X9909500D01*
Y8497370D01*
X9123605D01*
G37*
Y8961000D02*
G36*
X9123605Y8961000D02*
Y8497370D01*
X9909500D01*
Y8961000D01*
X9907740D01*
G75*
G02*
X9657260I-125240J0D01*
G01*
X9604601D01*
G75*
G02*
X9409399I-97601J63500D01*
G01*
X9123605D01*
G37*
Y9271395D02*
G36*
X9123605Y9271395D02*
Y8961000D01*
X9409399D01*
G75*
G02*
X9390560Y9024500I97601J63500D01*
G01*
G75*
G02*
X9623440I116440J0D01*
G01*
G75*
G02*
X9604601Y8961000I-116440J0D01*
G01*
X9657260D01*
G75*
G02*
X9907740I125240J0D01*
G01*
X9909500D01*
Y9280000D01*
X9132210D01*
X9123605Y9271395D01*
G37*
X9132210Y9280000D02*
G36*
X9132210Y9280000D02*
X9909500D01*
Y9500750D01*
X9352960D01*
X9132210Y9280000D01*
G37*
X9352960Y9500750D02*
G36*
X9352960Y9500750D02*
X9909500D01*
Y9818250D01*
X9634235D01*
G75*
G02*
X9638740Y9799750I-35735J-18500D01*
G01*
Y9709750D01*
G75*
G02*
X9598500Y9669510I-40240J0D01*
G01*
X9521720D01*
X9352960Y9500750D01*
G37*
X9044230Y9977000D02*
G36*
X9044230Y9977000D02*
Y9818250D01*
X9422765D01*
G75*
G02*
X9458500Y9839990I35735J-18500D01*
G01*
X9598500D01*
G75*
G02*
X9634235Y9818250I0J-40240D01*
G01*
X9909500D01*
Y9977000D01*
X9638740D01*
Y9900250D01*
G75*
G02*
X9598500Y9860010I-40240J0D01*
G01*
X9458500D01*
G75*
G02*
X9418260Y9900250I0J40240D01*
G01*
Y9977000D01*
X9044230D01*
G37*
X9583980Y10131882D02*
G36*
X9583980Y10131882D02*
Y10030490D01*
X9598500D01*
G75*
G02*
X9638740Y9990250I0J-40240D01*
G01*
Y9977000D01*
X9909500D01*
Y10231000D01*
X9893315D01*
G75*
G02*
X9660435I-116440J0D01*
G01*
X9639315D01*
G75*
G02*
X9583980Y10131882I-116440J0D01*
G01*
G37*
X9044230Y10580250D02*
G36*
X9044230Y10580250D02*
Y10231000D01*
X9147675D01*
G75*
G02*
X9390075I121200J0D01*
G01*
X9406435D01*
G75*
G02*
X9639315I116440J0D01*
G01*
X9660435D01*
G75*
G02*
X9893315I116440J0D01*
G01*
X9909500D01*
Y10580250D01*
X9863817D01*
G75*
G02*
X9701183I-81317J95250D01*
G01*
X9619028D01*
G75*
G02*
X9394972I-112028J31750D01*
G01*
X9044230D01*
G37*
X9863817D02*
G36*
X9863817Y10580250D02*
X9909500D01*
Y10687500D01*
X9907164D01*
G75*
G02*
X9907740Y10675500I-124664J-11998D01*
G01*
G75*
G02*
X9863817Y10580250I-125240J0D01*
G01*
G37*
X3555050Y11342250D02*
G36*
X3555050Y11342250D02*
Y10687500D01*
X6979260D01*
G75*
G02*
X7153697Y10823507I140240J0D01*
G01*
X7453470Y11123280D01*
G75*
G02*
X7504654Y11144365I50905J-50905D01*
G01*
X7887559D01*
G75*
G02*
X7927750Y11182615I40191J-1990D01*
G01*
X8017750D01*
G75*
G02*
X8057990Y11142375I0J-40240D01*
G01*
Y11002375D01*
G75*
G02*
X8017750Y10962135I-40240J0D01*
G01*
X7927750D01*
G75*
G02*
X7887559Y11000385I0J40240D01*
G01*
X7534195D01*
X7255507Y10721697D01*
G75*
G02*
X7259740Y10687500I-136007J-34196D01*
G01*
X7474500D01*
G75*
G02*
X7764500I145000J0D01*
G01*
X8660345D01*
G75*
G02*
X8631500Y10729500I16155J42000D01*
G01*
Y10829500D01*
G75*
G02*
X8676500Y10874500I45000J0D01*
G01*
X8856500D01*
G75*
G02*
X8901500Y10829500I0J-45000D01*
G01*
Y10729500D01*
G75*
G02*
X8872655Y10687500I-45000J0D01*
G01*
X8933270D01*
Y10770750D01*
G75*
G02*
X8949669Y10810129I55480J0D01*
G01*
X9525594Y11386054D01*
G75*
G02*
X9493192Y11385382I-18592J114946D01*
G01*
X9136405Y11028595D01*
G75*
G02*
X9085221Y11007510I-50905J50905D01*
G01*
X8890200D01*
G75*
G02*
X8856500Y10989260I-33700J21990D01*
G01*
X8676500D01*
G75*
G02*
X8648723Y11000385I0J40240D01*
G01*
X8248441D01*
G75*
G02*
X8208250Y10962135I-40191J1990D01*
G01*
X8118250D01*
G75*
G02*
X8078010Y11002375I0J40240D01*
G01*
Y11142375D01*
G75*
G02*
X8118250Y11182615I40240J0D01*
G01*
X8208250D01*
G75*
G02*
X8248441Y11144365I0J-40240D01*
G01*
X8639106D01*
G75*
G02*
X8676500Y11169740I37394J-14865D01*
G01*
X8856500D01*
G75*
G02*
X8890200Y11151490I0J-40240D01*
G01*
X9055680D01*
X9391382Y11487192D01*
G75*
G02*
X9390560Y11501000I115618J13811D01*
G01*
G75*
G02*
X9584145Y11588218I116440J0D01*
G01*
Y11605020D01*
X9489419Y11699746D01*
G75*
G02*
X9473020Y11739125I39081J39379D01*
G01*
Y12146010D01*
X9458500D01*
G75*
G02*
X9418260Y12186250I0J40240D01*
G01*
Y12276250D01*
G75*
G02*
X9458500Y12316490I40240J0D01*
G01*
X9598500D01*
G75*
G02*
X9638740Y12276250I0J-40240D01*
G01*
Y12186250D01*
G75*
G02*
X9598500Y12146010I-40240J0D01*
G01*
X9583980D01*
Y11762105D01*
X9678706Y11667379D01*
G75*
G02*
X9695105Y11628000I-39081J-39379D01*
G01*
Y11527206D01*
G75*
G02*
X9907740Y11437500I87395J-89706D01*
G01*
G75*
G02*
X9673063Y11376603I-125240J0D01*
G01*
X9044230Y10747770D01*
Y10687500D01*
X9418355D01*
G75*
G02*
X9595645I88645J-75500D01*
G01*
X9657836D01*
G75*
G02*
X9907164I124664J-12000D01*
G01*
X9909500D01*
Y12707500D01*
X9893315D01*
G75*
G02*
X9660435I-116440J0D01*
G01*
X9639315D01*
G75*
G02*
X9583980Y12608382I-116440J0D01*
G01*
Y12506990D01*
X9598500D01*
G75*
G02*
X9638740Y12466750I0J-40240D01*
G01*
Y12376750D01*
G75*
G02*
X9598500Y12336510I-40240J0D01*
G01*
X9458500D01*
G75*
G02*
X9418260Y12376750I0J40240D01*
G01*
Y12466750D01*
G75*
G02*
X9458500Y12506990I40240J0D01*
G01*
X9473020D01*
Y12602273D01*
G75*
G02*
X9406435Y12707500I49855J105227D01*
G01*
X9390075D01*
G75*
G02*
X9147675I-121200J0D01*
G01*
X9115750D01*
Y11548625D01*
X8909375Y11342250D01*
X3555050D01*
G37*
X9115750Y12834500D02*
G36*
X9115750Y12834500D02*
Y12707500D01*
X9147675D01*
G75*
G02*
X9390075I121200J0D01*
G01*
X9406435D01*
G75*
G02*
X9639315I116440J0D01*
G01*
X9660435D01*
G75*
G02*
X9893315I116440J0D01*
G01*
X9909500D01*
Y12834500D01*
X9115750D01*
G37*
X9472845Y4793895D02*
G36*
X9472845Y4793895D02*
G75*
G02*
X9476740Y4770000I-71345J-23895D01*
G01*
G75*
G02*
X9473490Y4748125I-75240J0D01*
G01*
Y4696441D01*
G75*
G02*
X9499002Y4685625I-1990J-40191D01*
G01*
X10074165D01*
X9965895Y4793895D01*
X9472845D01*
G37*
X10231085Y4685625D02*
G36*
X10231085Y4685625D02*
X10307260Y4609450D01*
Y4656250D01*
G75*
G02*
X10319998Y4685625I40240J0D01*
G01*
X10231085D01*
G37*
X10553309Y3898745D02*
G36*
X10553309Y3898745D02*
G75*
G02*
X10561285Y3886157I-114306J-81248D01*
G01*
G75*
G02*
X10568899Y3898745I127717J-68654D01*
G01*
X10553309D01*
G37*
X8194501Y4873105D02*
G36*
X8194501Y4873105D02*
X8283145D01*
X8298496Y4888456D01*
G75*
G02*
X8337875Y4904855I39379J-39081D01*
G01*
X9988875D01*
G75*
G02*
X10028254Y4888456I0J-55480D01*
G01*
X10231085Y4685625D01*
X10319998D01*
G75*
G02*
X10345510Y4696441I27502J-29375D01*
G01*
Y4748125D01*
G75*
G02*
X10342260Y4770000I71990J21875D01*
G01*
G75*
G02*
X10492740I75240J0D01*
G01*
G75*
G02*
X10489490Y4748125I-75240J0D01*
G01*
Y4696441D01*
G75*
G02*
X10515002Y4685625I-1990J-40191D01*
G01*
X11090165D01*
X10852990Y4922800D01*
X8195240D01*
Y4880780D01*
G75*
G02*
X8194501Y4873105I-40240J1D01*
G01*
G37*
X11247085Y4685625D02*
G36*
X11247085Y4685625D02*
X11323260Y4609450D01*
Y4656250D01*
G75*
G02*
X11335998Y4685625I40240J0D01*
G01*
X11247085D01*
G37*
X11569309Y3898745D02*
G36*
X11569309Y3898745D02*
G75*
G02*
X11577285Y3886157I-114306J-81248D01*
G01*
G75*
G02*
X11584899Y3898745I127717J-68654D01*
G01*
X11569309D01*
G37*
X3555050Y3514250D02*
G36*
X3555050Y3514250D02*
G75*
G03*
X3764250Y3305050I209200J0D01*
G01*
X12264250D01*
G75*
G03*
X12473450Y3514250I0J209200D01*
G01*
X12459490D01*
G75*
G02*
X12069010I-195240J0D01*
G01*
X3959490D01*
G75*
G02*
X3569010I-195240J0D01*
G01*
X3555050D01*
G37*
Y3898745D02*
G36*
X3555050Y3898745D02*
Y3514250D01*
X3569010D01*
G75*
G02*
X3959490I195240J0D01*
G01*
X12069010D01*
G75*
G02*
X12459490I195240J0D01*
G01*
X12473450D01*
Y3898745D01*
X11825101D01*
G75*
G02*
X11850000Y3817500I-120101J-81245D01*
G01*
G75*
G02*
X11577285Y3748843I-145000J0D01*
G01*
G75*
G02*
X11314760Y3817500I-122285J68657D01*
G01*
G75*
G02*
X11340691Y3898745I140240J0D01*
G01*
X10809101D01*
G75*
G02*
X10834000Y3817500I-120101J-81245D01*
G01*
G75*
G02*
X10561285Y3748843I-145000J0D01*
G01*
G75*
G02*
X10298760Y3817500I-122285J68657D01*
G01*
G75*
G02*
X10324691Y3898745I140240J0D01*
G01*
X9793101D01*
G75*
G02*
X9818000Y3817500I-120101J-81245D01*
G01*
G75*
G02*
X9545285Y3748843I-145000J0D01*
G01*
G75*
G02*
X9282760Y3817500I-122285J68657D01*
G01*
G75*
G02*
X9308691Y3898745I140240J0D01*
G01*
X8777101D01*
G75*
G02*
X8802000Y3817500I-120101J-81245D01*
G01*
G75*
G02*
X8529285Y3748843I-145000J0D01*
G01*
G75*
G02*
X8266760Y3817500I-122285J68657D01*
G01*
G75*
G02*
X8292691Y3898745I140240J0D01*
G01*
X7761101D01*
G75*
G02*
X7786000Y3817500I-120101J-81245D01*
G01*
G75*
G02*
X7513285Y3748843I-145000J0D01*
G01*
G75*
G02*
X7250760Y3817500I-122285J68657D01*
G01*
G75*
G02*
X7276691Y3898745I140240J0D01*
G01*
X6745101D01*
G75*
G02*
X6770000Y3817500I-120101J-81245D01*
G01*
G75*
G02*
X6497285Y3748843I-145000J0D01*
G01*
G75*
G02*
X6234760Y3817500I-122285J68657D01*
G01*
G75*
G02*
X6260691Y3898745I140240J0D01*
G01*
X5729101D01*
G75*
G02*
X5754000Y3817500I-120101J-81245D01*
G01*
G75*
G02*
X5481285Y3748843I-145000J0D01*
G01*
G75*
G02*
X5218760Y3817500I-122285J68657D01*
G01*
G75*
G02*
X5244691Y3898745I140240J0D01*
G01*
X4713101D01*
G75*
G02*
X4738000Y3817500I-120101J-81245D01*
G01*
G75*
G02*
X4465285Y3748843I-145000J0D01*
G01*
G75*
G02*
X4202760Y3817500I-122285J68657D01*
G01*
G75*
G02*
X4228691Y3898745I140240J0D01*
G01*
X3555050D01*
G37*
Y4685625D02*
G36*
X3555050Y4685625D02*
Y3898745D01*
X4228691D01*
G75*
G02*
X4313250Y3954548I114309J-81245D01*
G01*
G75*
G02*
X4274760Y3994750I1750J40202D01*
G01*
Y4084750D01*
G75*
G02*
X4315000Y4124990I40240J0D01*
G01*
X4455000D01*
G75*
G02*
X4495240Y4084750I0J-40240D01*
G01*
Y3994750D01*
G75*
G02*
X4455000Y3954510I-40240J0D01*
G01*
X4440480D01*
Y3918321D01*
G75*
G02*
X4457309Y3898745I-97479J-100822D01*
G01*
X4472899D01*
G75*
G02*
X4713101I120101J-81245D01*
G01*
X5244691D01*
G75*
G02*
X5329250Y3954548I114309J-81245D01*
G01*
G75*
G02*
X5290760Y3994750I1750J40202D01*
G01*
Y4084750D01*
G75*
G02*
X5331000Y4124990I40240J0D01*
G01*
X5471000D01*
G75*
G02*
X5511240Y4084750I0J-40240D01*
G01*
Y3994750D01*
G75*
G02*
X5471000Y3954510I-40240J0D01*
G01*
X5456480D01*
Y3918321D01*
G75*
G02*
X5473309Y3898745I-97479J-100822D01*
G01*
X5488899D01*
G75*
G02*
X5729101I120101J-81245D01*
G01*
X6260691D01*
G75*
G02*
X6345250Y3954548I114309J-81245D01*
G01*
G75*
G02*
X6306760Y3994750I1750J40202D01*
G01*
Y4084750D01*
G75*
G02*
X6347000Y4124990I40240J0D01*
G01*
X6487000D01*
G75*
G02*
X6527240Y4084750I0J-40240D01*
G01*
Y3994750D01*
G75*
G02*
X6487000Y3954510I-40240J0D01*
G01*
X6472480D01*
Y3918321D01*
G75*
G02*
X6489309Y3898745I-97479J-100822D01*
G01*
X6504899D01*
G75*
G02*
X6745101I120101J-81245D01*
G01*
X7276691D01*
G75*
G02*
X7361250Y3954548I114309J-81245D01*
G01*
G75*
G02*
X7322760Y3994750I1750J40202D01*
G01*
Y4084750D01*
G75*
G02*
X7363000Y4124990I40240J0D01*
G01*
X7503000D01*
G75*
G02*
X7543240Y4084750I0J-40240D01*
G01*
Y3994750D01*
G75*
G02*
X7503000Y3954510I-40240J0D01*
G01*
X7488480D01*
Y3918321D01*
G75*
G02*
X7505309Y3898745I-97479J-100822D01*
G01*
X7520899D01*
G75*
G02*
X7761101I120101J-81245D01*
G01*
X8292691D01*
G75*
G02*
X8330020Y3934723I114308J-81246D01*
G01*
Y3954510D01*
X8315500D01*
G75*
G02*
X8275260Y3994750I0J40240D01*
G01*
Y4084750D01*
G75*
G02*
X8315500Y4124990I40240J0D01*
G01*
X8455500D01*
G75*
G02*
X8495740Y4084750I0J-40240D01*
G01*
Y3994750D01*
G75*
G02*
X8455500Y3954510I-40240J0D01*
G01*
X8440980D01*
Y3953561D01*
G75*
G02*
X8521309Y3898745I-33979J-136061D01*
G01*
X8536899D01*
G75*
G02*
X8777101I120101J-81245D01*
G01*
X9308691D01*
G75*
G02*
X9346020Y3934723I114308J-81246D01*
G01*
Y3954510D01*
X9331500D01*
G75*
G02*
X9291260Y3994750I0J40240D01*
G01*
Y4084750D01*
G75*
G02*
X9331500Y4124990I40240J0D01*
G01*
X9471500D01*
G75*
G02*
X9511740Y4084750I0J-40240D01*
G01*
Y3994750D01*
G75*
G02*
X9471500Y3954510I-40240J0D01*
G01*
X9456980D01*
Y3953561D01*
G75*
G02*
X9537309Y3898745I-33979J-136061D01*
G01*
X9552899D01*
G75*
G02*
X9793101I120101J-81245D01*
G01*
X10324691D01*
G75*
G02*
X10362020Y3934723I114308J-81246D01*
G01*
Y3954510D01*
X10347500D01*
G75*
G02*
X10307260Y3994750I0J40240D01*
G01*
Y4084750D01*
G75*
G02*
X10347500Y4124990I40240J0D01*
G01*
X10487500D01*
G75*
G02*
X10527740Y4084750I0J-40240D01*
G01*
Y3994750D01*
G75*
G02*
X10487500Y3954510I-40240J0D01*
G01*
X10472980D01*
Y3953561D01*
G75*
G02*
X10553309Y3898745I-33979J-136061D01*
G01*
X10568899D01*
G75*
G02*
X10809101I120101J-81245D01*
G01*
X11340691D01*
G75*
G02*
X11378020Y3934723I114308J-81246D01*
G01*
Y3954510D01*
X11363500D01*
G75*
G02*
X11323260Y3994750I0J40240D01*
G01*
Y4084750D01*
G75*
G02*
X11363500Y4124990I40240J0D01*
G01*
X11503500D01*
G75*
G02*
X11543740Y4084750I0J-40240D01*
G01*
Y3994750D01*
G75*
G02*
X11503500Y3954510I-40240J0D01*
G01*
X11488980D01*
Y3953561D01*
G75*
G02*
X11569309Y3898745I-33979J-136061D01*
G01*
X11584899D01*
G75*
G02*
X11825101I120101J-81245D01*
G01*
X12473450D01*
Y4685625D01*
X11531002D01*
G75*
G02*
X11543740Y4656250I-27502J-29375D01*
G01*
Y4566250D01*
G75*
G02*
X11503500Y4526010I-40240J0D01*
G01*
X11406700D01*
X11426720Y4505990D01*
X11503500D01*
G75*
G02*
X11528750Y4497082I0J-40240D01*
G01*
G75*
G02*
X11554000Y4505990I25250J-31332D01*
G01*
X11694000D01*
G75*
G02*
X11734240Y4465750I0J-40240D01*
G01*
Y4375750D01*
G75*
G02*
X11694000Y4335510I-40240J0D01*
G01*
X11554000D01*
G75*
G02*
X11528750Y4344418I0J40240D01*
G01*
G75*
G02*
X11503500Y4335510I-25250J31332D01*
G01*
X11488980D01*
Y4315490D01*
X11503500D01*
G75*
G02*
X11524733Y4309432I0J-40240D01*
G01*
G75*
G02*
X11554000Y4320250I29268J-34182D01*
G01*
X11694000D01*
G75*
G02*
X11739000Y4275250I0J-45000D01*
G01*
Y4185250D01*
G75*
G02*
X11694000Y4140250I-45000J0D01*
G01*
X11554000D01*
G75*
G02*
X11524733Y4151068I1J45000D01*
G01*
G75*
G02*
X11503500Y4145010I-21233J34182D01*
G01*
X11363500D01*
G75*
G02*
X11323260Y4185250I0J40240D01*
G01*
Y4275250D01*
G75*
G02*
X11363500Y4315490I40240J0D01*
G01*
X11378020D01*
Y4335510D01*
X11363500D01*
G75*
G02*
X11323260Y4375750I0J40240D01*
G01*
Y4452530D01*
X11090165Y4685625D01*
X10515002D01*
G75*
G02*
X10527740Y4656250I-27502J-29375D01*
G01*
Y4566250D01*
G75*
G02*
X10487500Y4526010I-40240J0D01*
G01*
X10390700D01*
X10410720Y4505990D01*
X10487500D01*
G75*
G02*
X10512750Y4497082I0J-40240D01*
G01*
G75*
G02*
X10538000Y4505990I25250J-31332D01*
G01*
X10678000D01*
G75*
G02*
X10718240Y4465750I0J-40240D01*
G01*
Y4375750D01*
G75*
G02*
X10678000Y4335510I-40240J0D01*
G01*
X10538000D01*
G75*
G02*
X10512750Y4344418I0J40240D01*
G01*
G75*
G02*
X10487500Y4335510I-25250J31332D01*
G01*
X10472980D01*
Y4315490D01*
X10487500D01*
G75*
G02*
X10508733Y4309432I0J-40240D01*
G01*
G75*
G02*
X10538000Y4320250I29268J-34182D01*
G01*
X10678000D01*
G75*
G02*
X10723000Y4275250I0J-45000D01*
G01*
Y4185250D01*
G75*
G02*
X10678000Y4140250I-45000J0D01*
G01*
X10538000D01*
G75*
G02*
X10508733Y4151068I1J45000D01*
G01*
G75*
G02*
X10487500Y4145010I-21233J34182D01*
G01*
X10347500D01*
G75*
G02*
X10307260Y4185250I0J40240D01*
G01*
Y4275250D01*
G75*
G02*
X10347500Y4315490I40240J0D01*
G01*
X10362020D01*
Y4335510D01*
X10347500D01*
G75*
G02*
X10307260Y4375750I0J40240D01*
G01*
Y4452530D01*
X10074165Y4685625D01*
X9499002D01*
G75*
G02*
X9511740Y4656250I-27502J-29375D01*
G01*
Y4566250D01*
G75*
G02*
X9471500Y4526010I-40240J0D01*
G01*
X9374700D01*
X9394720Y4505990D01*
X9471500D01*
G75*
G02*
X9496750Y4497082I0J-40240D01*
G01*
G75*
G02*
X9522000Y4505990I25250J-31332D01*
G01*
X9662000D01*
G75*
G02*
X9702240Y4465750I0J-40240D01*
G01*
Y4375750D01*
G75*
G02*
X9662000Y4335510I-40240J0D01*
G01*
X9522000D01*
G75*
G02*
X9496750Y4344418I0J40240D01*
G01*
G75*
G02*
X9471500Y4335510I-25250J31332D01*
G01*
X9456980D01*
Y4315490D01*
X9471500D01*
G75*
G02*
X9492733Y4309432I0J-40240D01*
G01*
G75*
G02*
X9522000Y4320250I29268J-34182D01*
G01*
X9662000D01*
G75*
G02*
X9707000Y4275250I0J-45000D01*
G01*
Y4185250D01*
G75*
G02*
X9662000Y4140250I-45000J0D01*
G01*
X9522000D01*
G75*
G02*
X9492733Y4151068I1J45000D01*
G01*
G75*
G02*
X9471500Y4145010I-21233J34182D01*
G01*
X9331500D01*
G75*
G02*
X9291260Y4185250I0J40240D01*
G01*
Y4275250D01*
G75*
G02*
X9331500Y4315490I40240J0D01*
G01*
X9346020D01*
Y4335510D01*
X9331500D01*
G75*
G02*
X9291260Y4375750I0J40240D01*
G01*
Y4452530D01*
X9283270Y4460520D01*
X8686240D01*
Y4375750D01*
G75*
G02*
X8646000Y4335510I-40240J0D01*
G01*
X8506000D01*
G75*
G02*
X8480750Y4344418I0J40240D01*
G01*
G75*
G02*
X8455500Y4335510I-25250J31332D01*
G01*
X8440980D01*
Y4315490D01*
X8455500D01*
G75*
G02*
X8476733Y4309432I0J-40240D01*
G01*
G75*
G02*
X8506000Y4320250I29268J-34182D01*
G01*
X8646000D01*
G75*
G02*
X8691000Y4275250I0J-45000D01*
G01*
Y4185250D01*
G75*
G02*
X8646000Y4140250I-45000J0D01*
G01*
X8506000D01*
G75*
G02*
X8476733Y4151068I1J45000D01*
G01*
G75*
G02*
X8455500Y4145010I-21233J34182D01*
G01*
X8315500D01*
G75*
G02*
X8275260Y4185250I0J40240D01*
G01*
Y4275250D01*
G75*
G02*
X8315500Y4315490I40240J0D01*
G01*
X8330020D01*
Y4335510D01*
X8315500D01*
G75*
G02*
X8276649Y4365270I0J40240D01*
G01*
X7893375D01*
G75*
G02*
X7853996Y4381669I0J55480D01*
G01*
X7707419Y4528246D01*
G75*
G02*
X7691020Y4567625I39081J39379D01*
G01*
Y4685625D01*
X7678980D01*
Y4505990D01*
X7693500D01*
G75*
G02*
X7733740Y4465750I0J-40240D01*
G01*
Y4375750D01*
G75*
G02*
X7693500Y4335510I-40240J0D01*
G01*
X7553500D01*
G75*
G02*
X7528250Y4344418I0J40240D01*
G01*
G75*
G02*
X7503000Y4335510I-25250J31332D01*
G01*
X7488480D01*
Y4315490D01*
X7503000D01*
G75*
G02*
X7524233Y4309432I0J-40240D01*
G01*
G75*
G02*
X7553500Y4320250I29268J-34182D01*
G01*
X7693500D01*
G75*
G02*
X7738500Y4275250I0J-45000D01*
G01*
Y4185250D01*
G75*
G02*
X7693500Y4140250I-45000J0D01*
G01*
X7553500D01*
G75*
G02*
X7524233Y4151068I1J45000D01*
G01*
G75*
G02*
X7503000Y4145010I-21233J34182D01*
G01*
X7363000D01*
G75*
G02*
X7322760Y4185250I0J40240D01*
G01*
Y4275250D01*
G75*
G02*
X7363000Y4315490I40240J0D01*
G01*
X7377520D01*
Y4335510D01*
X7363000D01*
G75*
G02*
X7322760Y4375750I0J40240D01*
G01*
Y4465750D01*
G75*
G02*
X7363000Y4505990I40240J0D01*
G01*
X7503000D01*
G75*
G02*
X7528250Y4497082I0J-40240D01*
G01*
G75*
G02*
X7553500Y4505990I25250J-31332D01*
G01*
X7568020D01*
Y4685625D01*
X7530502D01*
G75*
G02*
X7543240Y4656250I-27502J-29375D01*
G01*
Y4566250D01*
G75*
G02*
X7503000Y4526010I-40240J0D01*
G01*
X7363000D01*
G75*
G02*
X7322760Y4566250I0J40240D01*
G01*
Y4656250D01*
G75*
G02*
X7335498Y4685625I40240J0D01*
G01*
X7331835D01*
X7027879Y4381669D01*
G75*
G02*
X6988500Y4365270I-39379J39081D01*
G01*
X6716351D01*
G75*
G02*
X6677500Y4335510I-38851J10480D01*
G01*
X6537500D01*
G75*
G02*
X6512250Y4344418I0J40240D01*
G01*
G75*
G02*
X6487000Y4335510I-25250J31332D01*
G01*
X6472480D01*
Y4315490D01*
X6487000D01*
G75*
G02*
X6508233Y4309432I0J-40240D01*
G01*
G75*
G02*
X6537500Y4320250I29268J-34182D01*
G01*
X6677500D01*
G75*
G02*
X6722500Y4275250I0J-45000D01*
G01*
Y4185250D01*
G75*
G02*
X6677500Y4140250I-45000J0D01*
G01*
X6537500D01*
G75*
G02*
X6508233Y4151068I1J45000D01*
G01*
G75*
G02*
X6487000Y4145010I-21233J34182D01*
G01*
X6347000D01*
G75*
G02*
X6306760Y4185250I0J40240D01*
G01*
Y4275250D01*
G75*
G02*
X6347000Y4315490I40240J0D01*
G01*
X6361520D01*
Y4335510D01*
X6347000D01*
G75*
G02*
X6306760Y4375750I0J40240D01*
G01*
Y4460520D01*
X5868480D01*
X5789629Y4381669D01*
G75*
G02*
X5750250Y4365270I-39379J39081D01*
G01*
X5700351D01*
G75*
G02*
X5661500Y4335510I-38851J10480D01*
G01*
X5521500D01*
G75*
G02*
X5496250Y4344418I0J40240D01*
G01*
G75*
G02*
X5471000Y4335510I-25250J31332D01*
G01*
X5456480D01*
Y4315490D01*
X5471000D01*
G75*
G02*
X5492233Y4309432I0J-40240D01*
G01*
G75*
G02*
X5521500Y4320250I29268J-34182D01*
G01*
X5661500D01*
G75*
G02*
X5706500Y4275250I0J-45000D01*
G01*
Y4185250D01*
G75*
G02*
X5661500Y4140250I-45000J0D01*
G01*
X5521500D01*
G75*
G02*
X5492233Y4151068I1J45000D01*
G01*
G75*
G02*
X5471000Y4145010I-21233J34182D01*
G01*
X5331000D01*
G75*
G02*
X5290760Y4185250I0J40240D01*
G01*
Y4275250D01*
G75*
G02*
X5331000Y4315490I40240J0D01*
G01*
X5345520D01*
Y4335510D01*
X5331000D01*
G75*
G02*
X5290760Y4375750I0J40240D01*
G01*
Y4465750D01*
G75*
G02*
X5331000Y4505990I40240J0D01*
G01*
X5471000D01*
G75*
G02*
X5496250Y4497082I0J-40240D01*
G01*
G75*
G02*
X5521500Y4505990I25250J-31332D01*
G01*
X5661500D01*
G75*
G02*
X5700351Y4476230I0J-40240D01*
G01*
X5727270D01*
X5806121Y4555081D01*
G75*
G02*
X5845500Y4571480I39379J-39081D01*
G01*
X6306760D01*
Y4656250D01*
G75*
G02*
X6319498Y4685625I40240J0D01*
G01*
X5498502D01*
G75*
G02*
X5511240Y4656250I-27502J-29375D01*
G01*
Y4566250D01*
G75*
G02*
X5471000Y4526010I-40240J0D01*
G01*
X5331000D01*
G75*
G02*
X5290760Y4566250I0J40240D01*
G01*
Y4656250D01*
G75*
G02*
X5303498Y4685625I40240J0D01*
G01*
X4918835D01*
X4685740Y4452530D01*
Y4375750D01*
G75*
G02*
X4645500Y4335510I-40240J0D01*
G01*
X4505500D01*
G75*
G02*
X4480250Y4344418I0J40240D01*
G01*
G75*
G02*
X4455000Y4335510I-25250J31332D01*
G01*
X4440480D01*
Y4315490D01*
X4455000D01*
G75*
G02*
X4476233Y4309432I0J-40240D01*
G01*
G75*
G02*
X4505500Y4320250I29268J-34182D01*
G01*
X4645500D01*
G75*
G02*
X4690500Y4275250I0J-45000D01*
G01*
Y4185250D01*
G75*
G02*
X4645500Y4140250I-45000J0D01*
G01*
X4505500D01*
G75*
G02*
X4476233Y4151068I1J45000D01*
G01*
G75*
G02*
X4455000Y4145010I-21233J34182D01*
G01*
X4315000D01*
G75*
G02*
X4274760Y4185250I0J40240D01*
G01*
Y4275250D01*
G75*
G02*
X4315000Y4315490I40240J0D01*
G01*
X4329520D01*
Y4335510D01*
X4315000D01*
G75*
G02*
X4274760Y4375750I0J40240D01*
G01*
Y4465750D01*
G75*
G02*
X4315000Y4505990I40240J0D01*
G01*
X4455000D01*
G75*
G02*
X4480250Y4497082I0J-40240D01*
G01*
G75*
G02*
X4505500Y4505990I25250J-31332D01*
G01*
X4582280D01*
X4761915Y4685625D01*
X4482502D01*
G75*
G02*
X4495240Y4656250I-27502J-29375D01*
G01*
Y4566250D01*
G75*
G02*
X4455000Y4526010I-40240J0D01*
G01*
X4315000D01*
G75*
G02*
X4274760Y4566250I0J40240D01*
G01*
Y4656250D01*
G75*
G02*
X4287498Y4685625I40240J0D01*
G01*
X3555050D01*
G37*
X10973950Y4958760D02*
G36*
X10973950Y4958760D02*
X11247085Y4685625D01*
X11335998D01*
G75*
G02*
X11361510Y4696441I27502J-29375D01*
G01*
Y4748125D01*
G75*
G02*
X11358260Y4770000I71990J21875D01*
G01*
G75*
G02*
X11508740I75240J0D01*
G01*
G75*
G02*
X11505490Y4748125I-75240J0D01*
G01*
Y4696441D01*
G75*
G02*
X11531002Y4685625I-1990J-40191D01*
G01*
X12473450D01*
Y4958760D01*
X10973950D01*
G37*
X3555050Y14914250D02*
Y11453375D01*
X8845875D01*
X9004625Y11612125D01*
Y12929750D01*
X10020625D01*
Y5033760D01*
X10875970D01*
G75*
G02*
X10907398Y5024000I0J-55480D01*
G01*
X12473450D01*
Y5443500D01*
X11560500D01*
G75*
G02*
X11546390Y5447862I-1J25000D01*
G01*
G75*
G02*
Y5997138I14110J274638D01*
G01*
G75*
G02*
X11560500Y6001500I14109J-20638D01*
G01*
X12473450D01*
Y6205500D01*
X11751000D01*
G75*
G02*
X11726000Y6230500I0J25000D01*
G01*
Y6738500D01*
G75*
G02*
X11751000Y6763500I25000J0D01*
G01*
X12473450D01*
Y7920000D01*
X11560500D01*
G75*
G02*
X11546390Y7924362I-1J25000D01*
G01*
G75*
G02*
Y8473638I14110J274638D01*
G01*
G75*
G02*
X11560500Y8478000I14109J-20638D01*
G01*
X12473450D01*
Y8682000D01*
X11751000D01*
G75*
G02*
X11726000Y8707000I0J25000D01*
G01*
Y9215000D01*
G75*
G02*
X11751000Y9240000I25000J0D01*
G01*
X12473450D01*
Y10396500D01*
X11560500D01*
G75*
G02*
X11546390Y10400862I-1J25000D01*
G01*
G75*
G02*
Y10950138I14110J274638D01*
G01*
G75*
G02*
X11560500Y10954500I14109J-20638D01*
G01*
X12473450D01*
Y11158500D01*
X11751000D01*
G75*
G02*
X11726000Y11183500I0J25000D01*
G01*
Y11691500D01*
G75*
G02*
X11751000Y11716500I25000J0D01*
G01*
X12473450D01*
Y12873000D01*
X11560500D01*
G75*
G02*
X11546390Y12877362I-1J25000D01*
G01*
G75*
G02*
Y13426638I14110J274638D01*
G01*
G75*
G02*
X11560500Y13431000I14109J-20638D01*
G01*
X12473450D01*
Y13635000D01*
X11751000D01*
G75*
G02*
X11726000Y13660000I0J25000D01*
G01*
Y14168000D01*
G75*
G02*
X11751000Y14193000I25000J0D01*
G01*
X12473450D01*
Y14914250D01*
G75*
G03*
X12264250Y15123450I-209200J0D01*
G01*
X3764250D01*
G75*
G03*
X3555050Y14914250I0J-209200D01*
G01*
X4173500Y11882000D02*
G75*
G02*
X4723500I275000J0D01*
G01*
G75*
G02*
X4173500I-275000J0D01*
G01*
Y13406000D02*
G75*
G02*
X4723500I275000J0D01*
G01*
G75*
G02*
X4173500I-275000J0D01*
G01*
X6628000Y13215500D02*
G75*
G02*
X5978000I-325000J0D01*
G01*
G75*
G02*
X6628000I325000J0D01*
G01*
X6894500Y12187500D02*
G75*
G02*
X6344500I-275000J0D01*
G01*
G75*
G02*
X6894500I275000J0D01*
G01*
X6628000Y14231500D02*
G75*
G02*
X5978000I-325000J0D01*
G01*
G75*
G02*
X6628000I325000J0D01*
G01*
X8394500Y12187500D02*
G75*
G02*
X7844500I-275000J0D01*
G01*
G75*
G02*
X8394500I275000J0D01*
G01*
X8332625Y14461875D02*
X8506826Y14636076D01*
G75*
G02*
X8737625Y14731925I230799J-229951D01*
G01*
X10512750D01*
G75*
G02*
X10743549Y14636076I0J-325800D01*
G01*
X11028451Y14351174D01*
G75*
G02*
X11124300Y14120375I-229951J-230799D01*
G01*
Y13152000D01*
G75*
G02*
X11123500Y13129182I-325800J0D01*
G01*
Y5722500D01*
G75*
G02*
X10473500I-325000J0D01*
G01*
Y13129182D01*
G75*
G02*
X10472700Y13152000I325000J22818D01*
G01*
Y13985425D01*
X10377800Y14080325D01*
X9561638D01*
G75*
G02*
X9623440Y13977500I-54638J-102825D01*
G01*
G75*
G02*
X9390560I-116440J0D01*
G01*
G75*
G02*
X9452362Y14080325I116440J0D01*
G01*
X8872575D01*
X8793375Y14001125D01*
G75*
G02*
X8332625Y14461875I-230375J230375D01*
G01*
X9907740Y13152000D02*
G75*
G02*
X9657260I-125240J0D01*
G01*
G75*
G02*
X9907740I125240J0D01*
G01*
Y13914000D02*
G75*
G02*
X9657260I-125240J0D01*
G01*
G75*
G02*
X9907740I125240J0D01*
G01*
X9623440Y13088500D02*
G75*
G02*
X9390560I-116440J0D01*
G01*
G75*
G02*
X9623440I116440J0D01*
G01*
X8888000Y13215500D02*
G75*
G02*
X8238000I-325000J0D01*
G01*
G75*
G02*
X8888000I325000J0D01*
G01*
X12459490Y14914250D02*
G75*
G02*
X12069010I-195240J0D01*
G01*
G75*
G02*
X12459490I195240J0D01*
G01*
X3959490D02*
G75*
G02*
X3569010I-195240J0D01*
G01*
G75*
G02*
X3959490I195240J0D01*
G01*
X3555050Y13406000D02*
G36*
X3555050Y13406000D02*
Y13152000D01*
X4343101D01*
G75*
G02*
X4173500Y13406000I105399J254000D01*
G01*
X3555050D01*
G37*
X4553899Y13152000D02*
G36*
X4553899Y13152000D02*
X5984264D01*
G75*
G02*
X5978000Y13215500I318736J63501D01*
G01*
G75*
G02*
X6039685Y13406000I325000J0D01*
G01*
X4723500D01*
G75*
G02*
X4553899Y13152000I-275000J0D01*
G01*
G37*
X3555050Y14231500D02*
G36*
X3555050Y14231500D02*
Y13914000D01*
X6233583D01*
G75*
G02*
X5978000Y14231500I69417J317500D01*
G01*
X3555050D01*
G37*
X6566315Y13406000D02*
G36*
X6566315Y13406000D02*
G75*
G02*
X6628000Y13215500I-263315J-190500D01*
G01*
G75*
G02*
X6621736Y13152000I-325000J1D01*
G01*
X8244264D01*
G75*
G02*
X8238000Y13215500I318736J63501D01*
G01*
G75*
G02*
X8299685Y13406000I325000J0D01*
G01*
X6566315D01*
G37*
X6372417Y13914000D02*
G36*
X6372417Y13914000D02*
X8489931D01*
G75*
G02*
X8237201Y14231500I73069J317500D01*
G01*
X6628000D01*
G75*
G02*
X6372417Y13914000I-325000J0D01*
G01*
G37*
X3555050Y11882000D02*
G36*
X3555050Y11882000D02*
Y11453375D01*
X8845875D01*
X9004625Y11612125D01*
Y11882000D01*
X4723500D01*
G75*
G02*
X4173500I-275000J0D01*
G01*
X3555050D01*
G37*
Y12187500D02*
G36*
X3555050Y12187500D02*
Y11882000D01*
X4173500D01*
G75*
G02*
X4723500I275000J0D01*
G01*
X9004625D01*
Y12187500D01*
X8394500D01*
G75*
G02*
X7844500I-275000J0D01*
G01*
X6894500D01*
G75*
G02*
X6344500I-275000J0D01*
G01*
X3555050D01*
G37*
X8636069Y13914000D02*
G36*
X8636069Y13914000D02*
X9409399D01*
G75*
G02*
X9390560Y13977500I97601J63500D01*
G01*
G75*
G02*
X9452362Y14080325I116440J0D01*
G01*
X8872575D01*
X8793375Y14001125D01*
G75*
G02*
X8636069Y13914000I-230375J230375D01*
G01*
G37*
X8826315Y13406000D02*
G36*
X8826315Y13406000D02*
G75*
G02*
X8888000Y13215500I-263315J-190500D01*
G01*
G75*
G02*
X8881736Y13152000I-325000J1D01*
G01*
X9409399D01*
G75*
G02*
X9604601I97601J-63500D01*
G01*
X9657260D01*
G75*
G02*
X9907740I125240J0D01*
G01*
X10472700D01*
Y13406000D01*
X8826315D01*
G37*
X3555050Y13914000D02*
G36*
X3555050Y13914000D02*
Y13406000D01*
X4173500D01*
G75*
G02*
X4723500I275000J0D01*
G01*
X6039685D01*
G75*
G02*
X6566315I263315J-190500D01*
G01*
X8299685D01*
G75*
G02*
X8826315I263315J-190500D01*
G01*
X10472700D01*
Y13914000D01*
X9907740D01*
G75*
G02*
X9657260I-125240J0D01*
G01*
X9604601D01*
G75*
G02*
X9409399I-97601J63500D01*
G01*
X8636069D01*
G75*
G02*
X8489931I-73069J317500D01*
G01*
X6372417D01*
G75*
G02*
X6233583I-69417J317500D01*
G01*
X3555050D01*
G37*
X9561638Y14080325D02*
G36*
X9561638Y14080325D02*
G75*
G02*
X9623440Y13977500I-54638J-102825D01*
G01*
G75*
G02*
X9604601Y13914000I-116440J0D01*
G01*
X9657260D01*
G75*
G02*
X9907740I125240J0D01*
G01*
X10472700D01*
Y13985425D01*
X10377800Y14080325D01*
X9561638D01*
G37*
X10020625Y12187500D02*
G36*
X10020625Y12187500D02*
Y11882000D01*
X10473500D01*
Y12187500D01*
X10020625D01*
G37*
X3555050Y13152000D02*
G36*
X3555050Y13152000D02*
Y12187500D01*
X6344500D01*
G75*
G02*
X6894500I275000J0D01*
G01*
X7844500D01*
G75*
G02*
X8394500I275000J0D01*
G01*
X9004625D01*
Y12929750D01*
X10020625D01*
Y12187500D01*
X10473500D01*
Y13129182D01*
G75*
G02*
X10472700Y13152000I325000J22818D01*
G01*
X9907740D01*
G75*
G02*
X9657260I-125240J0D01*
G01*
X9604601D01*
G75*
G02*
X9623440Y13088500I-97601J-63500D01*
G01*
G75*
G02*
X9390560I-116440J0D01*
G01*
G75*
G02*
X9409399Y13152000I116440J0D01*
G01*
X8881736D01*
G75*
G02*
X8244264I-318736J63500D01*
G01*
X6621736D01*
G75*
G02*
X5984264I-318736J63500D01*
G01*
X4553899D01*
G75*
G02*
X4343101I-105399J254000D01*
G01*
X3555050D01*
G37*
X11124300Y13406000D02*
G36*
X11124300Y13406000D02*
Y13152000D01*
X11285500D01*
G75*
G02*
X11455100Y13406000I275000J0D01*
G01*
X11124300D01*
G37*
X10020625Y11882000D02*
G36*
X10020625Y11882000D02*
Y5033760D01*
X10875970D01*
G75*
G02*
X10907398Y5024000I0J-55480D01*
G01*
X12473450D01*
Y5443500D01*
X11560500D01*
G75*
G02*
X11546390Y5447862I-1J25000D01*
G01*
G75*
G02*
X11285500Y5722500I14110J274638D01*
G01*
G75*
G02*
X11546390Y5997138I275000J0D01*
G01*
G75*
G02*
X11560500Y6001500I14109J-20638D01*
G01*
X12473450D01*
Y6205500D01*
X11751000D01*
G75*
G02*
X11726000Y6230500I0J25000D01*
G01*
Y6738500D01*
G75*
G02*
X11751000Y6763500I25000J0D01*
G01*
X12473450D01*
Y7920000D01*
X11560500D01*
G75*
G02*
X11546390Y7924362I-1J25000D01*
G01*
G75*
G02*
X11285500Y8199000I14110J274638D01*
G01*
G75*
G02*
X11546390Y8473638I275000J0D01*
G01*
G75*
G02*
X11560500Y8478000I14109J-20638D01*
G01*
X12473450D01*
Y8682000D01*
X11751000D01*
G75*
G02*
X11726000Y8707000I0J25000D01*
G01*
Y9215000D01*
G75*
G02*
X11751000Y9240000I25000J0D01*
G01*
X12473450D01*
Y10396500D01*
X11560500D01*
G75*
G02*
X11546390Y10400862I-1J25000D01*
G01*
G75*
G02*
X11285500Y10675500I14110J274638D01*
G01*
G75*
G02*
X11546390Y10950138I275000J0D01*
G01*
G75*
G02*
X11560500Y10954500I14109J-20638D01*
G01*
X12473450D01*
Y11158500D01*
X11751000D01*
G75*
G02*
X11726000Y11183500I0J25000D01*
G01*
Y11691500D01*
G75*
G02*
X11751000Y11716500I25000J0D01*
G01*
X12473450D01*
Y11882000D01*
X11123500D01*
Y5722500D01*
G75*
G02*
X10473500I-325000J0D01*
G01*
Y11882000D01*
X10020625D01*
G37*
X11123500Y12187500D02*
G36*
X11123500Y12187500D02*
Y11882000D01*
X12473450D01*
Y12187500D01*
X11123500D01*
G37*
Y13129182D02*
G36*
X11123500Y13129182D02*
Y12187500D01*
X12473450D01*
Y12873000D01*
X11560500D01*
G75*
G02*
X11546390Y12877362I-1J25000D01*
G01*
G75*
G02*
X11285500Y13152000I14110J274638D01*
G01*
X11124300D01*
G75*
G02*
X11123500Y13129182I-325800J0D01*
G01*
G37*
X11124300Y13914000D02*
G36*
X11124300Y13914000D02*
Y13406000D01*
X11455100D01*
G75*
G02*
X11546390Y13426638I105400J-254000D01*
G01*
G75*
G02*
X11560500Y13431000I14109J-20638D01*
G01*
X12473450D01*
Y13635000D01*
X11751000D01*
G75*
G02*
X11726000Y13660000I0J25000D01*
G01*
Y13914000D01*
X11124300D01*
G37*
X11104763Y14231500D02*
G36*
X11104763Y14231500D02*
G75*
G02*
X11124300Y14120375I-306263J-111124D01*
G01*
Y13914000D01*
X11726000D01*
Y14168000D01*
G75*
G02*
X11751000Y14193000I25000J0D01*
G01*
X12473450D01*
Y14231500D01*
X11104763D01*
G37*
X3555050Y14914250D02*
G36*
X3555050Y14914250D02*
Y14231500D01*
X5978000D01*
G75*
G02*
X6628000I325000J0D01*
G01*
X8237201D01*
G75*
G02*
X8332625Y14461875I325799J1D01*
G01*
X8506826Y14636076D01*
G75*
G02*
X8737625Y14731925I230799J-229951D01*
G01*
X10512750D01*
G75*
G02*
X10743549Y14636076I0J-325800D01*
G01*
X11028451Y14351174D01*
G75*
G02*
X11104763Y14231500I-229951J-230799D01*
G01*
X12473450D01*
Y14914250D01*
X12459490D01*
G75*
G02*
X12069010I-195240J0D01*
G01*
X3959490D01*
G75*
G02*
X3569010I-195240J0D01*
G01*
X3555050D01*
G37*
G36*
X3555050Y14914250D02*
X3569010D01*
G75*
G02*
X3959490I195240J0D01*
G01*
X12069010D01*
G75*
G02*
X12459490I195240J0D01*
G01*
X12473450D01*
G75*
G03*
X12264250Y15123450I-209200J0D01*
G01*
X3764250D01*
G75*
G03*
X3555050Y14914250I0J-209200D01*
G01*
G37*
X7869480Y6857655D02*
Y6640645D01*
G75*
G02*
X7877500Y6631794I-25479J-31146D01*
G01*
G75*
G02*
X7911000Y6649740I33500J-22294D01*
G01*
X7971000D01*
G75*
G02*
X8004500Y6631794I0J-40240D01*
G01*
G75*
G02*
X8038000Y6649740I33500J-22294D01*
G01*
X8098000D01*
G75*
G02*
X8138240Y6609500I0J-40240D01*
G01*
Y6409500D01*
G75*
G02*
X8137895Y6404240I-40240J-2D01*
G01*
X8144750D01*
G75*
G02*
X8184990Y6364000I0J-40240D01*
G01*
Y6276976D01*
G75*
G02*
X8186980Y6262250I-53490J-14726D01*
G01*
Y6156990D01*
X8201500D01*
G75*
G02*
X8241740Y6116750I0J-40240D01*
G01*
Y6031980D01*
X8449000D01*
G75*
G02*
X8488379Y6015581I0J-55480D01*
G01*
X8692155Y5811805D01*
G75*
G02*
X8770517Y5913000I137845J-25805D01*
G01*
G75*
G02*
Y6167000I59483J127000D01*
G01*
G75*
G02*
Y6421000I59483J127000D01*
G01*
G75*
G02*
Y6675000I59483J127000D01*
G01*
G75*
G02*
X8709368Y6873520I59483J127000D01*
G01*
X7944198D01*
G75*
G02*
X7869480Y6857655I-50823J55480D01*
G01*
X8200250Y6364000D02*
G75*
G02*
X8245250Y6409000I45000J0D01*
G01*
X8335250D01*
G75*
G02*
X8380250Y6364000I0J-45000D01*
G01*
Y6224000D01*
G75*
G02*
X8335250Y6179000I-45000J0D01*
G01*
X8245250D01*
G75*
G02*
X8200250Y6224000I0J45000D01*
G01*
Y6364000D01*
X8184990Y6294000D02*
G36*
X8184990Y6294000D02*
Y6276976D01*
G75*
G02*
X8186980Y6262250I-53490J-14726D01*
G01*
Y6156990D01*
X8201500D01*
G75*
G02*
X8241740Y6116750I0J-40240D01*
G01*
Y6031980D01*
X8449000D01*
G75*
G02*
X8488379Y6015581I0J-55480D01*
G01*
X8692155Y5811805D01*
G75*
G02*
X8770517Y5913000I137845J-25805D01*
G01*
G75*
G02*
X8689760Y6040000I59483J127000D01*
G01*
G75*
G02*
X8770517Y6167000I140240J0D01*
G01*
G75*
G02*
X8689760Y6294000I59483J127000D01*
G01*
X8380250D01*
Y6224000D01*
G75*
G02*
X8335250Y6179000I-45000J0D01*
G01*
X8245250D01*
G75*
G02*
X8200250Y6224000I0J45000D01*
G01*
Y6294000D01*
X8184990D01*
G37*
X7869480Y6857655D02*
G36*
X7869480Y6857655D02*
Y6640645D01*
G75*
G02*
X7877500Y6631794I-25479J-31146D01*
G01*
G75*
G02*
X7911000Y6649740I33500J-22294D01*
G01*
X7971000D01*
G75*
G02*
X8004500Y6631794I0J-40240D01*
G01*
G75*
G02*
X8038000Y6649740I33500J-22294D01*
G01*
X8098000D01*
G75*
G02*
X8138240Y6609500I0J-40240D01*
G01*
Y6409500D01*
Y6409498D01*
G75*
G02*
X8137895Y6404240I-40240J0D01*
G01*
X8144750D01*
G75*
G02*
X8184990Y6364000I0J-40240D01*
G01*
Y6294000D01*
X8200250D01*
Y6364000D01*
G75*
G02*
X8245250Y6409000I45000J0D01*
G01*
X8335250D01*
G75*
G02*
X8380250Y6364000I0J-45000D01*
G01*
Y6294000D01*
X8689760D01*
G75*
G02*
X8770517Y6421000I140240J0D01*
G01*
G75*
G02*
X8689760Y6548000I59483J127000D01*
G01*
G75*
G02*
X8770517Y6675000I140240J0D01*
G01*
G75*
G02*
X8689760Y6802000I59483J127000D01*
G01*
G75*
G02*
X8709368Y6873520I140240J0D01*
G01*
X7944198D01*
G75*
G02*
X7869480Y6857655I-50823J55480D01*
G01*
G37*
D02*
D15*
X4173000Y9280000D02*
X4113000D01*
X4236500Y7504500D02*
X4176500D01*
X4258000Y9195000D02*
Y9135000D01*
Y9365000D02*
Y9425000D01*
X4321500Y7419500D02*
Y7359500D01*
X4343000Y9280000D02*
X4403000D01*
X4406500Y7504500D02*
X4466500D01*
X4575500Y4200250D02*
Y4140250D01*
Y4260250D02*
Y4320250D01*
X4593000Y3732500D02*
Y3672500D01*
Y3902500D02*
Y3962500D01*
X4630500Y4230250D02*
X4690500D01*
X4678000Y3817500D02*
X4738000D01*
X4704250Y8389500D02*
X4644250D01*
X4734250Y8334500D02*
Y8274500D01*
X4764250Y8389500D02*
X4824250D01*
X5092000Y10580250D02*
X5032000D01*
X5147000Y10550250D02*
Y10490250D01*
Y10610250D02*
Y10670250D01*
X5202000Y10580250D02*
X5262000D01*
X5591500Y4200250D02*
Y4140250D01*
Y4260250D02*
Y4320250D01*
X5609000Y3732500D02*
Y3672500D01*
Y3902500D02*
Y3962500D01*
X5646500Y4230250D02*
X5706500D01*
X5663500Y9500750D02*
X5603500D01*
X5694000Y3817500D02*
X5754000D01*
X5718500Y9470750D02*
Y9410750D01*
Y9530750D02*
Y9590750D01*
X5773500Y9500750D02*
X5833500D01*
X6459000Y6548000D02*
X6399000D01*
X6607500Y4200250D02*
Y4140250D01*
Y4260250D02*
Y4320250D01*
X6625000Y3732500D02*
Y3672500D01*
Y3902500D02*
Y3962500D01*
X6629000Y6548000D02*
X6689000D01*
X6662500Y4230250D02*
X6722500D01*
X6710000Y3817500D02*
X6770000D01*
X6806500Y9818250D02*
X6746500D01*
X6861500Y9788250D02*
Y9728250D01*
Y9848250D02*
Y9908250D01*
X6916500Y9818250D02*
X6976500D01*
X6956750Y6810500D02*
Y6750500D01*
Y6920500D02*
Y6980500D01*
X6986750Y6865500D02*
X7046750D01*
X7040500Y9809500D02*
X6980500D01*
X7053750Y6294000D02*
X6993750D01*
X7083750Y6239000D02*
Y6179000D01*
Y6349000D02*
Y6409000D01*
X7113750Y6294000D02*
X7173750D01*
X7115500Y9774500D02*
Y9714500D01*
Y9844500D02*
Y9904500D01*
X7234000Y5450720D02*
X7174000D01*
X7246500Y5368220D02*
Y5308220D01*
Y5533220D02*
Y5593220D01*
X7330000Y9666500D02*
Y9606500D01*
Y9851500D02*
Y9911500D01*
X7362500Y9759000D02*
X7422500D01*
X7434750Y7373500D02*
X7374750D01*
X7434750Y9977000D02*
X7374750D01*
X7464750Y7318500D02*
Y7258500D01*
Y7428500D02*
Y7488500D01*
Y9922000D02*
Y9862000D01*
Y10032000D02*
Y10092000D01*
X7494750Y7373500D02*
X7554750D01*
X7494750Y9977000D02*
X7554750D01*
X7534500Y10687500D02*
X7474500D01*
X7619500Y10602500D02*
Y10542500D01*
Y10772500D02*
Y10832500D01*
X7623500Y4200250D02*
Y4140250D01*
Y4260250D02*
Y4320250D01*
X7641000Y3732500D02*
Y3672500D01*
Y3902500D02*
Y3962500D01*
X7678500Y4230250D02*
X7738500D01*
X7687000Y7009500D02*
Y6949500D01*
Y7179500D02*
Y7239500D01*
X7704500Y10687500D02*
X7764500D01*
X7726000Y3817500D02*
X7786000D01*
X7752250Y8326000D02*
X7692250D01*
X7752250Y8516500D02*
X7692250D01*
X7782250Y8571500D02*
Y8631500D01*
X7812250Y8326000D02*
X7872250D01*
X7812250Y8516500D02*
X7872250D01*
X7814000Y8035220D02*
Y7975220D01*
X7826500Y8117720D02*
X7886500D01*
X7873500Y5368220D02*
Y5308220D01*
Y5533220D02*
Y5593220D01*
X8056000Y9977000D02*
X7996000D01*
X8091000Y9902000D02*
Y9842000D01*
Y10052000D02*
Y10112000D01*
X8126000Y9977000D02*
X8186000D01*
X8260250Y5722500D02*
X8200250D01*
X8260250Y6294000D02*
X8200250D01*
X8267000Y5182750D02*
X8207000D01*
X8290250Y5667500D02*
Y5607500D01*
Y5777500D02*
Y5837500D01*
Y6239000D02*
Y6179000D01*
Y6349000D02*
Y6409000D01*
X8320250Y5722500D02*
X8380250D01*
X8320250Y6294000D02*
X8380250D01*
X8322000Y5152750D02*
Y5092750D01*
Y5212750D02*
Y5272750D01*
X8377000Y5182750D02*
X8437000D01*
X8576000Y4200250D02*
Y4140250D01*
Y4260250D02*
Y4320250D01*
X8631000Y4230250D02*
X8691000D01*
X8657000Y3732500D02*
Y3672500D01*
Y3902500D02*
Y3962500D01*
X8691500Y10779500D02*
X8631500D01*
X8742000Y3817500D02*
X8802000D01*
X8745000Y8326000D02*
X8685000D01*
X8745000Y9850000D02*
X8685000D01*
X8766500Y10744500D02*
Y10684500D01*
Y10814500D02*
Y10874500D01*
X8830000Y9935000D02*
Y9995000D01*
X8841500Y10779500D02*
X8901500D01*
X9191800Y5278000D02*
X9131800D01*
X9205375Y7693300D02*
Y7633300D01*
Y7815700D02*
Y7875700D01*
X9207675Y10231000D02*
X9147675D01*
X9207675Y12707500D02*
X9147675D01*
X9253000Y5216800D02*
Y5156800D01*
Y5339200D02*
Y5399200D01*
X9266575Y7754500D02*
X9326575D01*
X9268875Y10169800D02*
Y10109800D01*
Y10292200D02*
Y10352200D01*
Y12646300D02*
Y12586300D01*
Y12768700D02*
Y12828700D01*
X9314200Y5278000D02*
X9374200D01*
X9330075Y10231000D02*
X9390075D01*
X9330075Y12707500D02*
X9390075D01*
X9592000Y4200250D02*
Y4140250D01*
Y4260250D02*
Y4320250D01*
X9647000Y4230250D02*
X9707000D01*
X9673000Y3732500D02*
Y3672500D01*
Y3902500D02*
Y3962500D01*
X9758000Y3817500D02*
X9818000D01*
X10608000Y4200250D02*
Y4140250D01*
Y4260250D02*
Y4320250D01*
X10663000Y4230250D02*
X10723000D01*
X10689000Y3732500D02*
Y3672500D01*
Y3902500D02*
Y3962500D01*
X10774000Y3817500D02*
X10834000D01*
X11624000Y4200250D02*
Y4140250D01*
Y4260250D02*
Y4320250D01*
X11679000Y4230250D02*
X11739000D01*
X11705000Y3732500D02*
Y3672500D01*
Y3902500D02*
Y3962500D01*
X11790000Y3817500D02*
X11850000D01*
D02*
D16*
X4893000Y7976750D02*
Y8151375D01*
X4924750Y8183125D01*
Y8389500D01*
Y8580000D02*
Y8389500D01*
X5099375Y8580000D02*
X4924750D01*
X8322000Y5373250D02*
X8244530Y5450720D01*
X8127500D01*
D02*
D17*
X4385000Y4770000D03*
X4533500Y8407000D03*
X5099375Y8580000D03*
X5105000Y10756500D03*
X5232000D03*
X5401000Y4770000D03*
X5549500Y9550000D03*
X5613000Y9359500D03*
X6417000Y4770000D03*
X6819500Y9994500D03*
X6925000Y4770000D03*
Y5849500D03*
X6946500Y6057500D03*
Y6629000D03*
Y7200500D03*
X7010000Y9994500D03*
X7073500Y6057500D03*
X7137000Y6629000D03*
X7200500Y9994500D03*
X7264000Y7327500D03*
Y7518000D03*
X7373500Y5738375D03*
X7433000Y4770000D03*
X7500500Y5867000D03*
X7518000Y6121000D03*
Y6294000D03*
X7627500Y5867000D03*
X7746500D03*
X7893375Y6929000D03*
X8026000Y6756000D03*
Y7391000D03*
Y7835500D03*
Y8216500D03*
Y8597500D03*
X8216500Y6756000D03*
Y7391000D03*
X8280000Y9931000D03*
Y10058000D03*
X8385500Y4770000D03*
X8407000Y6121000D03*
X8470500Y5613000D03*
Y5803500D03*
X8496625Y5373250D03*
X8534000Y5105000D03*
Y5232000D03*
Y6184500D03*
X8597500Y10502500D03*
X8915000Y10248500D03*
Y10502500D03*
Y10947000D03*
X9169000Y5994000D03*
Y6311500D03*
X9296000Y8343500D03*
Y8597500D03*
Y11709000D03*
Y11899500D03*
Y12090000D03*
X9401500Y4770000D03*
X9486500Y11010500D03*
X9550000Y9423000D03*
X9613500Y11010500D03*
X9740500Y6946500D03*
Y7264000D03*
Y11010500D03*
Y11709000D03*
Y11899500D03*
Y12090000D03*
X10417500Y4770000D03*
X11433500D03*
D02*
D19*
X6607500Y8961000D02*
X6464625D01*
X8766500Y5659000D02*
X8893500D01*
X8909375Y6929000D02*
X8750625D01*
D02*
D71*
X4385000Y4770000D02*
Y4611250D01*
X5401000Y4770000D02*
Y4611250D01*
X6417000D02*
Y4770000D01*
X6861500Y9627750D02*
X6766250D01*
X6544000Y9850000D01*
X6925000Y4928750D02*
Y4770000D01*
X7115500Y9509500D02*
X6979750D01*
X6861500Y9627750D01*
X7115500Y9509500D02*
X7560000D01*
X7119500Y10687500D02*
X7655250Y10151750D01*
Y9977000D01*
X7119500Y10687500D02*
X7504375Y11072375D01*
X7972750D01*
X7274250Y6294000D02*
Y5944750D01*
X6909125Y5579625D01*
Y5135125D01*
X6925000Y5119250D01*
X7306000Y6325750D02*
X7274250Y6294000D01*
X7306000Y6509500D02*
Y6325750D01*
X7433000Y4611250D02*
Y4770000D01*
Y6509500D02*
Y6357500D01*
X7401250Y6325750D01*
X7306000D01*
X7560000Y8117720D02*
Y7976750D01*
X7480625Y7897375D01*
X7337750D01*
X7147250Y7704970D01*
Y6865500D01*
X7560000Y8117720D02*
Y8294250D01*
X7591750Y8326000D01*
X7560000Y9179000D02*
Y8929250D01*
X6798000Y8167250D01*
Y5976500D01*
X6925000Y5849500D01*
X7560000Y9509500D02*
Y9179000D01*
Y9759000D02*
Y9509500D01*
X7591750Y8516500D02*
Y8326000D01*
X7687000Y6509500D02*
Y6690875D01*
X7512375Y6865500D01*
X7147250D01*
X7687000Y7645280D02*
Y7405250D01*
X7655250Y7373500D01*
X7790000Y9759000D02*
Y8857625D01*
X7591750Y8659375D01*
Y8516500D01*
X7790000Y9759000D02*
Y9976000D01*
X7791000Y9977000D01*
X7655250D01*
X8385500Y4611250D02*
Y4770000D01*
X8496625Y5373250D02*
X8322000D01*
X8766500Y11079500D02*
X9085500D01*
X9507000Y11501000D01*
X8766500Y11079500D02*
X8759375Y11072375D01*
X8163250D01*
X9401500Y4611250D02*
Y4770000D01*
X10417500Y4611250D02*
Y4770000D01*
X11433500D02*
Y4611250D01*
D02*
D78*
X4258000Y8580000D03*
Y8930000D03*
Y9280000D03*
X4321500Y7504500D03*
Y7754500D03*
X4343000Y3817500D03*
X4448500Y11882000D03*
Y12644000D03*
Y13406000D03*
X4593000Y3817500D03*
X5359000D03*
X5609000D03*
X6375000D03*
X6544000Y5278000D03*
Y5532000D03*
Y5786000D03*
Y6040000D03*
Y6294000D03*
Y6548000D03*
Y6802000D03*
Y7056000D03*
Y7310000D03*
Y7564000D03*
Y7818000D03*
Y8072000D03*
Y8326000D03*
Y8580000D03*
Y8834000D03*
Y9088000D03*
Y9342000D03*
Y9596000D03*
Y9850000D03*
X6619500Y12187500D03*
X6625000Y3817500D03*
X7119500Y10687500D03*
X7391000Y3817500D03*
X7619500Y10687500D03*
X7641000Y3817500D03*
X8119500Y12187500D03*
X8407000Y3817500D03*
X8657000D03*
X8830000Y5278000D03*
Y5532000D03*
Y5786000D03*
Y6040000D03*
Y6294000D03*
Y6548000D03*
Y6802000D03*
Y7056000D03*
Y7310000D03*
Y7564000D03*
Y7818000D03*
Y8072000D03*
Y8326000D03*
Y8580000D03*
Y8834000D03*
Y9088000D03*
Y9342000D03*
Y9596000D03*
Y9850000D03*
X9423000Y3817500D03*
X9673000D03*
X10439000D03*
X10689000D03*
X10798500Y5722500D03*
Y8199000D03*
Y10675500D03*
Y13152000D03*
X11455000Y3817500D03*
X11560500Y5722500D03*
Y8199000D03*
Y10675500D03*
Y13152000D03*
X11705000Y3817500D03*
X12005000Y5722500D03*
Y6103500D03*
Y6484500D03*
Y8199000D03*
Y8580000D03*
Y8961000D03*
Y10675500D03*
Y11056500D03*
Y11437500D03*
Y13152000D03*
Y13533000D03*
Y13914000D03*
X12259000Y5722500D03*
Y6103500D03*
Y6484500D03*
Y8199000D03*
Y8580000D03*
Y8961000D03*
Y10675500D03*
Y11056500D03*
Y11437500D03*
Y13152000D03*
Y13533000D03*
Y13914000D03*
D02*
D79*
X9205375Y7754500D03*
X9253000Y5278000D03*
X9268875Y10231000D03*
Y12707500D03*
X9459375Y7754500D03*
X9507000Y5278000D03*
Y5659000D03*
Y6548000D03*
Y8135500D03*
Y9024500D03*
Y10612000D03*
Y11501000D03*
Y13088500D03*
Y13977500D03*
X9522875Y10231000D03*
Y12707500D03*
X9713375Y7754500D03*
X9761000Y5278000D03*
X9776875Y10231000D03*
Y12707500D03*
D02*
D83*
X5147000Y9913500D03*
Y10167500D03*
X5718500Y9913500D03*
Y10167500D03*
X9782500Y5722500D03*
Y6484500D03*
Y8199000D03*
Y8961000D03*
Y10675500D03*
Y11437500D03*
Y13152000D03*
Y13914000D03*
D02*
D90*
X4385000Y4039750D02*
Y3859500D01*
X4343000Y3817500D01*
X4385000Y4230250D02*
Y4420750D01*
X4575500D01*
X4734250Y8580000D02*
X4258000D01*
X4734250Y8897500D02*
X4290500D01*
X4258000Y8930000D01*
X4893000Y7786250D02*
X5750250D01*
X6544000Y8580000D01*
X4893000Y7786250D02*
X4353250D01*
X4321500Y7754500D01*
X4924750Y8897500D02*
X5607375D01*
X5670875Y8834000D01*
X6544000D01*
X5147000Y10389750D02*
Y10167500D01*
X5401000Y4039750D02*
Y3859500D01*
X5359000Y3817500D01*
X5401000Y4230250D02*
Y4420750D01*
X5591500D02*
X5750250D01*
X5845500Y4516000D01*
X6972625D01*
X7373500Y4916875D01*
Y4978280D01*
X5591500Y4420750D02*
X5401000D01*
X5718500Y9691250D02*
Y9913500D01*
X6417000Y4039750D02*
Y3859500D01*
X6375000Y3817500D01*
X6417000Y4230250D02*
Y4420750D01*
X6607500D01*
X6464625Y8961000D02*
X5845500D01*
X5147000Y9659500D01*
Y9913500D01*
X6544000Y8326000D02*
X6718625Y8500625D01*
Y8897500D01*
X6655125Y8961000D01*
X6607500D01*
X7246500Y4978280D02*
X7161220D01*
X7115500Y5024000D01*
X5178750D01*
X4575500Y4420750D01*
X7373500Y5738375D02*
Y5450720D01*
X7433000Y4039750D02*
Y3859500D01*
X7391000Y3817500D01*
X7433000Y4230250D02*
Y4420750D01*
X7623500D01*
X7500500Y4978280D02*
Y4932750D01*
X6988500Y4420750D01*
X6607500D01*
X7500500Y5867000D02*
Y5450720D01*
X7518000Y6294000D02*
X7671125D01*
X7988625Y5976500D01*
X8449000D01*
X8766500Y5659000D01*
X7560000Y6509500D02*
Y6373375D01*
X7591750Y6341625D01*
X7782250D01*
X7814000Y6373375D01*
Y6509500D01*
X7623500Y4420750D02*
Y4974280D01*
X7627500Y4978280D01*
Y5867000D02*
Y5450720D01*
X7746500Y4978280D02*
Y4567625D01*
X7893375Y4420750D01*
X8385500D01*
X7746500Y5867000D02*
Y5450720D01*
X7814000Y6509500D02*
Y6881375D01*
X7750500Y6944875D01*
Y7278250D01*
X7655250Y7373500D01*
X7873500Y4978280D02*
Y4615250D01*
X7972750Y4516000D01*
X9306250D01*
X9401500Y4420750D01*
X7941000Y6509500D02*
X8068000D01*
X8000500Y4978280D02*
Y4869250D01*
X8052125Y4817625D01*
X8306125D01*
X8337875Y4849375D01*
X9988875D01*
X10417500Y4420750D01*
X8068000Y6509500D02*
Y6325750D01*
X8099750Y6294000D01*
Y5722500D02*
X8000500Y5623250D01*
Y5450720D01*
X8099750Y6294000D02*
X8131500Y6262250D01*
Y6071750D01*
X8127500Y4978280D02*
X10875970D01*
X11433500Y4420750D01*
X8131500Y5881250D02*
Y5754250D01*
X8099750Y5722500D01*
X8385500Y4039750D02*
Y3839000D01*
X8407000Y3817500D01*
X8385500Y4230250D02*
Y4420750D01*
X8576000D02*
X8385500D01*
X8750625Y6929000D02*
X7893375D01*
X8830000Y7056000D02*
X9068125Y7294125D01*
Y9294375D01*
X9528500Y9754750D01*
X8830000Y7310000D02*
X8988750Y7468750D01*
Y10770750D01*
X9639625Y11421625D01*
Y11628000D01*
X9528500Y11739125D01*
Y12231250D01*
X8893500Y5659000D02*
X8941125D01*
X9004625Y5595500D01*
X9115750D01*
X9306250D02*
Y5478750D01*
X9507000Y5278000D01*
X9401500Y4039750D02*
Y3839000D01*
X9423000Y3817500D01*
X9401500Y4230250D02*
Y4420750D01*
X9592000D01*
X9465000Y7278250D02*
X9115750Y6929000D01*
X8909375D01*
X9465000Y7468750D02*
Y7748875D01*
X9459375Y7754500D01*
X9528500Y9945250D02*
Y10225375D01*
X9522875Y10231000D01*
X9528500Y12421750D02*
Y12701875D01*
X9522875Y12707500D01*
X10417500Y4039750D02*
Y3839000D01*
X10439000Y3817500D01*
X10417500Y4230250D02*
Y4420750D01*
X10608000D01*
X11433500Y4039750D02*
Y3839000D01*
X11455000Y3817500D01*
X11433500Y4230250D02*
Y4420750D01*
X11624000D01*
D02*
D94*
X7791000Y9977000D03*
X8091000D03*
D02*
D95*
X4734250Y8389500D03*
Y8580000D03*
Y8897500D03*
X4924750Y8389500D03*
Y8580000D03*
Y8897500D03*
X6956750Y6865500D03*
X7083750Y6294000D03*
X7147250Y6865500D03*
X7274250Y6294000D03*
X7464750Y7373500D03*
Y9977000D03*
X7591750Y8326000D03*
Y8516500D03*
X7655250Y7373500D03*
Y9977000D03*
X7782250Y8326000D03*
Y8516500D03*
X7972750Y11072375D03*
X8099750Y5722500D03*
Y6294000D03*
X8163250Y11072375D03*
X8290250Y5722500D03*
Y6294000D03*
X9115750Y5595500D03*
X9306250D03*
D02*
D99*
X4385000Y4039750D03*
Y4230250D03*
Y4420750D03*
Y4611250D03*
X4575500Y4230250D03*
Y4420750D03*
X4893000Y7786250D03*
Y7976750D03*
X5147000Y10389750D03*
Y10580250D03*
X5401000Y4039750D03*
Y4230250D03*
Y4420750D03*
Y4611250D03*
X5591500Y4230250D03*
Y4420750D03*
X5718500Y9500750D03*
Y9691250D03*
X6417000Y4039750D03*
Y4230250D03*
Y4420750D03*
Y4611250D03*
X6607500Y4230250D03*
Y4420750D03*
X6861500Y9627750D03*
Y9818250D03*
X6925000Y4928750D03*
Y5119250D03*
X7433000Y4039750D03*
Y4230250D03*
Y4420750D03*
Y4611250D03*
X7623500Y4230250D03*
Y4420750D03*
X8131500Y5881250D03*
Y6071750D03*
X8322000Y5182750D03*
Y5373250D03*
X8385500Y4039750D03*
Y4230250D03*
Y4420750D03*
Y4611250D03*
X8576000Y4230250D03*
Y4420750D03*
X9401500Y4039750D03*
Y4230250D03*
Y4420750D03*
Y4611250D03*
X9465000Y7278250D03*
Y7468750D03*
X9528500Y9754750D03*
Y9945250D03*
Y12231250D03*
Y12421750D03*
X9592000Y4230250D03*
Y4420750D03*
X10417500Y4039750D03*
Y4230250D03*
Y4420750D03*
Y4611250D03*
X10608000Y4230250D03*
Y4420750D03*
X11433500Y4039750D03*
Y4230250D03*
Y4420750D03*
Y4611250D03*
X11624000Y4230250D03*
Y4420750D03*
D02*
D103*
X7115500Y9509500D03*
Y9809500D03*
X8766500Y10779500D03*
Y11079500D03*
D02*
D107*
X10798500Y8199000D02*
Y5722500D01*
Y10675500D02*
Y8199000D01*
Y13152000D02*
Y14120375D01*
X10512750Y14406125D01*
X8737625D01*
X8563000Y14231500D01*
X10798500Y13152000D02*
Y10675500D01*
D02*
D108*
X7330000Y9759000D03*
X7560000D03*
X7790000D03*
D02*
D109*
X7560000Y9179000D03*
D02*
D110*
X7246500Y4978280D03*
Y5450720D03*
X7373500Y4978280D03*
Y5450720D03*
X7433000Y7645280D03*
Y8117720D03*
X7500500Y4978280D03*
Y5450720D03*
X7560000Y7645280D03*
Y8117720D03*
X7627500Y4978280D03*
Y5450720D03*
X7687000Y7645280D03*
Y8117720D03*
X7746500Y4978280D03*
Y5450720D03*
X7814000Y7645280D03*
Y8117720D03*
X7873500Y4978280D03*
Y5450720D03*
X8000500Y4978280D03*
Y5450720D03*
X8127500Y4978280D03*
Y5450720D03*
D02*
D111*
X7306000Y6509500D03*
Y7094500D03*
X7433000Y6509500D03*
Y7094500D03*
X7560000Y6509500D03*
Y7094500D03*
X7687000Y6509500D03*
Y7094500D03*
X7814000Y6509500D03*
Y7094500D03*
X7941000Y6509500D03*
Y7094500D03*
X8068000Y6509500D03*
Y7094500D03*
D02*
D112*
X6303000Y13215500D03*
Y14231500D03*
X8563000Y13215500D03*
Y14231500D03*
X0Y0D02*
M02*
