M48
FMAT,1
METRIC
T01C000.40000
T02C000.81280
T03C001.00000
T04C001.10000
T05C001.20000
T06C001.30000
T07C001.40000
T08C001.50000
T09C003.10000
%
G81
M71
T01
X4385000Y4770000
X4533500Y8407000
X5099375Y8580000
X5105000Y10756500
X5232000Y10756500
X5401000Y4770000
X5549500Y9550000
X5613000Y9359500
X6417000Y4770000
X6819500Y9994500
X6925000Y4770000
X6925000Y5849500
X6946500Y6057500
X6946500Y6629000
X6946500Y7200500
X7010000Y9994500
X7073500Y6057500
X7137000Y6629000
X7200500Y9994500
X7264000Y7327500
X7264000Y7518000
X7373500Y5738375
X7433000Y4770000
X7500500Y5867000
X7518000Y6121000
X7518000Y6294000
X7627500Y5867000
X7746500Y5867000
X7893375Y6929000
X8026000Y6756000
X8026000Y7391000
X8026000Y7835500
X8026000Y8216500
X8026000Y8597500
X8216500Y6756000
X8216500Y7391000
X8280000Y9931000
X8280000Y10058000
X8385500Y4770000
X8407000Y6121000
X8470500Y5613000
X8470500Y5803500
X8496625Y5373250
X8534000Y5105000
X8534000Y5232000
X8534000Y6184500
X8597500Y10502500
X8915000Y10248500
X8915000Y10502500
X8915000Y10947000
X9169000Y5994000
X9169000Y6311500
X9296000Y8343500
X9296000Y8597500
X9296000Y11709000
X9296000Y11899500
X9296000Y12090000
X9401500Y4770000
X9486500Y11010500
X9550000Y9423000
X9613500Y11010500
X9740500Y6946500
X9740500Y7264000
X9740500Y11010500
X9740500Y11709000
X9740500Y11899500
X9740500Y12090000
X10417500Y4770000
X11433500Y4770000
T02
X9205375Y7754500
X9253000Y5278000
X9268875Y10231000
X9268875Y12707500
X9459375Y7754500
X9507000Y5278000
X9507000Y5659000
X9507000Y6548000
X9507000Y8135500
X9507000Y9024500
X9507000Y10612000
X9507000Y11501000
X9507000Y13088500
X9507000Y13977500
X9522875Y10231000
X9522875Y12707500
X9713375Y7754500
X9761000Y5278000
X9776875Y10231000
X9776875Y12707500
T03
X5147000Y9913500
X5147000Y10167500
X5718500Y9913500
X5718500Y10167500
X9782500Y5722500
X9782500Y6484500
X9782500Y8199000
X9782500Y8961000
X9782500Y10675500
X9782500Y11437500
X9782500Y13152000
X9782500Y13914000
T04
X6544000Y5278000
X6544000Y5532000
X6544000Y5786000
X6544000Y6040000
X6544000Y6294000
X6544000Y6548000
X6544000Y6802000
X6544000Y7056000
X6544000Y7310000
X6544000Y7564000
X6544000Y7818000
X6544000Y8072000
X6544000Y8326000
X6544000Y8580000
X6544000Y8834000
X6544000Y9088000
X6544000Y9342000
X6544000Y9596000
X6544000Y9850000
X8830000Y5278000
X8830000Y5532000
X8830000Y5786000
X8830000Y6040000
X8830000Y6294000
X8830000Y6548000
X8830000Y6802000
X8830000Y7056000
X8830000Y7310000
X8830000Y7564000
X8830000Y7818000
X8830000Y8072000
X8830000Y8326000
X8830000Y8580000
X8830000Y8834000
X8830000Y9088000
X8830000Y9342000
X8830000Y9596000
X8830000Y9850000
T05
X6619500Y12187500
X7119500Y10687500
X7619500Y10687500
X8119500Y12187500
X12005000Y5722500
X12005000Y6103500
X12005000Y6484500
X12005000Y8199000
X12005000Y8580000
X12005000Y8961000
X12005000Y10675500
X12005000Y11056500
X12005000Y11437500
X12005000Y13152000
X12005000Y13533000
X12005000Y13914000
X12259000Y5722500
X12259000Y6103500
X12259000Y6484500
X12259000Y8199000
X12259000Y8580000
X12259000Y8961000
X12259000Y10675500
X12259000Y11056500
X12259000Y11437500
X12259000Y13152000
X12259000Y13533000
X12259000Y13914000
T06
X10798500Y5722500
X10798500Y8199000
X10798500Y10675500
X10798500Y13152000
X11560500Y5722500
X11560500Y8199000
X11560500Y10675500
X11560500Y13152000
T07
X4258000Y8580000
X4258000Y8930000
X4258000Y9280000
X4321500Y7504500
X4321500Y7754500
X4343000Y3817500
X4448500Y11882000
X4448500Y12644000
X4448500Y13406000
X4593000Y3817500
X5359000Y3817500
X5609000Y3817500
X6375000Y3817500
X6625000Y3817500
X7391000Y3817500
X7641000Y3817500
X8407000Y3817500
X8657000Y3817500
X9423000Y3817500
X9673000Y3817500
X10439000Y3817500
X10689000Y3817500
X11455000Y3817500
X11705000Y3817500
T08
X6303000Y13215500
X6303000Y14231500
X8563000Y13215500
X8563000Y14231500
T09
X3764250Y3514250
X3764250Y14914250
X12264250Y3514250
X12264250Y14914250
M30
